<svg fill="none" height="50" viewBox="0 0 144 50" width="144" xmlns="http://www.w3.org/2000/svg"><g fill="#8a2e00"><path d="m9.67992 12.3677c4.23998 3.57 7.95998 7.64 11.93998 11.46 10.53 10.1 22.94 17.31 36.69 21.23 11.58 3.3 23.85 4.49 35.68-.58 1.76-.75 3.14-1.86 4.49-3.03 2.2801-1.99 4.8301-4.35 3.9401-7.55-.7-2.52-3.9801-1.87-6.1001-2.36-6.76-1.57-12.95-4.34-18.51-8.39-7.13-5.19-8.47-12.5-3.68-18.55001 4.49-5.67 13.74-6.23 19.7-.93 7.2601 6.46001 11.5301 14.60001 12.0601 24.36001.17 3.07 1.01 3.99 4.06 3.97 5.43-.05 10.87.38 16.34 1.09-3.91 1.71-8.18 1.46-12.17 1.01-4.78-.54-7.91-.63-10.45 4.86-3.7201 8.05-11.9601 10.21-20.1101 10.73-22.37 1.44-41.57-6.52-58.62-20.55-5.9-4.85-11.21-10.19-15.26998-16.76zm72.25998-10.39001c-.38.16-1.38.4-2.17.94-8.33 5.69-8.65 11.44001-1.26 18.13001 6.25 5.65 14.32 7.47 22.2901 9.34 2.91.69 3.18-.83 3-2.92-.73-8.36-4.8801-15.21-10.4201-21.06001-2.67-2.81-6.61-4.5-11.45-4.43z"/><path d="m19.09 40.9677c-6.72-12.8-13.52-24.48-19.09-37.85002 10.82 2.23 20.55 5.49 29.97 9.92002-6.89-1.82-13.77-3.66002-20.67-5.42002-1.36-.35-3.05-1.76-4.11-.37-.94 1.22.43 2.73 1.08 4.04002 4.06 8.16 8.11 16.33 12.13 24.51.63 1.27 1.62 2.5.7 5.18z"/><path d="m143.55 29.4878c-4.37 2.67-9.1 3.53-14.15 2.76 4.72-.92 9.44-1.84 14.15-2.76z"/></g></svg>