<svg width="144" height="50" viewBox="0 0 144 50" fill="none" xmlns="http://www.w3.org/2000/svg">
<path d="M9.67992 12.3677C13.9199 15.9377 17.6399 20.0077 21.6199 23.8277C32.1499 33.9277 44.5599 41.1377 58.3099 45.0577C69.8899 48.3577 82.1599 49.5477 93.9899 44.4777C95.7499 43.7277 97.1299 42.6177 98.4799 41.4477C100.76 39.4577 103.31 37.0977 102.42 33.8977C101.72 31.3777 98.4399 32.0277 96.3199 31.5377C89.5599 29.9677 83.3699 27.1977 77.8099 23.1477C70.6799 17.9577 69.3399 10.6477 74.1299 4.59769C78.6199 -1.07231 87.8699 -1.63231 93.8299 3.66769C101.09 10.1277 105.36 18.2677 105.89 28.0277C106.06 31.0977 106.9 32.0177 109.95 31.9977C115.38 31.9477 120.82 32.3777 126.29 33.0877C122.38 34.7977 118.11 34.5477 114.12 34.0977C109.34 33.5577 106.21 33.4677 103.67 38.9577C99.9499 47.0077 91.7099 49.1677 83.5599 49.6877C61.1899 51.1277 41.9899 43.1677 24.9399 29.1377C19.0399 24.2877 13.7299 18.9477 9.66992 12.3777L9.67992 12.3677ZM81.9399 1.97769C81.5599 2.13769 80.5599 2.37769 79.7699 2.91769C71.4399 8.60769 71.1199 14.3577 78.5099 21.0477C84.7599 26.6977 92.8299 28.5177 100.8 30.3877C103.71 31.0777 103.98 29.5577 103.8 27.4677C103.07 19.1077 98.9199 12.2577 93.3799 6.40769C90.7099 3.59769 86.7699 1.90769 81.9299 1.97769H81.9399Z" fill="#8A2E00"/>
<path d="M19.09 40.9677C12.37 28.1677 5.57 16.4877 0 3.11768C10.82 5.34768 20.55 8.60768 29.97 13.0377C23.08 11.2177 16.2 9.37768 9.3 7.61768C7.94 7.26768 6.25 5.85768 5.19 7.24768C4.25 8.46768 5.62 9.97768 6.27 11.2877C10.33 19.4477 14.38 27.6177 18.4 35.7977C19.03 37.0677 20.02 38.2977 19.1 40.9777L19.09 40.9677Z" fill="#8A2E00"/>
<path d="M143.55 29.4878C139.18 32.1578 134.45 33.0178 129.4 32.2478C134.12 31.3278 138.84 30.4078 143.55 29.4878Z" fill="#8A2E00"/>
</svg>
