<svg fill="none" height="832" viewBox="0 0 1280 832" width="1280" xmlns="http://www.w3.org/2000/svg" xmlns:xlink="http://www.w3.org/1999/xlink"><clipPath id="a"><path d="m0 0h1280v832h-1280z"/></clipPath><g clip-path="url(#a)"><path d="m0 0h1280v832h-1280z" fill="#f0e6da"/><path d="m40.5235 160.792c.6966-1.851.6259-3.8.6746-5.728.1044-4.04.1145-8.08.5126-12.106.2294-2.314.9213-4.488 2.068-6.483 1.077-1.875 2.7752-3.157 4.8104-3.827 2.7697-.911 5.8456.512 7.4096 3.247.1529.267.3124.539.4086.828.384 1.145 1.194 1.785 2.3282 2.141 1.3923.435 2.6147 1.144 3.5427 2.32.8387 1.063.919 2.234.745 3.497-.1778 1.294-.3072 2.602.6504 3.706.3615.415.7323.826 1.1377 1.199.8095.744 1.3643 1.606 1.4729 2.722.0281.284.1146.56.1672.84.1251.678.525 1.044 1.2004 1.241 2.0018.582 2.7416 1.926 2.1842 3.937-.4524 1.632-.4759 3.197.4547 4.703.5148.835.6423 1.78.518 2.739-.2178 1.688-.9256 3.155-2.1411 4.35-.659.649-1.4692 1.031-2.4152 1.108-.8351.068-1.6757.148-2.4548.49-.2277.101-.5964.162-.561.454.0301.251.3877.227.6225.269.9338.168 1.8826.248 2.7879.561.8929.309 1.5889.833 2.0871 1.64.231.374.3658.765.3289 1.187-.1522 1.708-.4879 3.352-1.7633 4.643-.667.675-.9623 1.47-.8929 2.447.109 1.555-.5274 2.474-2.0358 3.002-.7678.267-1.5686.446-2.3642.626-.9623.22-1.5974.764-1.9344 1.697-.3277.909-.7075 1.798-1.0719 2.694-.4163 1.022-1.1242 1.781-2.1404 2.223-.508.221-.8057.552-.9268 1.099-.2379 1.078-.8366 1.828-2.0049 1.993-.4063.058-.6244.286-.6765.687-.0138.11-.0459.215-.0668.323-.4417 2.14-1.7326 3.182-3.9357 3.168-.3589-.003-.6994.003-.9778.29-1.052 1.084-1.9493 1.249-3.2632.49-3.122-1.8-5.4034-4.306-6.7188-7.714-1.0661-2.762-1.4995-5.589-1.4828-8.516.0121-1.801.1127-3.594.2665-5.39.237-2.78-.2225-5.456-1.4522-8.011-.6529-1.356-1.892-1.595-3.1001-1.853-5.0092-1.076-10.049-2.019-15.0451-3.151-3.6875-.835-7.3006-1.954-10.54827-3.99-2.58764-1.624-5.09487-3.34-6.9679611-5.814-.2903329-.383-.5306909-.758-.3745589-1.266.17359-.573.3851359-.645.814924-.238.368366.348.698046.735 1.060196 1.091 2.06564 2.031 4.17031 4.035 6.8546 5.237 3.81477 1.71 7.74727 3.103 11.80647 4.141 4.048 1.036 8.1738 1.708 12.2195 2.746.5296.136 1.0093-.056 1.4782-.237 3.1989-1.229 5.3312-3.49 6.4731-6.695.0888-.248.1527-.504.2291-.756zm25.5149-7.858c-2.0312 2.457-4.4953 4.44-7.0161 6.361-5.6952 4.34-12.0711 7.191-19.1052 8.603-.4266.086-.8512.178-1.2117.442.3382-.005.6629-.049.9881-.1.8711-.136 1.7396-.283 2.6122-.411.7571-.111 1.4473-.613 2.2759-.341.1849.06.4329-.05.6458-.095 4.3258-.926 8.3732-2.567 12.2353-4.682.6401-.351 1.2711-.716 1.9057-1.073-.2035.307-.475.514-.7611.698-1.7213 1.115-3.5285 2.074-5.4124 2.89-2.0198.875-4.1108 1.557-6.1966 2.254-1.9657.402-3.9846.522-5.9252 1.059 2.0175-.147 4.0154-.407 5.9506-1.009 4.8769-.855 9.6253-2.186 14.2905-3.817 2.1098-.738 4.2094-1.506 6.3129-2.261-1.9375 1.35-4.1802 2.028-6.3518 2.836-2.1884.812-4.4216 1.516-6.6649 2.171-2.2648.662-4.6058 1.02-6.9028 1.559-2.2471.527-4.5119.908-6.8071 1.147 6.1504.387 11.8528-1.589 17.6195-3.248-2.2682.967-4.6148 1.675-6.9836 2.323-2.3724.647-4.782 1.078-7.2362 1.267 7.6609-.09 14.9065-2.218 22.1408-4.417-3.081 1.421-6.3582 2.232-9.6098 3.099-3.2789.874-6.6358 1.361-10.0169 1.761 3.7267-.028 7.4557-.058 11.1825-.086-.0001.057-.0002.115-.0003.173-6.1543.264-12.3096.537-18.469-.197 1.7476.272 3.4332.87 5.2188.838 5.4041-.099 10.8081-.039 16.2122.085.9049.021 1.8183.026 2.6972.299-5.6308.234-11.265-.056-16.8961.166 4.2379.985 8.4912 1.855 12.7773 2.585-.2271.06-.4448.063-.6601.046-2.5359-.205-5.0276-.684-7.5198-1.179-3.3071-.66-6.5671-1.591-10.1506-1.85 1.9203.474 3.6444.926 5.3816 1.322 1.7242.393 3.4272.864 5.1334 1.323 1.728.464 3.4696.871 5.2514 1.074 1.7484.2 3.4719.507 5.3153 1.056-5.7815-.36-11.1756-1.812-16.5733-3.266 6.0633 2.2 11.9612 4.913 18.4671 5.627-5.084-.267-9.7548-2.109-14.4733-3.779 2.1346 1.12 4.2313 2.288 6.0665 3.861-.8769-.464-1.7231-.979-2.5831-1.466-.863-.491-1.7323-.974-2.6159-1.428-.8837-.455-1.7822-.879-2.6829-1.297-.9007-.417-1.8103-.818-2.726-1.205-.8931-.378-1.8152-.668-2.7611-.866 2.6303 1.259 5.2832 2.469 7.7433 4.035 4.0125 2.551 8.0971 4.948 12.6609 6.408.0461.014.0798.069.2066.18-4.0744-1.077-7.6228-3.009-11.0931-5.135 2.3924 1.815 4.665 3.737 6.5566 6.08-4.9696-4.665-10.5048-8.473-16.733-11.252 1.0439.692 2.131 1.318 3.213 1.953 1.0904.641 2.0033 1.516 3.0125 2.264 1.0267.762 2.1074 1.453 3.0879 2.277.939.789 1.903 1.552 2.732 2.462-4.6641-3.3-8.8433-7.318-14.2821-9.44.9153.657 1.9377 1.132 2.9127 1.687.9981.569 1.9325 1.239 2.847 1.929.8972.678 1.7938 1.358 2.6746 2.058.8718.691 1.764 1.36 2.4523 2.261-1.127-.851-2.2545-1.701-3.3815-2.553 3.091 2.771 5.6721 6.018 8.7484 8.888-.3274.072-.4004-.102-.4986-.2-1.3063-1.281-2.6857-2.499-3.8911-3.871-2.875-3.272-6.2327-5.973-9.7674-8.48-1.178-.836-2.4875-1.443-3.8342-1.978 6.7936 4.449 12.6496 9.866 17.3449 16.495-3.5677-4.127-7.1389-8.249-11.5385-11.553 1.4595 1.516 2.7793 3.142 3.8538 4.945 2.2191 3.726 4.8393 7.15 7.7196 10.386.2179.245.4214.499.673.798-.2783.012-.3329-.134-.4162-.222-2.8022-2.983-5.3637-6.161-7.4537-9.674-1.7533-2.946-3.8706-5.566-6.4292-7.84-.6736-.599-1.3829-1.156-2.0751-1.732 2.5969 2.908 5.3453 5.673 6.5688 9.499-1.2018-2.315-2.5951-4.496-4.4849-6.335.9759 1.19 1.7669 2.506 2.5324 3.828.7618 1.316 1.4538 2.671 2.1672 4.013.7084 1.332 1.4075 2.67 2.1113 4.004-.0617.032-.1257.064-.1875.096-.8119-1.412-1.647-2.812-2.4313-4.239-1.443-2.623-2.7261-5.34-4.6393-7.682-.6985-.854-1.4136-1.692-2.2569-2.408 1.7825 2.518 3.253 5.198 4.3907 8.049 1.3619 3.414 2.6729 6.85 4.1158 10.232.1055.246.1936.498.2881.748-1.2561-1.849-2.0857-3.886-2.9134-5.922-1.1606-2.853-2.0905-5.803-3.5767-8.52-.1132-.207-.1791-.462-.5179-.678 2.1255 5.075 3.5121 10.245 5.281 15.437-.3783-.207-.3939-.443-.4761-.631-.6604-1.516-1.164-3.091-1.6535-4.667-.9379-3.025-1.8625-6.057-3.0393-9.003-.4905-1.228-1.0788-2.414-1.8071-3.528.7557 1.955 1.4891 3.907 1.9972 5.938.5075 2.034 1.0464 4.06 1.5713 6.087-1.1641-2.51-1.6801-5.217-2.5472-7.819-.016.333.0261.654.1019.965.5146 2.138 1.0484 4.27 1.5549 6.409.9252 3.897 2.4408 7.525 4.9225 10.717.093.12.1604.262.2391.392-1.4677-1.617-2.6542-3.408-3.5276-5.383-1.2701-2.875-1.8804-5.947-2.6626-8.97-.6283-2.426-.9486-4.924-1.7967-7.295-.1937-.542-.3897-1.082-.7186-1.625-.0342.113-.0645.156-.0543.186.7897 2.398 1.0939 4.885 1.3741 7.375.4041 3.593 1.045 7.133 2.4233 10.506.1695.417.3044.846.456 1.271-.0537.024-.1057.049-.1594.073-.0379-.117-.0667-.239-.1184-.349-1.3222-2.812-2.1544-5.765-2.607-8.829-.4276-2.89-.625-5.812-1.3061-8.664-.0566-.235-.1144-.472-.1855-.703-.0692-.225-.157-.446-.2384-.668.4594 2.109.7211 4.226.5745 6.349-.1593 2.293.1261 4.517.6998 6.715.6799 2.607 1.6106 5.121 3.1199 7.385.2301.345.5056.661.7593.992-.8461-.674-1.4568-1.525-1.9071-2.477-1.9152-4.046-3.236-8.221-2.8803-12.776.0738-.945.038-1.912-.165-2.857-.0588.436-.0214.875-.0757 1.303-.3356 2.67-.3612 5.352-.1483 8.025.3224 4.061 1.5619 7.796 4.4585 10.825.5759.601 1.2567 1.106 1.8886 1.657.7291.639 1.5462 1.077 2.521 1.224.455.069.8525.028 1.1075-.38.4493-.716 1.1144-.849 1.9136-.926 1.6524-.161 2.8807-.779 3.0793-2.564.0172-.152.0585-.302.0834-.454.1034-.609.4528-1.015 1.0642-1.105.9722-.143 1.468-.726 1.6501-1.633.137-.682.5228-1.125 1.1693-1.394.9346-.39 1.6023-1.061 1.9767-2.015.3438-.879.7308-1.741 1.0646-2.625.4157-1.103 1.1964-1.752 2.3403-2.009.7746-.175 1.5574-.332 2.3083-.576 1.296-.421 1.7827-1.139 1.6822-2.479-.0755-1.008.1708-1.897.8816-2.596 1.0791-1.058 1.5061-2.377 1.7829-3.807.2335-1.211-.3508-2.04-1.2412-2.606-.6405-.408-1.3824-.577-2.1254-.704-.5665-.097-1.1334-.186-1.6972-.291-.3679-.07-.6798-.228-.7572-.636-.0812-.434.227-.628.537-.814.8146-.492 1.7219-.652 2.6522-.728.6185-.049 1.214-.144 1.7649-.481 2.288-1.395 3.3233-4.721 2.0907-7.113-.7775-1.513-.8516-3.017-.4159-4.601.0646-.232.1333-.466.1744-.703.2567-1.46-.3094-2.508-1.7437-2.876-1.2101-.309-1.7178-1.04-1.8213-2.185-.0867-1.31-.7314-2.304-1.7209-3.136-1.4402-1.216-1.959-2.772-1.6232-4.613.0284-.152.0497-.305.0798-.455.2948-1.458-.1188-2.678-1.2007-3.71-.7382-.705-1.6017-1.193-2.5576-1.473-1.4375-.421-2.3988-1.232-2.9499-2.669-.7739-2.016-2.1913-3.351-4.4494-3.688-1.4809-.22-2.7991-.019-4.1222.74-2.9663 1.7-4.1989 4.464-4.8501 7.575-.6008 2.87-.5915 5.806-.7057 8.723-.0483 1.218-.0351 2.438-.0488 3.658.4085-3.064.4022-6.158.839-9.213-.1811 4.56-.4496 9.115-.9005 13.659.5429-1.861 1.1397-3.702 1.2787-5.647.1932-2.737.1646-5.489.5491-8.212.2197-1.561.3002-3.141.671-4.683-.5574 4.767-.7962 9.556-1.0487 14.403.3616-1.314.5539-2.612.8128-3.894-.0943 1.971-.6736 3.85-.9578 5.789l.7232-2.385c-.5307 2.726-1.7023 5.232-2.7232 7.949.159-.148.2131-.18.2433-.229 1.6723-2.721 2.6774-5.679 3.0214-8.843.2765-2.552.4442-5.116.6666-7.674.2026-2.334.7553-4.585 1.6962-6.751-1.6848 5.411-1.2028 11.115-2.3274 16.727 1.3284-2.385 2.0202-4.884 2.7508-7.358.7381-2.499 1.0029-5.108 1.61-7.64-.0063 1.17-.2862 2.297-.4701 3.44-.5635 3.53-1.5217 6.953-3.0087 10.205-1.0078 2.202-1.7971 4.486-2.6195 6.765 3.4683-6.642 6.6776-13.413 10.0169-20.121-2.5572 6.668-6.0769 12.893-8.9336 19.228 2.1661-2.628 4.1081-5.613 5.9037-8.722 1.8754-3.245 3.3712-6.641 4.7412-10.114.0164.163-.0015.311-.046.452-1.7885 5.689-4.9447 10.682-8.0306 15.719.2049-.242.4098-.484.6141-.724-1.5419 2.412-3.2455 4.701-5.0266 6.939.5554-.505 1.0677-1.046 1.5626-1.6 3.5658-3.991 6.4361-8.449 8.9487-13.151.5713-1.068 1.1986-2.103 1.8014-3.154.0529.03.1053.061.1583.09-1.7696 3.279-3.45 6.608-5.5183 9.717-2.0668 3.103-4.4164 5.985-7.0019 8.681 1.7972-1.442 3.3527-3.127 4.8644-4.847 1.5373-1.746 2.9887-3.567 4.2691-5.512 1.2456-1.895 2.6702-3.671 3.71-5.697-2.5124 4.79-5.7243 9.094-9.3199 13.131 1.5195-1.312 2.9465-2.707 4.3373-4.136-1.8096 2.287-4.0588 4.149-6.1767 6.26.4013-.029.528-.383.9796-.392-.9093.715-1.7174 1.351-2.5259 1.989.0428.044.0839.087.1262.133 4.4259-3.158 8.0889-7.009 10.7255-11.795-2.3795 5.494-6.6196 9.367-11.3291 12.86.2078-.002.3364-.107.4755-.196 2.1538-1.381 4.2249-2.884 6.0943-4.622 4.5316-4.215 8.5886-8.869 12.4373-13.702.5212-.654.991-1.349 1.6721-1.86-5.0536 6.977-10.56 13.54-17.4405 18.848 6.3473-3.817 11.2256-9.214 16.009-14.713-5.6441 7.266-12.2488 13.438-20.4837 17.764 2.8264-1.219 5.6769-2.352 8.1806-4.159 2.4549-1.775 4.8119-3.673 7.1902-5.545-2.714 2.667-5.6593 5.051-8.8197 7.18 2.2361-1.065 4.4425-2.166 6.4804-3.566 2.5142-1.728 4.7268-3.8 6.8753-5.948.7656-.765 1.6208-1.429 2.625-1.882-1.8621 1.286-3.3033 3.015-4.9167 4.56-3.4318 3.286-7.499 5.593-11.7814 7.569-.4794.222-.9581.448-1.4375.671-.4568.211-.9167.42-1.3753.631.1814.059.3245.027.4661-.012 3.1604-.885 6.1395-2.206 9.0196-3.75 4.5182-2.422 8.4662-5.611 12.2066-9.073.3175-.295.5764-.67 1.0287-.797z" fill="#8a2e00"/><path d="m28.5209 228.024c-.3175 1.4-1.1843 2.536-1.9631 3.71-1.63 2.459-3.3231 4.88-4.7527 7.455-.8215 1.48-1.2779 3.071-1.3582 4.747-.0754 1.574.5096 3.055 1.5751 4.312 1.4504 1.71 4.0853 2.153 6.2711 1.175.2138-.096.4336-.191.6188-.323.7361-.524 1.5415-.566 2.4419-.301 1.105.325 2.2126.415 3.3216.102 1.0021-.282 1.5478-.949 1.9639-1.777.427-.849.8913-1.686 1.9896-1.943.4142-.097.8323-.186 1.2576-.239.8488-.104 1.579-.387 2.1203-1.008.1379-.158.3114-.287.4638-.432.3683-.353.7868-.404 1.3168-.237 1.5701.494 2.6251.001 3.102-1.436.3873-1.167 1.0298-2.112 2.2793-2.621.6921-.283 1.174-.794 1.495-1.42.5661-1.102.7145-2.277.4127-3.503-.1634-.665-.5393-1.234-1.1333-1.678-.5242-.392-1.047-.793-1.4186-1.326-.1086-.156-.3269-.348-.1808-.507.1258-.138.3522.027.5255.101.6887.292 1.3505.643 2.0815.837.7211.191 1.4026.17 2.0719-.103.3102-.127.564-.304.7169-.571.6178-1.086 1.0868-2.21.7855-3.519-.1576-.684-.0185-1.284.4385-1.839.7262-.884.6914-1.701-.0852-2.651-.3958-.483-.8509-.927-1.3018-1.369-.5446-.537-.7361-1.129-.5668-1.829.1653-.681.2879-1.373.4234-2.062.1545-.786.005-1.538-.4817-2.23-.2434-.346-.3012-.669-.1516-1.047.2961-.745.2151-1.445-.4888-2.035-.2447-.205-.2932-.434-.1587-.696.0369-.071.0601-.148.0914-.221.6077-1.465.1914-2.631-1.2729-3.55-.2389-.149-.4616-.296-.5253-.585-.2406-1.09-.7654-1.566-1.9541-1.666-2.8243-.236-5.3887.303-7.693 1.787-1.8679 1.204-3.3438 2.712-4.5639 4.47-.7496 1.082-1.4373 2.197-2.0911 3.336-1.0122 1.761-2.4424 3.169-4.3311 4.179-1.0026.537-1.9235.158-2.8321-.195-3.7688-1.464-7.502-3.02-11.2857-4.445-2.7925-1.051-5.655-1.902-8.66186-2.05-2.39592-.118-4.77771-.146-7.0585893.546-.3530497.106-.6698787.229-.7804777.599-.125948.416-.016375.548.439499.485.3903832-.053.771257-.146 1.16078-.206 2.221698-.346 4.458018-.659 6.740878-.249 3.24497.582 6.43417 1.403 9.55817 2.49 3.116 1.083 6.13 2.417 9.245 3.498.4076.141.6447.458.879.763 1.6007 2.081 2.0615 4.33 1.4692 6.727-.0456.186-.1108.365-.1662.548zm13.5864 15.432c-.3114-2.324-1.1085-4.546-1.9692-6.755-1.9451-4.991-4.9666-9.379-9.0298-13.182-.2461-.23-.4883-.464-.616-.774.2217.145.4183.308.6118.476.5195.448 1.0329.901 1.5567 1.344.4546.385.7001.976 1.3632 1.162.1477.042.2657.211.3877.328 2.4743 2.373 4.4634 5.058 6.1305 7.947.2765.479.5407.962.8104 1.443-.0053-.269-.0983-.507-.2101-.738-.6704-1.391-1.4636-2.724-2.3676-4.004-.9692-1.373-2.0666-2.661-3.1543-3.955-1.132-1.068-2.4185-1.988-3.4774-3.126 1.2742.937 2.4874 1.933 3.5153 3.107 2.8689 2.563 5.4527 5.356 7.8551 8.294 1.0864 1.329 2.1534 2.671 3.2283 4.008-.7148-1.623-1.9142-2.972-3.0122-4.368-1.1072-1.407-2.2893-2.767-3.4989-4.103-1.2209-1.348-2.6201-2.547-3.9142-3.835-1.266-1.261-2.605-2.441-4.024-3.55 4.2346 2.356 7.1784 5.937 10.2983 9.354-1.0949-1.532-2.3504-2.943-3.6462-4.327-1.2985-1.384-2.7123-2.656-4.2575-3.801 5.0339 3.276 8.9355 7.597 12.7999 11.955-1.4421-2.146-3.2706-4.009-5.0586-5.896-1.8031-1.902-3.8207-3.605-5.8906-5.267 2.4553 1.585 4.9115 3.171 7.3668 4.756.0242-.035.0485-.069.0727-.104-3.9634-2.746-7.9234-5.499-12.3099-7.651 1.2713.572 2.6387.924 3.8073 1.694 3.536 2.333 7.1392 4.57 10.7692 6.769.6077.368 1.2147.749 1.9111.956-3.6293-2.509-7.4814-4.705-11.1158-7.207 3.2198 1.194 6.4016 2.463 9.5462 3.829-.1251-.131-.2678-.225-.4176-.305-1.7651-.944-3.6159-1.706-5.4744-2.458-2.4671-.997-5.0168-1.811-7.4981-3.164 1.4708.524 2.8022.98 4.1187 1.474 1.3071.489 2.6323.925 3.9552 1.367 1.3393.45 2.6633.939 3.9286 1.567 1.2413.616 2.5114 1.158 3.9628 1.605-3.9789-2.217-8.1609-3.618-12.3458-5.019 4.9394 1.235 9.9854 2.093 14.5929 4.403-3.4784-1.978-7.3451-2.842-11.1718-3.828 1.8845.228 3.7641.411 5.6404.243-.7757-.091-1.5523-.14-2.3268-.21-.7777-.069-1.5563-.146-2.3324-.246-.7762-.1-1.5496-.224-2.3215-.354-.7718-.129-1.5426-.272-2.3117-.425-.7505-.15-1.4826-.365-2.1922-.644 2.271.353 4.5364.746 6.8235.844 3.7297.162 7.4419.447 11.0776 1.494.0364.011.0817-.008.2125-.021-3.1506-1.07-6.3124-1.407-9.5039-1.596 2.347-.078 4.6601-.272 6.898-.877-5.2525.699-10.5187.648-15.8109-.31.982.026 1.965.109 2.9488.183.9912.076 1.9636-.063 2.9466-.086 1-.024 2.0062.018 3.0021-.063.9534-.077 1.9128-.128 2.8441-.323-4.4756.011-8.9325.656-13.4258-.363.8821-.007 1.7589.139 2.6379.217.8998.08 1.8002.072 2.6963.044.8791-.028 1.7586-.058 2.6361-.106.868-.046 1.74-.071 2.5747-.32-1.1043.035-2.2081.069-3.3124.104 3.2118-.357 6.2863-1.213 9.5301-1.635-.1865-.181-.308-.108-.4139-.091-1.4037.217-2.8294.365-4.2043.678-3.28.748-6.6392.951-10.0337.963-1.1316.005-2.2538-.183-3.3705-.429 6.3691.197 12.5246-.58 18.4217-2.569-4.098.967-8.1962 1.93-12.4987 2.055 1.6039-.292 3.1615-.709 4.6314-1.336 3.0364-1.294 6.2114-2.24 9.4793-2.963.2473-.055.4889-.122.7814-.195-.1792-.124-.2765-.06-.369-.042-3.11.605-6.1423 1.428-9.004 2.65-2.4 1.024-4.9036 1.7-7.5541 1.984-.6978.075-1.4018.11-2.1022.163 2.9422-.647 5.9248-1.144 8.3442-2.917-1.7695.879-3.6092 1.597-5.6338 1.901 1.1468-.301 2.2237-.755 3.287-1.224 1.0579-.467 2.0858-.985 3.1224-1.488 1.0295-.499 2.055-1.004 3.0824-1.507-.0277-.044-.0564-.091-.0841-.135-1.1315.502-2.2731.988-3.3925 1.512-2.0587.961-4.0509 2.046-6.3027 2.642-.8219.217-1.6479.418-2.5071.491 2.2393-.756 4.3399-1.74 6.2926-2.967 2.3377-1.469 4.6506-2.972 7.0289-4.388.1731-.102.3373-.216.505-.325-1.6092.577-3.0152 1.446-4.4197 2.316-1.9684 1.217-3.825 2.591-5.9518 3.59-.1621.077-.3129.201-.6282.188 3.5419-2.141 6.6348-4.65 9.9898-7.011-.3375-.035-.447.099-.5806.178-1.075.628-2.0706 1.358-3.0576 2.095-1.8937 1.415-3.781 2.839-5.7994 4.106-.8413.528-1.7298.99-2.6803 1.349 1.3226-.851 2.6292-1.71 3.8201-2.711 1.1914-1.003 2.4002-1.987 3.6004-2.979-1.8262 1.011-3.3067 2.413-4.9754 3.605.1298-.206.2925-.38.4737-.535 1.2399-1.062 2.49-2.112 3.7251-3.178 2.2519-1.942 4.7814-3.474 7.7669-4.339.1123-.033.2165-.089.3231-.134-1.6516.35-3.1905.922-4.5995 1.736-2.05 1.184-3.7466 2.765-5.5359 4.244-1.4365 1.186-2.6993 2.546-4.2583 3.607-.356.243-.7131.483-1.1589.669.0248-.082.0226-.12.0421-.134 1.5315-1.101 2.7791-2.461 4.0119-3.832 1.779-1.979 3.6923-3.826 6.0235-5.264.2877-.178.5576-.378.8368-.568-.0254-.037-.0495-.074-.0749-.111-.0745.054-.1449.115-.2255.159-2.0578 1.125-3.8511 2.542-5.4393 4.183-1.4989 1.549-2.8589 3.214-4.5095 4.633-.1361.116-.274.233-.4183.342-.1404.105-.2915.2-.4391.299 1.1914-1.068 2.255-2.224 3.0513-3.555.8591-1.439 1.9835-2.649 3.2878-3.722 1.5468-1.273 3.2203-2.385 5.1719-3.104.2974-.109.6129-.182.92-.273-.8437.047-1.6058.299-2.3045.679-2.9697 1.613-5.6003 3.554-7.281 6.428-.3488.597-.7793 1.16-1.311 1.64.1446-.286.3537-.532.4978-.811.9011-1.738 2.0122-3.353 3.2777-4.862 1.9216-2.293 4.3132-4.005 7.505-4.598.6344-.118 1.2974-.133 1.9475-.197.7514-.075 1.4766.006 2.1839.328.3302.151.576.342.5735.693-.0038.618.3806.977.8772 1.359 1.0263.792 1.5793 1.678.9601 2.829-.0528.098-.0882.205-.1357.306-.1878.408-.1272.798.2398 1.109.5831.495.6662 1.052.4053 1.671-.196.465-.127.892.1877 1.325.4547.627.6145 1.309.4609 2.037-.142.67-.2484 1.349-.3992 2.018-.1889.834.0553 1.55.7044 2.185.4392.431.8913.854 1.286 1.316.6809.797.701 1.431.0706 2.19-.474.571-.685 1.207-.5081 1.923.2693 1.087-.0029 2.055-.4212 3.027-.3547.822-1.0903 1.073-1.918 1.037-.5955-.026-1.1578-.237-1.7032-.473-.4157-.181-.8285-.366-1.2462-.54-.2726-.114-.5456-.15-.7686.061-.2364.226-.1137.471.013.713.3324.637.8659 1.114 1.4499 1.551.3887.29.7432.597.9662 1.03.9276 1.797.214 4.222-1.6082 5.133-1.1512.578-1.8329 1.447-2.2107 2.577-.055.166-.1075.335-.1803.494-.4439.981-1.2599 1.37-2.364.986-.9312-.324-1.5748-.1-2.1251.541-.6082.747-1.4531 1.07-2.4585 1.152-1.4649.121-2.4628.833-3.0151 2.076-.0448.102-.0951.203-.1385.305-.4179.996-1.2049 1.552-2.3553 1.714-.7851.111-1.5624.04-2.3131-.195-1.1285-.353-2.106-.273-3.0752.355-1.3605.88-2.8607 1.083-4.4971.334-1.073-.491-1.8613-1.166-2.418-2.176-1.2488-2.265-.9021-4.436-.0243-6.571.8091-1.969 2.0505-3.721 3.2018-5.513.4806-.749 1.0025-1.473 1.5063-2.208-1.0184 2.004-2.3238 3.851-3.3199 5.862 1.7984-2.803 3.5367-5.64 5.1496-8.547-.4234 1.341-.8028 2.693-1.529 3.915-1.0233 1.718-2.1998 3.352-3.0908 5.142-.5111 1.026-1.1224 2.005-1.5257 3.083 1.6365-3.086 3.4929-6.05 5.3645-9.055-.3134.938-.7321 1.795-1.0998 2.671.7664-1.218 1.1733-2.586 1.8009-3.865l-.5247 1.731c.7957-1.854 1.074-3.846 1.541-5.9.043.156.0654.197.065.239-.0376 2.331-.6165 4.523-1.7198 6.56-.8904 1.642-1.8577 3.246-2.7867 4.87-.8476 1.481-1.4285 3.059-1.7165 4.75 1.1606-3.945 3.8791-7.153 5.495-10.982-.1237 1.985-.717 3.771-1.2739 5.557-.5623 1.805-1.4846 3.477-2.1479 5.247.4878-.702.7767-1.494 1.1357-2.255 1.1121-2.349 1.9174-4.798 2.3011-7.369.2587-1.74.6972-3.439 1.1113-5.147-.4978 5.431-1.2211 10.83-1.8321 16.246 1.1119-5.064 1.4001-10.266 2.1736-15.257.3288 2.483.3586 5.085.2395 7.7-.1232 2.729-.5615 5.389-1.1153 8.042.0793-.09.1299-.186.1595-.289 1.2091-4.155 1.2201-8.469 1.2955-12.778.0339.23.0678.461.1021.691-.006-2.092-.1712-4.177-.4089-6.265.1553.536.2668 1.075.3614 1.615.6822 3.886.7069 7.76.3924 11.629-.0709.879-.0911 1.762-.1339 2.643.0475.005.0953.008.1428.013.2075-2.705.4953-5.402.4337-8.132-.0627-2.725-.4061-5.437-.9836-8.137.5831 1.619.9041 3.281 1.1816 4.945.2831 1.691.4782 3.39.5075 5.092.0277 1.657.2235 3.319.0596 4.968.3519-3.922.0356-7.847-.6466-11.773.4545 1.423.8123 2.858 1.1319 4.297-.2359-2.129-.942-4.188-1.4561-6.341.2537.185.1887.45.4837.646-.3012-.81-.5685-1.531-.8355-2.252.0468-.008.0922-.017.1393-.026 1.6017 3.75 2.4068 7.594 2.1392 11.565.736-4.287-.4422-8.386-2.0905-12.456.1365.088.1774.205.2322.317.8451 1.732 1.5837 3.502 2.0903 5.328 1.227 4.427 1.9556 8.916 2.4702 13.426.0701.61.089 1.223.3249 1.815-.4108-6.298-1.2956-12.539-3.6182-18.608 2.5967 4.953 3.5561 10.232 4.4099 15.533-.6803-6.719-2.4566-13.189-6.0889-19.239 1.3584 1.917 2.769 3.794 3.6663 5.928.8789 2.094 1.641 4.22 2.4279 6.34-.6748-2.736-1.6221-5.401-2.8186-8.004 1.0323 1.578 2.0299 3.165 2.79 4.859.9379 2.091 1.5309 4.261 2.0498 6.449.1853.78.4721 1.537.9461 2.23-.6917-1.552-.9184-3.193-1.3369-4.795-.8896-3.409-2.6119-6.499-4.6157-9.483-.2239-.334-.4457-.671-.6696-1.005-.2135-.319-.4301-.637-.6449-.957.1448.042.2262.121.3033.204 1.72 1.859 3.1367 3.902 4.3943 6.036 1.9723 3.349 3.2443 6.918 4.2643 10.561.0864.31.0999.643.3461.909z" fill="#8c6239"/><path d="m51.7804 273.126c1.0507-2.202 1.1711-4.605 1.4358-6.969.5572-4.952.999-9.915 1.9148-14.819.5273-2.82 1.6066-5.419 3.2244-7.751 1.5195-2.191 3.7378-3.589 6.304-4.201 3.4924-.831 7.112 1.238 8.7387 4.761.1591.344.3258.694.413 1.059.349 1.448 1.274 2.319 2.6267 2.873 1.6607.68 3.0839 1.679 4.0966 3.22.9153 1.393.8893 2.84.5418 4.374-.3555 1.572-.6531 3.165.4035 4.621.399.548.8099 1.091 1.2673 1.592.9134.998 1.5019 2.116 1.5163 3.498.0044.352.0811.7.1159 1.049.0812.847.5326 1.338 1.3396 1.65 2.3924.923 3.1565 2.651 2.2595 5.064-.7281 1.959-.9233 3.879.0575 5.826.5424 1.08.5984 2.254.3441 3.419-.4465 2.052-1.4701 3.78-3.0874 5.123-.8768.728-1.9105 1.113-3.0785 1.108-1.031-.003-2.07.008-3.0616.348-.2898.099-.7484.136-.736.498.0102.313.4511.32.7345.396 1.127.304 2.2817.501 3.3583.979 1.0618.473 1.8593 1.19 2.3843 2.234.2434.483.3672.978.2772 1.492-.3683 2.083-.9543 4.067-2.6551 5.52-.8895.76-1.3361 1.707-1.3548 2.915-.0316 1.921-.9096 2.984-2.8148 3.476-.9698.248-1.9705.384-2.965.523-1.2032.17-2.0396.772-2.5518 1.884-.4984 1.082-1.0585 2.135-1.6004 3.197-.619 1.213-1.5675 2.072-2.8603 2.509-.6464.219-1.0465.595-1.253 1.253-.4063 1.301-1.2199 2.159-2.6697 2.241-.5042.028-.7959.286-.9025.774-.0286.133-.0791.26-.1161.389-.769 2.583-2.4622 3.729-5.1617 3.483-.4397-.041-.8578-.069-1.2297.255-1.4048 1.222-2.5223 1.331-4.0525.262-3.6361-2.537-6.1658-5.855-7.4172-10.177-1.0134-3.505-1.2464-7.024-.9127-10.618.2061-2.211.5201-4.404.8995-6.595.586-3.39.3072-6.727-.929-9.994-.6563-1.734-2.15-2.156-3.6036-2.6-6.0266-1.843-12.105-3.527-18.1098-5.437-4.4319-1.41-8.7425-3.161-12.5076-6.001-2.99979-2.264-5.89115-4.634-7.92451-7.869-.03644-.056-.13193-.554-.42245-1.159-.20995-.438-.41714-.736-.48704-.838-.581766-.858-1.088877-2.087-1.35708-2.742-.932759-2.27-.781147-5.53-.473895-5.569.3507838-.044.2945571 4.182 3.438015 8.505.10168.139.43844.579 1.18381 1.451 2.31659 2.71 4.68386 5.391 7.84685 7.148 4.495 2.499 9.1681 4.619 14.0341 6.317 4.8526 1.695 9.8392 2.95 14.6888 4.647.6348.221 1.2432.036 1.8373-.137 4.0524-1.178 6.9067-3.733 8.6472-7.552.1353-.296.2409-.603.3621-.907zm32.3697-6.408c-2.7512 2.807-5.9828 4.987-9.2774 7.085-7.4432 4.739-15.5628 7.579-24.3364 8.58-.5321.062-1.0625.131-1.5325.418.4152.029.818.009 1.222-.021 1.0825-.076 2.1628-.166 3.2461-.232.94-.058 1.8396-.603 2.8264-.182.2204.092.536-.016.8018-.05 5.4017-.687 10.538-2.282 15.4976-4.479.8221-.364 1.6343-.746 2.4504-1.12-.2822.357-.6369.582-1.0073.779-2.2288 1.191-4.5462 2.181-6.9426 2.987-2.5691.865-5.205 1.485-7.8363 2.124-2.4525.29-4.9403.226-7.3765.684 2.489.03 4.9659-.081 7.4024-.62 6.0698-.543 12.0325-1.683 17.9252-3.202 2.665-.687 5.3206-1.412 7.9796-2.12-2.5188 1.456-5.3403 2.056-8.0884 2.823-2.7692.77-5.5818 1.403-8.4017 1.974-2.8469.577-5.7548.774-8.6282 1.196-2.8108.414-5.6278.646-8.4671.701 7.499 1.116 14.7-.719 21.946-2.157-2.8835.952-5.8356 1.578-8.8085 2.128-2.9772.547-5.9771.827-9.0059.803 9.4014.687 18.5105-1.173 27.6131-3.122-3.9282 1.425-8.0321 2.08-12.1106 2.807-4.1127.732-8.2798.981-12.4674 1.121 4.5718.353 9.1465.705 13.7183 1.058-.0062.071-.0124.142-.0186.213-7.5731-.316-15.1482-.621-22.6213-2.165 2.1136.516 4.1166 1.426 6.309 1.573 6.6357.441 13.2543 1.078 19.8663 1.793 1.1072.119 2.2263.221 3.2749.647-6.9279-.298-13.8045-1.241-20.7316-1.554 5.0909 1.651 10.2128 3.163 15.3898 4.506-.2848.05-.552.031-.8141-.012-3.0871-.516-6.091-1.363-9.0937-2.232-3.9842-1.155-7.8819-2.638-12.2475-3.33 2.3038.783 4.3695 1.517 6.4571 2.185 2.0719.663 4.1097 1.418 6.1526 2.16 2.0692.75 4.161 1.431 6.3239 1.867 2.1223.427 4.2025.983 6.4041 1.85-7.0496-1.044-13.5082-3.39-19.971-5.738 7.1995 3.334 14.1417 7.282 22.0418 8.836-6.2043-.858-11.7349-3.606-17.342-6.15 2.4978 1.598 4.9442 3.252 7.0269 5.375-1.0257-.661-2.0084-1.381-3.0109-2.07-1.0059-.693-2.0202-1.376-3.0553-2.027-1.035-.65-2.0915-1.265-3.1513-1.872-1.0599-.606-2.1324-1.193-3.2138-1.765-1.0547-.558-2.1545-1.009-3.293-1.351 3.0909 1.821 6.2146 3.584 9.0642 5.763 4.6479 3.553 9.4008 6.923 14.8406 9.192.055.022.0906.093.2341.243-4.8805-1.748-9.0253-4.491-13.0539-7.464 2.7402 2.478 5.322 5.077 7.3919 8.153-5.5966-6.25-11.9778-11.505-19.318-15.567 1.2063.958 2.4724 1.84 3.7314 2.734 1.2688.9 2.2949 2.07 3.4527 3.095 1.1776 1.043 2.4291 2.004 3.5435 3.119 1.0674 1.067 2.1681 2.106 3.0877 3.309-5.3673-4.539-10.0638-9.911-16.5059-13.085 1.0523.902 2.2552 1.593 3.3914 2.377 1.1633.802 2.2376 1.722 3.2854 2.666 1.0278.926 2.0548 1.855 3.0603 2.806.9953.941 2.018 1.855 2.766 3.034-1.2911-1.163-2.5831-2.325-3.8743-3.488 3.4951 3.725 6.3142 7.983 9.7807 11.83-.4091.054-.48-.167-.5901-.297-1.4654-1.71-3.027-3.35-4.3589-5.161-3.1768-4.32-7.0062-7.989-11.0731-11.437-1.3554-1.15-2.8963-2.031-4.4904-2.829 7.8559 6.173 14.4593 13.439 19.5111 22.073-3.9353-5.442-7.8753-10.879-12.9179-15.396 1.6281 2.014 3.0734 4.149 4.199 6.476 2.3246 4.809 5.1729 9.289 8.3602 13.564.2411.324.4635.657.7402 1.052-.3424-.015-.3939-.199-.4866-.317-3.1184-3.957-5.9209-8.128-8.1098-12.662-1.8364-3.802-4.1538-7.241-7.0488-10.302-.7621-.805-1.5724-1.564-2.3599-2.343 2.8747 3.842 5.9503 7.525 7.0436 12.354-1.2273-2.97-2.7037-5.794-4.825-8.25 1.0699 1.564 1.8998 3.262 2.6977 4.967.794 1.696 1.4985 3.433 2.2304 5.155.7269 1.711 1.4419 3.427 2.1628 5.141-.079.032-.1609.065-.2399.097-.8454-1.819-1.7203-3.626-2.5302-5.461-1.4904-3.373-2.7747-6.844-4.8712-9.921-.7656-1.122-1.5532-2.227-2.511-3.194 1.9176 3.28 3.4356 6.725 4.5274 10.347 1.3068 4.337 2.5489 8.694 3.9584 13 .1032.313.1844.631.2737.948-1.3434-2.402-2.144-4.991-2.9424-7.579-1.1196-3.626-1.9461-7.347-3.4794-10.84-.1166-.267-.1704-.587-.5627-.888 2.0664 6.457 3.2168 12.954 4.8336 19.517-.4417-.294-.4359-.585-.5166-.825-.6485-1.931-1.0985-3.918-1.5312-5.905-.8283-3.816-1.6397-7.636-2.7692-11.379-.4709-1.56-1.066-3.079-1.8406-4.522.7188 2.48 1.4105 4.955 1.8175 7.504.406 2.551.8514 5.096 1.2795 7.641-1.1604-3.204-1.5053-6.585-2.2917-9.872-.0552.408-.0376.807.0222 1.197.4037 2.68.8316 5.355 1.2252 8.036.7201 4.884 2.1926 9.5 4.8958 13.68.1013.158.1688.339.2515.506-1.6275-2.139-2.8918-4.463-3.7527-6.981-1.2516-3.664-1.6732-7.502-2.3108-11.298-.5126-3.046-.6397-6.148-1.4274-9.15-.1799-.686-.3628-1.37-.7084-2.071-.0539.135-.0957.185-.0863.223.7133 3.028.8218 6.116.9007 9.204.1137 4.457.5232 8.873 1.8544 13.16.1636.53.2833 1.072.424 1.61-.0684.024-.1347.049-.2032.073-.034-.148-.0563-.301-.1081-.442-1.322-3.592-2.0284-7.307-2.2577-11.118-.2171-3.596-.1485-7.207-.6805-10.782-.0444-.294-.0901-.591-.1527-.882-.0609-.284-.1451-.565-.2212-.847.339 2.64.4349 5.268.0295 7.862-.439 2.8-.3255 5.562.1443 8.323.5565 3.273 1.4303 6.459 3.04 9.398.2455.447.5497.865.8255 1.298-.9656-.916-1.6239-2.025-2.0748-3.242-1.918-5.17-3.0936-10.437-2.1734-15.997.191-1.154.2499-2.346.1013-3.528-.1183.53-.1191 1.073-.2312 1.593-.6952 3.246-1.0116 6.538-1.0347 9.845-.0363 5.023 1.0864 9.741 4.3156 13.764.6421.799 1.4231 1.49 2.1391 2.233.8261.861 1.7812 1.484 2.9606 1.767.5505.131 1.0421.122 1.3982-.352.6268-.833 1.4564-.927 2.4443-.939 2.0429-.025 3.6144-.657 4.0476-2.83.0373-.185.1038-.364.1505-.548.1915-.738.663-1.2 1.4221-1.247 1.2071-.076 1.8769-.74 2.1964-1.835.2405-.823.7605-1.327 1.5818-1.591 1.1873-.382 2.0771-1.137 2.6375-2.271.5149-1.044 1.081-2.062 1.584-3.113.6269-1.313 1.653-2.028 3.0827-2.225.9682-.134 1.9445-.246 2.8911-.467 1.6336-.382 2.3065-1.214 2.3258-2.872.0145-1.246.411-2.313 1.3566-3.097 1.4353-1.187 2.099-2.764 2.5904-4.492.4149-1.463-.2133-2.543-1.2447-3.331-.742-.568-1.6335-.853-2.5309-1.086-.6842-.178-1.3697-.347-2.0497-.535-.4436-.123-.8092-.35-.8608-.86-.0533-.542.345-.747.745-.944 1.0509-.52 2.1802-.622 3.3288-.618.7634.004 1.5035-.05 2.2148-.407 2.9532-1.477 4.576-5.455 3.319-8.522-.7923-1.94-.7234-3.796-.0209-5.697.1039-.278.213-.558.2886-.845.4698-1.767-.1128-3.114-1.8321-3.715-1.4507-.506-1.9954-1.457-2.0006-2.875.0329-1.618-.6519-2.906-1.7764-4.032-1.6364-1.644-2.1071-3.61-1.4998-5.837.0508-.183.0932-.369.1462-.551.5163-1.76.1389-3.302-1.0778-4.682-.83-.943-1.8368-1.634-2.9788-2.077-1.7177-.667-2.8101-1.763-3.3329-3.586-.7346-2.557-2.3302-4.346-5.0629-4.994-1.7921-.425-3.4295-.316-5.1322.479-3.8172 1.78-5.6221 5.048-6.7511 8.803-1.0415 3.463-1.3422 7.072-1.7922 10.643-.1886 1.492-.3021 2.992-.4485 4.489.8264-3.722 1.1475-7.523 2.0077-11.232-.7067 5.584-1.52 11.153-2.5557 16.689.8635-2.23 1.7908-4.43 2.1678-6.805.5277-3.343.7852-6.727 1.5459-10.033.4353-1.895.7019-3.828 1.3204-5.684-1.19 5.8-1.9918 11.659-2.8163 17.588.5829-1.577.9566-3.152 1.4102-4.7-.325 2.411-1.2349 4.66-1.7895 7.013l1.1401-2.856c-.9403 3.295-2.6429 6.252-4.1832 9.483.2106-.165.2803-.198.3225-.255 2.3393-3.169 3.8859-6.699 4.644-10.551.6101-3.107 1.0882-6.239 1.6328-9.359.4963-2.847 1.4131-5.554 2.7968-8.117-2.6405 6.472-2.6559 13.531-4.6309 20.308 1.8821-2.792 2.9958-5.79 4.1544-8.754 1.1703-2.993 1.7723-6.171 2.7857-9.219-.1321 1.436-.5949 2.792-.9419 4.177-1.066 4.279-2.6045 8.385-4.7732 12.226-1.4694 2.6-2.6799 5.325-3.9302 8.039 4.9578-7.8 9.6118-15.784 14.4185-23.678-3.8437 7.926-8.8201 15.207-12.9955 22.693 2.9347-3.002 5.6329-6.469 8.1646-10.102 2.644-3.791 4.8386-7.808 6.8872-11.932.0029.202-.0348.382-.1043.55-2.7972 6.804-7.1973 12.611-11.5157 18.477.2769-.276.5538-.552.8298-.825-2.1467 2.803-4.4784 5.438-6.8999 8.002.7346-.562 1.4201-1.174 2.0858-1.803 4.7956-4.532 8.7883-9.711 12.3683-15.227.8139-1.252 1.6929-2.459 2.5435-3.687.0618.042.1228.086.1845.128-2.5178 3.844-4.9316 7.759-7.7978 11.363-2.8636 3.598-6.0503 6.894-9.5066 9.938 2.3567-1.585 4.4427-3.494 6.4787-5.449 2.0703-1.986 4.0431-4.071 5.8196-6.328 1.7283-2.198 3.6636-4.233 5.1537-6.614-3.5892 5.624-7.9843 10.577-12.8212 15.163 2.0022-1.453 3.8998-3.018 5.7567-4.629-2.4615 2.621-5.4168 4.674-8.2376 7.047.495.007.688-.414 1.2426-.379-1.1908.784-2.249 1.482-3.308 2.181.0478.058.0936.116.1406.176 5.7616-3.419 10.6615-7.77 14.4025-13.375-3.5011 6.503-9.1108 10.82-15.2557 14.622.255.018.4239-.098.6038-.192 2.7871-1.472 5.4861-3.104 7.9626-5.045 6.0035-4.707 11.4717-10.002 16.7037-15.54.7085-.749 1.3582-1.553 2.2476-2.11-6.937 8.046-14.3851 15.536-23.3843 21.341 8.187-4.029 14.7412-10.152 21.1898-16.41-7.6915 8.339-16.4446 15.235-26.9998 19.692 3.5945-1.203 7.2095-2.298 10.471-4.258 3.1981-1.924 6.2895-4.011 9.4041-6.064-3.6106 2.995-7.4747 5.616-11.5756 7.904 2.8545-1.076 5.6765-2.199 8.3236-3.707 3.2659-1.861 6.1988-4.177 9.061-6.592 1.0199-.86 2.1389-1.587 3.4182-2.04-2.4196 1.387-4.3702 3.362-6.5123 5.091-4.5565 3.681-9.7879 6.092-15.2479 8.074-.6113.223-1.2222.451-1.8335.674-.5826.212-1.1686.421-1.7533.633.2162.091.3949.067.5729.033 3.9685-.759 7.7611-2.071 11.456-3.668 5.7965-2.505 10.9755-6.013 15.929-9.877.4205-.329.7779-.763 1.3458-.872z" fill="#8a2e00"/><path d="m29.4384 347.917c-.0712 1.434-.7289 2.703-1.2936 3.993-1.1812 2.704-2.4312 5.381-3.3951 8.163-.5537 1.6-.7287 3.246-.5187 4.911.1972 1.563 1.0291 2.921 2.2954 3.975 1.7237 1.434 4.3955 1.416 6.3798.076.1941-.131.3942-.263.5538-.425.6347-.643 1.4208-.823 2.3533-.718 1.1446.13 2.2511.027 3.2895-.472.9383-.451 1.3608-1.202 1.6277-2.09.2741-.91.5871-1.814 1.6246-2.257.3913-.167.7877-.327 1.1975-.452.8181-.249 1.4886-.653 1.9145-1.359.1086-.18.2573-.336.3824-.506.3018-.411.7053-.533 1.2561-.461 1.6317.216 2.586-.451 2.8077-1.949.1802-1.216.65-2.258 1.7929-2.975.6329-.398 1.0193-.985 1.2276-1.657.3675-1.182.311-2.365-.1979-3.521-.2757-.627-.7441-1.123-1.4058-1.457-.5839-.296-1.1682-.601-1.6261-1.062-.1339-.134-.382-.286-.2656-.468.1001-.157.3516-.034.5349.008.729.17 1.4414.402 2.1948.466.7433.064 1.4109-.075 2.023-.459.2838-.178.5032-.396.6077-.686.4212-1.176.6892-2.364.1666-3.601-.2733-.647-.2398-1.262.1146-1.888.5627-.996.3874-1.795-.5414-2.597-.4732-.407-.998-.766-1.5185-1.124-.629-.434-.9198-.985-.8738-1.703.0453-.7.0467-1.402.0613-2.104.0164-.801-.2604-1.516-.8592-2.113-.2995-.299-.4122-.608-.33-1.005.1632-.785-.0374-1.461-.8326-1.921-.2765-.16-.3636-.376-.2764-.658.024-.076.0337-.156.0519-.233.3457-1.548-.2655-2.625-1.8664-3.277-.261-.106-.5057-.213-.6183-.486-.4252-1.033-1.0242-1.411-2.2122-1.304-2.8227.255-5.2557 1.228-7.2693 3.088-1.6322 1.508-2.8258 3.248-3.7243 5.19-.5517 1.195-1.0367 2.412-1.4842 3.646-.693 1.91-1.8589 3.544-3.5449 4.865-.8951.701-1.8674.487-2.8234.296-3.9648-.792-7.9105-1.68-11.8833-2.431-2.9321-.554-5.89846-.898-8.88577-.525-2.3803.297-4.731253.68-6.85855 1.755-.32937.166-.62021.342-.66533.726-.05238.431.07838.542.51658.401.375327-.119.734527-.276 1.107755-.403 2.128765-.724 4.277525-1.418 6.596905-1.408 3.29672.013 6.57971.272 9.84441.803 3.2561.529 6.455 1.323 9.7099 1.85.4259.07.714.34.9975.601 1.9357 1.773 2.7776 3.909 2.6078 6.372-.0129.191-.0461.379-.0691.569zm16.0453 12.857c-.7076-2.235-1.8763-4.287-3.1052-6.314-2.7771-4.581-6.5103-8.381-11.1687-11.426-.2823-.185-.5612-.374-.7404-.656.2435.105.4652.231.6848.363.5889.351 1.1728.709 1.7653 1.055.5141.301.8579.841 1.5431.909.1527.016.2983.163.4385.257 2.8467 1.91 5.2691 4.211 7.4098 6.77.3549.424.6986.854 1.0472 1.282-.0517-.265-.1843-.483-.3342-.691-.9004-1.255-1.9118-2.431-3.0232-3.536-1.1915-1.185-2.4946-2.264-3.7893-3.351-1.2992-.857-2.7252-1.541-3.9644-2.479 1.4165.702 2.7834 1.474 3.9985 2.453 3.2681 2.03 6.2951 4.335 9.1684 6.815 1.2993 1.121 2.5819 2.259 3.8713 3.39-.984-1.475-2.3982-2.596-3.7206-3.783-1.3332-1.194-2.7324-2.33-4.1543-3.437-1.4353-1.117-3.0203-2.057-4.5174-3.103-1.4644-1.023-2.9871-1.954-4.576-2.802 4.5776 1.59 8.095 4.609 11.7579 7.438-1.3429-1.321-2.823-2.494-4.3381-3.633-1.518-1.14-3.13-2.149-4.8497-3.01 5.5237 2.358 10.1124 5.941 14.6707 9.567-1.7907-1.865-3.9133-3.385-5.9999-4.934-2.1043-1.563-4.3855-2.892-6.7111-4.172 2.6919 1.137 5.3851 2.276 8.0769 3.413.0179-.038.0358-.076.0537-.114-4.3778-2.022-8.7534-4.05-13.4454-5.413 1.351.345 2.7585.455 4.0426 1.012 3.8854 1.687 7.8205 3.269 11.7754 4.809.6622.258 1.3258.528 2.0474.612-4.0076-1.845-8.181-3.344-12.1925-5.181 3.3775.62 6.7305 1.321 10.0637 2.125-.1459-.108-.3026-.176-.464-.229-1.9015-.625-3.8561-1.057-5.8164-1.477-2.602-.555-5.254-.918-7.9316-1.822 1.5393.262 2.9292.481 4.3112.741 1.3721.256 2.7525.456 4.1319.664 1.3967.212 2.7854.465 4.14.866 1.329.393 2.6735.707 4.1803.896-4.3017-1.497-8.6627-2.154-13.0266-2.813 5.0784.365 10.1968.339 15.1337 1.819-3.7675-1.348-7.7253-1.532-11.6647-1.842 1.8955-.101 3.7786-.245 5.5977-.734-.7798.043-1.5531.13-2.3281.194-.778.066-1.5582.125-2.34.16-.7817.036-1.565.047-2.3476.053-.7825.005-1.5664-.002-2.3504-.021-.7651-.018-1.5233-.103-2.2704-.256 2.2979-.043 4.597-.048 6.8668-.345 3.7017-.484 7.4074-.844 11.1692-.441.0377.005.0791-.021.2057-.057-3.2879-.51-6.4605-.297-9.6367.068 2.2982-.482 4.5432-1.072 6.6431-2.055-5.053 1.596-10.2491 2.454-15.6272 2.424.9717-.145 1.9542-.233 2.9362-.329.9894-.096 1.9232-.401 2.8875-.593.9809-.196 1.9792-.329 2.9462-.58.9259-.24 1.8621-.456 2.7458-.809-4.4066.783-8.6854 2.188-13.2871 1.959.8676-.159 1.7564-.167 2.6357-.242.9001-.076 1.7857-.239 2.6634-.422.8611-.179 1.7223-.359 2.5784-.558.8469-.196 1.7016-.371 2.4808-.76-1.0817.225-2.1632.449-3.2448.674 3.1021-.906 5.9827-2.279 9.1051-3.255-.2149-.146-.3219-.053-.4233-.018-1.3453.456-2.7241.848-4.0243 1.394-3.1017 1.302-6.3755 2.082-9.717 2.679-1.1139.2-2.2517.209-3.3941.159 6.3075-.905 12.2368-2.732 17.7021-5.709-3.8696 1.66-7.7402 3.315-11.9565 4.181 1.5294-.565 2.9916-1.244 4.3314-2.115 2.7675-1.799 5.7316-3.279 8.8258-4.555.2341-.097.4606-.204.7361-.326-.198-.092-.2828-.012-.3708.022-2.9589 1.133-5.8038 2.466-8.4116 4.164-2.1873 1.423-4.5368 2.521-7.0986 3.257-.6744.194-1.3618.35-2.0425.523 2.7865-1.144 5.6385-2.148 7.7156-4.313-1.5912 1.171-3.2795 2.196-5.2211 2.846 1.0776-.495 2.0601-1.128 3.0265-1.774.9615-.642 1.8844-1.33 2.8189-2.004.9279-.669 1.8507-1.344 2.7761-2.016-.035-.039-.0712-.08-.1062-.119-1.0278.69-2.0685 1.366-3.0808 2.075-1.8619 1.302-3.637 2.714-5.7522 3.69-.7721.356-1.5511.696-2.3848.916 2.0752-1.131 3.9745-2.463 5.6863-4.008 2.0492-1.85 4.0681-3.73 6.1664-5.535.1528-.131.295-.271.4412-.408-1.4854.846-2.7204 1.945-3.9538 3.044-1.7288 1.539-3.3206 3.212-5.243 4.564-.1465.103-.2736.252-.5863.293 3.1194-2.72 5.733-5.725 8.6303-8.629-.3385.023-.4232.175-.5413.275-.9504.805-1.8052 1.695-2.6503 2.591-1.6212 1.72-3.2344 3.449-5.0039 5.045-.7376.665-1.5331 1.274-2.4073 1.792 1.1559-1.067 2.2947-2.138 3.295-3.33 1.0005-1.193 2.0213-2.372 3.0325-3.555-1.6245 1.311-2.8408 2.947-4.2788 4.409.0922-.226.2224-.425.3743-.609 1.038-1.26 2.0882-2.51 3.1208-3.773 1.8831-2.301 4.1103-4.247 6.9018-5.614.105-.052.1979-.125.2952-.187-1.5666.629-2.9837 1.458-4.2312 2.502-1.8148 1.521-3.2132 3.371-4.7205 5.136-1.2102 1.417-2.2196 2.974-3.572 4.288-.3089.3-.6191.599-1.0262.859.0104-.085.0016-.122.0184-.139 1.3184-1.35 2.3128-2.904 3.2905-4.467 1.4109-2.256 2.9768-4.406 5.025-6.224.2527-.225.484-.469.7262-.704-.0315-.033-.0615-.064-.0929-.097-.064.067-.1229.139-.1946.196-1.8329 1.464-3.3549 3.168-4.6361 5.059-1.2092 1.784-2.2616 3.658-3.6425 5.341-.114.138-.2296.277-.3531.409-.1201.128-.2525.248-.3808.371.9892-1.258 1.8375-2.58 2.392-4.029.5981-1.565 1.4969-2.951 2.5965-4.233 1.3039-1.521 2.7605-2.905 4.5587-3.95.2741-.159.5722-.285.859-.428-.8229.192-1.5301.572-2.1528 1.067-2.6467 2.101-4.9029 4.467-6.0626 7.588-.2406.648-.5674 1.277-1.0085 1.841.0932-.306.2567-.585.3505-.885.5877-1.867 1.4036-3.649 2.3897-5.354 1.4971-2.59 3.5575-4.689 6.5991-5.824.6045-.225 1.2549-.355 1.8843-.53.7271-.204 1.4555-.248 2.2078-.053.3512.091.6264.237.6845.583.1027.609.5433.897 1.0984 1.187 1.1475.603 1.8452 1.381 1.4338 2.621-.035.106-.0514.217-.0808.325-.1146.435.0123.808.4275 1.051.6598.387.8378.921.6875 1.576-.1128.492.029.901.4137 1.273.5559.539.831 1.183.8054 1.927-.0243.684-.012 1.371-.0452 2.056-.042.855.322 1.518 1.071 2.031.5069.349 1.0252.687 1.4936 1.074.8083.667.9374 1.289.4475 2.146-.3683.644-.4665 1.306-.1687 1.981.4528 1.024.3518 2.025.1074 3.055-.2074.871-.8889 1.244-1.7103 1.351-.5911.078-1.1813-.033-1.7593-.172-.4407-.106-.8792-.217-1.3206-.316-.2882-.065-.5634-.054-.7465.193-.1939.263-.0308.483.1358.7.4373.57 1.0451.948 1.6957 1.277.4329.218.835.46 1.1294.848 1.2238 1.61.9392 4.121-.6983 5.334-1.0342.768-1.5559 1.741-1.733 2.919-.0255.174-.0482.348-.0924.518-.268 1.043-1.0046 1.567-2.1584 1.379-.9731-.158-1.5685.173-1.9999.9-.4702.84-1.2467 1.304-2.2229 1.558-1.422.373-2.282 1.246-2.6117 2.565-.0264.109-.0586.217-.0836.325-.2399 1.053-.9192 1.736-2.0244 2.094-.7542.245-1.5321.309-2.312.208-1.1726-.153-2.1215.095-2.9679.88-1.1882 1.101-2.6309 1.56-4.372 1.105-1.1417-.299-2.0346-.827-2.7572-1.727-1.6208-2.015-1.6539-4.213-1.1576-6.468.4572-2.078 1.3777-4.018 2.2024-5.982.3442-.821.7334-1.624 1.1028-2.435-.6573 2.15-1.6244 4.195-2.2585 6.347 1.2877-3.072 2.5104-6.166 3.5975-9.308-.1856 1.395-.326 2.792-.8306 4.121-.7115 1.868-1.5885 3.681-2.1572 5.598-.3264 1.098-.7597 2.168-.9708 3.3 1.0795-3.322 2.3965-6.562 3.7216-9.845-.1468.978-.4113 1.895-.6225 2.82.5447-1.332.7096-2.749 1.1071-4.117l-.2182 1.795c.4639-1.963.3944-3.973.4999-6.077.0692.146.0986.183.1053.224.3652 2.303.1731 4.562-.5621 6.758-.5937 1.772-1.2698 3.518-1.9047 5.278-.5794 1.605-.8792 3.26-.8712 4.975.4627-4.085 2.5868-7.715 3.5178-11.765.2206 1.977-.0556 3.838-.2959 5.694-.2425 1.874-.8625 3.68-1.2105 5.538.3593-.776.5073-1.606.7296-2.417.6902-2.505 1.0607-5.057.9951-7.655-.0454-1.759.0935-3.508.2066-5.262.4467 5.435.6658 10.878.9985 16.318.2216-5.179-.3923-10.353-.4914-15.402.7522 2.388 1.2306 4.946 1.5644 7.542.3496 2.71.3768 5.406.2891 8.115.0625-.103.0957-.207.1072-.313.4741-4.301-.2594-8.552-.9287-12.81.0732.221.1464.443.2197.663-.3667-2.059-.8892-4.084-1.4836-6.1.2455.501.4483 1.013.6345 1.528 1.3426 3.71 2.0353 7.522 2.3931 11.387.0818.878.2142 1.751.3242 2.627.0476-.004.0953-.009.1428-.012-.2623-2.7-.4443-5.407-.9758-8.085-.532-2.674-1.3382-5.286-2.3729-7.846.8536 1.494 1.4565 3.076 2.017 4.667.5707 1.617 1.0561 3.257 1.3786 4.929.3132 1.627.7928 3.23.9159 4.883-.3301-3.924-1.3188-7.735-2.6683-11.485.6932 1.323 1.2932 2.675 1.8564 4.038-.5997-2.057-1.6505-3.963-2.5285-5.996.282.139.2637.412.5881.553-.4365-.746-.8241-1.409-1.2116-2.074.0447-.016.0879-.032.1327-.05 2.2248 3.418 3.681 7.066 4.1026 11.023-.0147-4.349-1.8826-8.184-4.2084-11.909.1498.064.2102.172.2834.273 1.1313 1.56 2.1643 3.176 2.9783 4.887 1.9725 4.149 3.4647 8.445 4.7497 12.799.1743.589.2987 1.189.6332 1.732-1.4913-6.133-3.4397-12.128-6.7745-17.705 3.4123 4.43 5.2682 9.465 7.0238 14.539-1.8295-6.501-4.6954-12.567-9.3172-17.9 1.6689 1.654 3.3822 3.259 4.6342 5.207 1.227 1.91 2.3446 3.873 3.4855 5.826-1.1369-2.579-2.5297-5.04-4.1574-7.398 1.289 1.376 2.5454 2.767 3.5865 4.305 1.2846 1.897 2.2432 3.933 3.1318 5.999.317.735.7301 1.431 1.3167 2.033-.9492-1.41-1.4556-2.987-2.1443-4.493-1.4644-3.204-3.6941-5.951-6.1826-8.544-.2783-.291-.5548-.584-.8331-.875-.2652-.277-.5335-.553-.8002-.83.1498.015.2436.079.3339.148 2.0149 1.534 3.7629 3.302 5.3699 5.187 2.5206 2.959 4.3892 6.254 6.0226 9.667.1385.29.2093.616.4977.836z" fill="#8c6239"/><path d="m1237.82 182.679c-.74 1.967-.66 4.038-.71 6.087-.11 4.292-.12 8.586-.54 12.863-.25 2.459-.98 4.769-2.2 6.89-1.14 1.992-2.95 3.355-5.11 4.067-2.94.97-6.21-.541-7.87-3.446-.17-.285-.33-.573-.44-.88-.41-1.217-1.27-1.897-2.47-2.274-1.48-.462-2.78-1.215-3.77-2.464-.89-1.129-.97-2.373-.79-3.715.19-1.376.33-2.765-.69-3.938-.39-.441-.78-.877-1.21-1.274-.86-.789-1.45-1.706-1.57-2.892-.03-.301-.12-.595-.18-.892-.13-.721-.55-1.109-1.27-1.318-2.13-.617-2.92-2.045-2.32-4.182.48-1.735.5-3.397-.49-4.997-.55-.887-.68-1.891-.55-2.91.23-1.794.98-3.353 2.27-4.624.7-.689 1.56-1.095 2.57-1.177.89-.073 1.78-.158 2.61-.523.24-.106.63-.172.59-.482-.03-.267-.41-.241-.66-.286-.99-.177-2-.262-2.96-.594-.95-.328-1.69-.885-2.22-1.743-.25-.397-.39-.812-.35-1.261.16-1.815.52-3.561 1.87-4.933.71-.718 1.02-1.563.95-2.601-.12-1.652.56-2.629 2.16-3.19.82-.285 1.67-.475 2.51-.667 1.03-.234 1.7-.812 2.06-1.804.35-.965.75-1.91 1.14-2.862.44-1.087 1.19-1.893 2.27-2.364.54-.235.86-.587.98-1.167.26-1.146.89-1.943 2.13-2.119.44-.061.67-.304.72-.731.02-.116.05-.228.07-.342.47-2.274 1.84-3.382 4.18-3.368.39.003.75-.004 1.04-.309 1.12-1.152 2.07-1.327 3.47-.522 3.32 1.912 5.74 4.574 7.14 8.194 1.14 2.935 1.6 5.938 1.58 9.048-.01 1.914-.12 3.819-.28 5.728-.25 2.953.24 5.797 1.55 8.511.69 1.441 2.01 1.694 3.29 1.969 5.32 1.141 10.68 2.141 15.99 3.342 3.92.885 7.76 2.072 11.21 4.235 2.75 1.724 5.41 3.547 7.4 6.175.31.406.57.804.4 1.345-.18.609-.41.686-.86.253-.39-.37-.75-.781-1.13-1.159-2.2-2.157-4.43-4.285-7.29-5.562-4.05-1.816-8.23-3.293-12.54-4.395-4.3-1.1-8.69-1.812-12.99-2.913-.56-.144-1.07.059-1.57.252-3.4 1.307-5.66 3.71-6.87 7.116-.1.264-.17.536-.25.804zm-27.11 8.359c2.16-2.611 4.78-4.719 7.46-6.761 6.05-4.613 12.82-7.646 20.29-9.148.46-.092.91-.191 1.29-.471-.36.005-.7.052-1.05.107-.93.145-1.85.301-2.78.437-.8.119-1.53.653-2.41.364-.2-.064-.46.053-.69.101-4.6.985-8.9 2.731-13 4.98-.68.373-1.35.76-2.02 1.141.21-.327.5-.546.81-.743 1.82-1.185 3.74-2.205 5.75-3.072 2.14-.931 4.36-1.656 6.58-2.398 2.09-.428 4.23-.556 6.29-1.127-2.14.156-4.26.433-6.32 1.074-5.18.911-10.22 2.327-15.18 4.062-2.24.785-4.47 1.601-6.71 2.405 2.06-1.436 4.44-2.157 6.75-3.016 2.32-.864 4.7-1.613 7.08-2.31 2.41-.705 4.89-1.086 7.33-1.659 2.39-.561 4.8-.967 7.24-1.222-6.54-.409-12.6 1.694-18.72 3.459 2.41-1.029 4.9-1.782 7.42-2.472 2.52-.688 5.08-1.147 7.68-1.349-8.14.099-15.83 2.363-23.52 4.702 3.27-1.51 6.76-2.374 10.21-3.296 3.48-.93 7.05-1.449 10.64-1.876-3.96.032-7.92.065-11.88.097 0-.062 0-.123 0-.184 6.54-.283 13.08-.576 19.63.202-1.86-.289-3.65-.923-5.55-.888-5.74.107-11.48.045-17.23-.085-.96-.022-1.93-.027-2.86-.316 5.98-.251 11.97.055 17.95-.184-4.5-1.044-9.02-1.967-13.58-2.741.24-.064.48-.067.7-.049 2.7.217 5.35.724 8 1.25 3.51.7 6.97 1.687 10.78 1.961-2.04-.503-3.87-.982-5.72-1.402-1.83-.418-3.64-.916-5.45-1.404-1.84-.493-3.69-.924-5.58-1.14-1.86-.211-3.69-.536-5.65-1.119 6.14.38 11.87 1.921 17.61 3.464-6.44-2.335-12.71-5.216-19.62-5.972 5.4.282 10.36 2.237 15.38 4.01-2.27-1.189-4.5-2.43-6.45-4.1.93.493 1.83 1.039 2.74 1.557.92.521 1.84 1.033 2.78 1.516.94.482 1.9.933 2.86 1.376.95.443 1.92.869 2.89 1.28.95.402 1.93.709 2.94.919-2.8-1.337-5.62-2.622-8.23-4.284-4.27-2.71-8.61-5.254-13.46-6.804-.05-.015-.08-.073-.22-.192 4.33 1.144 8.1 3.195 11.79 5.452-2.54-1.927-4.96-3.968-6.97-6.457 5.28 4.955 11.17 8.999 17.79 11.949-1.11-.735-2.27-1.399-3.42-2.074-1.16-.68-2.13-1.61-3.2-2.405-1.09-.808-2.24-1.542-3.28-2.418-1-.837-2.03-1.648-2.91-2.614 4.96 3.504 9.4 7.771 15.18 10.024-.97-.697-2.06-1.202-3.09-1.792-1.06-.603-2.06-1.314-3.03-2.048-.95-.72-1.91-1.442-2.84-2.185-.93-.734-1.88-1.445-2.61-2.402 1.2.904 2.4 1.807 3.6 2.711-3.29-2.942-6.03-6.391-9.3-9.44.35-.076.42.109.53.212 1.39 1.36 2.85 2.655 4.13 4.112 3.06 3.476 6.63 6.345 10.38 9.007 1.26.888 2.65 1.532 4.08 2.1-7.22-4.725-13.45-10.478-18.44-17.52 3.8 4.383 7.59 8.762 12.27 12.271-1.55-1.61-2.96-3.337-4.1-5.253-2.36-3.958-5.14-7.595-8.21-11.032-.23-.26-.44-.53-.71-.848.29-.013.35.142.44.236 2.98 3.168 5.7 6.544 7.93 10.276 1.86 3.13 4.11 5.912 6.83 8.328.72.636 1.47 1.228 2.21 1.839-2.77-3.088-5.69-6.025-6.99-10.09 1.28 2.459 2.76 4.776 4.77 6.729-1.04-1.264-1.88-2.662-2.69-4.067-.81-1.398-1.55-2.837-2.31-4.262-.75-1.416-1.49-2.836-2.24-4.255.06-.033.13-.068.2-.101.86 1.5 1.75 2.987 2.58 4.503 1.54 2.786 2.9 5.673 4.93 8.16.75.908 1.51 1.798 2.4 2.558-1.89-2.675-3.45-5.521-4.66-8.551-1.45-3.627-2.85-7.276-4.38-10.87-.11-.261-.21-.529-.31-.794 1.34 1.964 2.22 4.128 3.1 6.291 1.23 3.031 2.22 6.165 3.8 9.051.12.221.19.491.55.721-2.26-5.392-3.73-10.885-5.61-16.401.4.22.42.47.5.671.71 1.61 1.24 3.283 1.76 4.957 1 3.215 1.98 6.436 3.23 9.566.53 1.304 1.15 2.565 1.93 3.748-.81-2.077-1.59-4.151-2.13-6.31-.54-2.16-1.11-4.312-1.67-6.466 1.24 2.666 1.79 5.543 2.71 8.307.02-.354-.03-.695-.11-1.026-.55-2.271-1.12-4.536-1.65-6.808-.99-4.141-2.6-7.995-5.24-11.386-.1-.128-.17-.278-.25-.416 1.56 1.717 2.82 3.62 3.75 5.718 1.35 3.054 2 6.318 2.83 9.53.67 2.577 1.01 5.232 1.91 7.751.21.575.42 1.149.77 1.725.03-.119.06-.165.05-.197-.84-2.547-1.16-5.19-1.46-7.836-.43-3.817-1.11-7.578-2.58-11.162-.18-.443-.32-.899-.48-1.35.05-.026.11-.052.17-.078.04.125.07.255.12.371 1.41 2.987 2.29 6.125 2.78 9.38.45 3.071.66 6.176 1.39 9.206.06.249.12.501.19.746.08.239.17.474.26.711-.49-2.241-.77-4.49-.61-6.747.16-2.436-.14-4.799-.75-7.134-.72-2.77-1.71-5.441-3.32-7.846-.24-.366-.54-.702-.81-1.054.9.716 1.55 1.62 2.03 2.631 2.04 4.298 3.44 8.734 3.07 13.574-.08 1.005-.04 2.032.17 3.036.07-.464.03-.929.08-1.384.36-2.838.38-5.687.16-8.528-.35-4.315-1.67-8.282-4.74-11.5-.62-.639-1.34-1.175-2.01-1.76-.78-.678-1.64-1.144-2.68-1.3-.48-.073-.91-.029-1.18.404-.47.761-1.18.903-2.03.985-1.76.172-3.06.829-3.27 2.726-.02.162-.06.32-.09.482-.11.647-.48 1.079-1.13 1.174-1.03.154-1.56.773-1.75 1.737-.15.724-.56 1.195-1.24 1.482-1 .414-1.71 1.128-2.1 2.142-.37.934-.78 1.85-1.13 2.789-.45 1.172-1.28 1.861-2.49 2.135-.82.187-1.66.354-2.45.613-1.38.448-1.9 1.211-1.79 2.635.08 1.071-.18 2.016-.94 2.759-1.14 1.124-1.59 2.526-1.89 4.046-.25 1.286.38 2.167 1.32 2.768.68.433 1.47.613 2.26.748.6.102 1.2.197 1.8.308.39.074.73.242.81.675.09.462-.24.667-.57.866-.87.523-1.83.693-2.82.774-.66.052-1.29.153-1.87.511-2.44 1.484-3.53 5.019-2.22 7.56.82 1.607.9 3.205.44 4.888-.07.247-.14.495-.18.748-.28 1.55.33 2.665 1.85 3.054 1.29.328 1.83 1.105 1.94 2.322.09 1.391.77 2.447 1.83 3.332 1.53 1.291 2.08 2.944 1.72 4.9-.03.161-.05.324-.08.484-.32 1.548.12 2.845 1.27 3.941.79.748 1.71 1.267 2.72 1.565 1.53.446 2.55 1.307 3.14 2.834.82 2.141 2.33 3.56 4.73 3.917 1.57.233 2.97.019 4.38-.788 3.15-1.807 4.46-4.745 5.15-8.051.63-3.049.62-6.169.74-9.268.05-1.295.04-2.591.05-3.887-.43 3.256-.42 6.543-.88 9.79.19-4.846.47-9.686.95-14.515-.58 1.978-1.21 3.935-1.36 6.002-.2 2.908-.17 5.832-.58 8.725-.23 1.659-.32 3.338-.71 4.977.59-5.066.84-10.155 1.11-15.305-.38 1.396-.59 2.776-.86 4.138.1-2.094.71-4.091 1.01-6.152l-.77 2.535c.57-2.897 1.81-5.56 2.9-8.447-.17.157-.23.191-.26.242-1.78 2.893-2.85 6.036-3.21 9.399-.29 2.711-.47 5.435-.71 8.154-.21 2.48-.8 4.872-1.8 7.173 1.79-5.75 1.28-11.811 2.47-17.773-1.41 2.534-2.14 5.19-2.92 7.819-.78 2.655-1.06 5.427-1.71 8.118.01-1.242.31-2.44.5-3.655.6-3.751 1.62-7.388 3.19-10.845 1.07-2.339 1.91-4.767 2.79-7.189-3.69 7.059-7.09 14.254-10.64 21.383 2.71-7.086 6.45-13.701 9.48-20.433-2.3 2.792-4.36 5.966-6.27 9.27-1.99 3.448-3.57 7.057-5.03 10.748-.02-.173 0-.331.05-.48 1.9-6.046 5.25-11.353 8.53-16.706-.22.258-.44.515-.66.77 1.64-2.564 3.45-4.997 5.34-7.375-.59.536-1.13 1.112-1.66 1.701-3.78 4.241-6.83 8.98-9.5 13.977-.61 1.135-1.27 2.235-1.91 3.351-.06-.031-.12-.064-.17-.096 1.88-3.484 3.66-7.021 5.86-10.326 2.19-3.299 4.69-6.361 7.43-9.227-1.9 1.533-3.56 3.324-5.16 5.152-1.63 1.856-3.18 3.791-4.54 5.859-1.32 2.013-2.83 3.902-3.94 6.055 2.67-5.091 6.08-9.665 9.9-13.956-1.61 1.394-3.13 2.877-4.61 4.396 1.93-2.431 4.32-4.41 6.57-6.654-.43.03-.57.407-1.05.417.97-.761 1.83-1.437 2.69-2.115-.05-.046-.09-.092-.14-.141-4.7 3.358-8.59 7.451-11.39 12.537 2.53-5.839 7.03-9.955 12.03-13.669-.22.002-.35.114-.5.209-2.29 1.467-4.49 3.066-6.47 4.914-4.82 4.48-9.13 9.426-13.21 14.563-.56.695-1.06 1.434-1.78 1.977 5.37-7.416 11.22-14.391 18.52-20.033-6.74 4.057-11.92 9.794-17 15.638 5.99-7.722 13.01-14.283 21.76-18.882-3.01 1.296-6.03 2.501-8.69 4.423-2.61 1.886-5.11 3.903-7.64 5.894 2.88-2.835 6.01-5.369 9.37-7.633-2.38 1.133-4.72 2.303-6.89 3.792-2.67 1.836-5.02 4.039-7.3 6.323-.81.812-1.72 1.518-2.79 2.001 1.98-1.368 3.51-3.206 5.22-4.848 3.65-3.493 7.97-5.946 12.52-8.047.51-.236 1.02-.477 1.53-.713.48-.225.97-.447 1.46-.672-.19-.062-.35-.028-.5.014-3.36.941-6.52 2.346-9.58 3.987-4.8 2.575-8.99 5.966-12.97 9.646-.33.313-.61.712-1.09.847z" fill="#8a2e00"/><g fill="#8c6239"><path d="m1250.08 112.113c.34-1.487 1.26-2.695 2.08-3.942 1.73-2.614 3.53-5.187 5.05-7.923.87-1.5737 1.36-3.2646 1.44-5.0452.08-1.6725-.54-3.246-1.67-4.581-1.55-1.8163-4.35-2.2858-6.67-1.2463-.22.1018-.46.2031-.65.3438-.79.5566-1.64.6016-2.6.3208-1.17-.3451-2.35-.4404-3.53-.1075-1.06.3005-1.64 1.0089-2.08 1.8895-.46.9023-.95 1.7912-2.12 2.0652-.44.1026-.88.1979-1.33.2539-.91.1111-1.68.4116-2.26 1.0725-.14.1677-.33.3047-.49.4589-.39.3754-.84.4291-1.4.2527-1.67-.5244-2.79-.0007-3.29 1.5263-.42 1.2399-1.1 2.245-2.42 2.7864-.74.301-1.25.844-1.59 1.509-.6 1.171-.76 2.419-.44 3.722.17.707.57 1.311 1.2 1.783.56.416 1.12.842 1.51 1.408.12.166.35.37.19.539-.13.147-.37-.029-.55-.107-.74-.31-1.44-.683-2.22-.889-.76-.202-1.49-.18-2.2.111-.33.134-.6.323-.76.607-.65 1.154-1.15 2.348-.83 3.739.17.727.02 1.364-.47 1.954-.77.94-.73 1.808.09 2.818.43.512.91.984 1.39 1.454.58.569.78 1.199.6 1.942-.17.724-.3 1.459-.45 2.191-.16.836 0 1.635.51 2.37.26.367.33.711.17 1.112-.32.792-.23 1.535.52 2.162.26.219.31.461.17.74-.04.075-.07.157-.1.234-.65 1.558-.2 2.797 1.35 3.772.26.158.49.315.56.621.26 1.159.81 1.665 2.08 1.77 3 .25 5.72-.324 8.17-1.902 1.99-1.28 3.55-2.883 4.85-4.751.8-1.15 1.53-2.335 2.22-3.545 1.07-1.873 2.59-3.369 4.6-4.443 1.07-.57 2.04-.169 3.01.207 4 1.553 7.97 3.205 11.99 4.718 2.97 1.116 6.01 2.019 9.21 2.175 2.54.124 5.07.154 7.5-.582.37-.114.71-.245.83-.638.13-.441.01-.582-.47-.515-.42.057-.82.155-1.23.22-2.36.368-4.74.701-7.17.267-3.44-.617-6.83-1.489-10.15-2.642-3.32-1.15-6.52-2.566-9.83-3.713-.43-.151-.68-.487-.93-.811-1.7-2.21-2.19-4.6-1.57-7.147.05-.197.12-.389.18-.583zm-14.44-16.3918c.33 2.4688 1.18 4.8298 2.09 7.1768 2.07 5.303 5.28 9.963 9.6 14.003.26.245.52.493.66.822-.24-.154-.45-.327-.65-.505-.56-.476-1.1-.957-1.66-1.428-.48-.409-.74-1.036-1.45-1.233-.15-.045-.28-.225-.41-.349-2.63-2.521-4.74-5.372-6.52-8.442-.29-.509-.57-1.022-.86-1.533.01.286.11.539.23.784.71 1.477 1.55 2.894 2.51 4.254 1.03 1.459 2.2 2.826 3.36 4.201 1.2 1.134 2.57 2.111 3.69 3.32-1.35-.995-2.64-2.052-3.73-3.3-3.05-2.722-5.8-5.689-8.35-8.81-1.16-1.411-2.29-2.837-3.44-4.257.76 1.724 2.04 3.157 3.21 4.64 1.17 1.494 2.43 2.939 3.72 4.358 1.29 1.432 2.78 2.706 4.16 4.074 1.34 1.339 2.76 2.593 4.27 3.77-4.5-2.501-7.63-6.305-10.94-9.935 1.16 1.627 2.5 3.126 3.87 4.596 1.38 1.471 2.89 2.821 4.53 4.038-5.35-3.48-9.5-8.069-13.61-12.698 1.54 2.279 3.48 4.258 5.38 6.262 1.92 2.02 4.06 3.829 6.26 5.594-2.61-1.683-5.22-3.367-7.83-5.05-.02.037-.05.073-.08.11 4.22 2.917 8.43 5.84 13.09 8.125-1.35-.608-2.81-.981-4.05-1.799-3.76-2.477-7.59-4.852-11.44-7.187-.65-.391-1.29-.796-2.03-1.015 3.85 2.664 7.95 4.996 11.81 7.653-3.42-1.267-6.8-2.614-10.15-4.065.14.14.29.239.45.324 1.87 1.003 3.84 1.812 5.82 2.61 2.62 1.058 5.33 1.922 7.96 3.358-1.56-.556-2.97-1.039-4.37-1.563-1.39-.52-2.8-.982-4.21-1.452-1.42-.477-2.83-.997-4.17-1.663-1.32-.655-2.67-1.229-4.21-1.704 4.23 2.354 8.67 3.84 13.12 5.328-5.25-1.311-10.61-2.221-15.51-4.673 3.7 2.101 7.81 3.017 11.87 4.063-2-.241-4-.435-5.99-.256.82.097 1.65.148 2.47.222.83.074 1.66.155 2.48.261s1.65.238 2.47.375 1.64.288 2.45.451c.8.159 1.58.387 2.33.683-2.41-.374-4.82-.79-7.25-.894-3.96-.171-7.91-.472-11.77-1.583-.04-.011-.09.008-.22.023 3.34 1.135 6.7 1.492 10.09 1.691-2.49.085-4.95.291-7.32.936 5.58-.746 11.17-.694 16.8.322-1.05-.026-2.09-.114-3.14-.193-1.05-.081-2.08.068-3.13.093-1.06.025-2.13-.018-3.19.068-1.01.082-2.03.136-3.02.344 4.75-.014 9.49-.701 14.27.38-.94.008-1.87-.146-2.81-.229-.95-.085-1.91-.076-2.86-.045-.94.03-1.87.061-2.8.113-.93.05-1.85.076-2.74.341 1.17-.037 2.35-.074 3.52-.112-3.41.381-6.68 1.291-10.13 1.741.2.192.33.114.44.096 1.5-.23 3.01-.389 4.47-.722 3.49-.796 7.06-1.013 10.66-1.027 1.2-.005 2.4.194 3.58.455-6.76-.207-13.3.621-19.57 2.737 4.35-1.029 8.71-2.054 13.28-2.189-1.7.312-3.36.755-4.92 1.421-3.23 1.377-6.6 2.383-10.07 3.153-.26.059-.52.129-.83.207.19.132.29.064.39.045 3.31-.644 6.53-1.52 9.57-2.819 2.55-1.09 5.21-1.809 8.02-2.112.74-.079 1.49-.117 2.24-.173-3.13.688-6.3 1.217-8.87 3.103 1.88-.935 3.84-1.699 5.99-2.023-1.22.32-2.37.803-3.5 1.302-1.12.496-2.21 1.048-3.31 1.582-1.1.531-2.19 1.068-3.28 1.602.03.048.06.097.09.145 1.2-.535 2.42-1.052 3.61-1.608 2.18-1.023 4.3-2.177 6.69-2.811.88-.231 1.75-.444 2.67-.522-2.38.804-4.61 1.85-6.69 3.155-2.48 1.561-4.94 3.159-7.47 4.665-.18.109-.35.229-.53.346 1.71-.614 3.2-1.538 4.69-2.462 2.09-1.295 4.07-2.755 6.33-3.818.17-.081.33-.214.66-.2-3.76 2.276-7.04 4.943-10.61 7.453.36.037.48-.105.62-.188 1.14-.669 2.2-1.445 3.25-2.228 2.01-1.504 4.01-3.018 6.16-4.365.89-.561 1.83-1.052 2.84-1.435-1.4.905-2.79 1.818-4.05 2.882-1.27 1.066-2.55 2.113-3.83 3.167 1.94-1.075 3.51-2.565 5.29-3.832-.14.219-.31.404-.51.568-1.31 1.129-2.64 2.246-3.95 3.379-2.4 2.064-5.08 3.693-8.25 4.613-.12.035-.23.095-.35.142 1.76-.372 3.39-.98 4.89-1.845 2.18-1.26 3.98-2.94 5.88-4.512 1.53-1.262 2.87-2.706 4.52-3.835.38-.258.76-.513 1.23-.711-.02.087-.02.128-.04.142-1.63 1.171-2.95 2.617-4.26 4.074-1.89 2.103-3.92 4.067-6.4 5.595-.31.189-.59.402-.89.604.03.04.05.079.08.118.08-.058.15-.122.24-.169 2.19-1.197 4.09-2.702 5.78-4.447 1.59-1.646 3.03-3.415 4.79-4.924.14-.124.29-.248.44-.364.15-.112.31-.213.47-.318-1.27 1.135-2.4 2.364-3.24 3.779-.91 1.529-2.11 2.815-3.49 3.956-1.65 1.353-3.43 2.535-5.5 3.3-.31.116-.65.194-.98.291.9-.05 1.71-.318 2.45-.722 3.16-1.716 5.95-3.78 7.74-6.834.37-.634.82-1.233 1.39-1.742-.15.303-.38.565-.53.861-.96 1.848-2.14 3.564-3.48 5.168-2.04 2.437-4.58 4.257-7.97 4.888-.68.126-1.38.142-2.07.21-.8.08-1.57-.006-2.32-.348-.35-.159-.62-.363-.61-.736 0-.656-.41-1.038-.94-1.444-1.09-.84-1.67-1.782-1.02-3.005.06-.105.1-.218.15-.326.2-.433.13-.847-.26-1.177-.62-.526-.71-1.118-.43-1.775.21-.495.14-.949-.2-1.409-.48-.665-.65-1.39-.49-2.164.15-.712.26-1.433.42-2.144.2-.887-.06-1.647-.75-2.322-.46-.457-.94-.907-1.36-1.397-.73-.847-.75-1.52-.08-2.328.5-.607.73-1.282.54-2.043-.29-1.155 0-2.184.45-3.217.37-.873 1.16-1.139 2.03-1.102.64.027 1.23.251 1.81.502.45.192.88.389 1.33.573.29.121.58.16.82-.065.25-.24.12-.501-.02-.758-.35-.676-.92-1.183-1.54-1.647-.41-.307-.79-.634-1.03-1.094-.98-1.909-.23-4.486 1.71-5.455 1.22-.615 1.95-1.5374 2.35-2.7388.06-.1766.11-.3555.19-.5249.47-1.0422 1.34-1.4561 2.51-1.0489.99.3441 1.67.1062 2.26-.5755.64-.7936 1.54-1.1373 2.61-1.2247 1.56-.1294 2.62-.8866 3.2-2.2069.05-.1088.1-.2157.15-.3248.44-1.058 1.28-1.6487 2.5-1.8215.84-.1182 1.66-.0431 2.46.2058 1.2.3749 2.24.289 3.27-.3781 1.44-.9357 3.04-1.1517 4.78-.3567 1.14.5217 1.97 1.238 2.57 2.3115 1.32 2.4055.96 4.713.02 6.9816-.85 2.0919-2.17 3.9549-3.4 5.8589-.51.796-1.06 1.566-1.6 2.347 1.09-2.13 2.47-4.093 3.53-6.23-1.91 2.979-3.76 5.994-5.47 9.084.45-1.426.85-2.862 1.62-4.161 1.09-1.826 2.34-3.562 3.29-5.465.54-1.09 1.19-2.1303 1.62-3.2761-1.74 3.2791-3.71 6.4301-5.7 9.6231.33-.996.78-1.907 1.17-2.838-.82 1.295-1.25 2.748-1.91 4.108l.55-1.84c-.84 1.971-1.14 4.086-1.63 6.269-.05-.165-.07-.209-.07-.254.04-2.476.65-4.805 1.82-6.97.95-1.746 1.98-3.45 2.96-5.176.9-1.5737 1.52-3.2512 1.82-5.0481-1.23 4.1918-4.11 7.6021-5.83 11.6711.13-2.109.76-4.007 1.35-5.905.6-1.9182 1.58-3.695 2.28-5.5758-.52.7463-.82 1.5878-1.2 2.3963-1.18 2.4955-2.04 5.0995-2.45 7.8305-.27 1.85-.74 3.655-1.18 5.47.53-5.771 1.3-11.5078 1.95-17.2632-1.18 5.3806-1.49 10.9092-2.31 16.2122-.35-2.638-.38-5.403-.26-8.182.13-2.8995.6-5.7263 1.19-8.5456-.09.0961-.14.1984-.17.3076-1.29 4.415-1.3 8.999-1.37 13.578-.04-.245-.08-.49-.11-.734 0 2.222.18 4.438.43 6.656-.16-.569-.28-1.142-.38-1.715-.73-4.129-.76-8.246-.42-12.3566.07-.9338.09-1.8721.14-2.809-.05-.0049-.1-.0085-.15-.0134-.22 2.8744-.53 5.741-.46 8.641.07 2.896.43 5.777 1.05 8.646-.62-1.72-.96-3.486-1.26-5.254-.3-1.797-.51-3.602-.54-5.411-.03-1.76-.24-3.526-.07-5.2783-.37 4.1673-.03 8.3373.69 12.5093-.48-1.512-.86-3.036-1.2-4.566.25 2.262 1 4.45 1.55 6.738-.27-.197-.2-.479-.51-.687.32.861.6 1.626.88 2.393-.05.009-.09.018-.14.028-1.71-3.984-2.56-8.069-2.28-12.288-.78 4.555.47 8.911 2.23 13.235-.15-.094-.19-.219-.25-.337-.9-1.84-1.69-3.721-2.22-5.661-1.31-4.703-2.09-9.473-2.63-14.2646-.08-.6484-.1-1.2997-.35-1.9288.44 6.6922 1.38 13.3234 3.85 19.7704-2.76-5.261-3.78-10.871-4.69-16.5026.72 7.1396 2.61 14.0126 6.48 20.4406-1.45-2.037-2.95-4.031-3.9-6.298-.94-2.224-1.75-4.483-2.58-6.736.71 2.908 1.72 5.738 2.99 8.504-1.09-1.676-2.15-3.362-2.96-5.162-1-2.221-1.63-4.527-2.18-6.8517-.2-.8279-.5-1.6321-1.01-2.3689.74 1.6493.98 3.3926 1.42 5.0946.95 3.622 2.78 6.905 4.91 10.074.24.355.48.713.71 1.068.23.339.46.677.69 1.016-.15-.044-.24-.128-.32-.216-1.83-1.974-3.34-4.145-4.67-6.412-2.1-3.558-3.45-7.349-4.54-11.2203-.09-.3289-.11-.6833-.37-.9657z"/><path d="m1254.79 225.359c-.07 1.166.35 2.253.69 3.349.71 2.295 1.49 4.575 2.02 6.915.3 1.345.29 2.693-.04 4.02-.3 1.246-1.11 2.268-2.24 3.004-1.55 1.001-3.73.741-5.23-.526-.14-.124-.3-.249-.41-.395-.46-.578-1.09-.796-1.86-.797-.95 0-1.84-.185-2.64-.685-.73-.451-1.01-1.097-1.14-1.84-.14-.761-.31-1.521-1.12-1.975-.3-.171-.61-.337-.94-.476-.64-.277-1.15-.665-1.44-1.275-.07-.155-.17-.296-.26-.444-.21-.361-.53-.497-.98-.489-1.36.025-2.08-.603-2.12-1.835-.03-1-.32-1.886-1.19-2.571-.48-.381-.74-.891-.85-1.453-.19-.991-.03-1.942.49-2.83.29-.482.72-.84 1.29-1.05.5-.185 1.01-.378 1.43-.709.12-.096.34-.196.26-.354-.07-.137-.29-.06-.44-.043-.61.07-1.22.192-1.84.175-.61-.017-1.15-.19-1.61-.557-.22-.17-.38-.367-.43-.611-.24-.99-.35-1.976.2-2.928.28-.498.31-.999.08-1.538-.37-.857-.15-1.487.68-2.05.43-.286.89-.528 1.35-.77.55-.293.84-.712.87-1.297.03-.57.09-1.138.15-1.708.06-.649.35-1.202.9-1.63.27-.214.39-.453.36-.783-.06-.649.17-1.178.86-1.476.24-.104.33-.272.29-.507-.01-.064-.02-.129-.02-.194-.14-1.284.46-2.099 1.83-2.479.22-.061.43-.125.55-.336.44-.796.97-1.047 1.93-.851 2.28.466 4.18 1.477 5.66 3.167 1.19 1.37 2 2.887 2.56 4.54.34 1.018.62 2.047.87 3.087.39 1.608 1.19 3.037 2.45 4.26.66.65 1.48.567 2.28.5 3.31-.276 6.62-.631 9.94-.873 2.45-.178 4.91-.184 7.32.393 1.92.46 3.8.986 5.44 2.051.26.164.48.334.48.648 0 .353-.12.431-.46.277-.3-.131-.58-.291-.87-.428-1.67-.781-3.37-1.541-5.26-1.746-2.7-.293-5.41-.385-8.13-.256-2.71.128-5.4.476-8.11.603-.35.017-.62.209-.87.394-1.75 1.256-2.64 2.906-2.73 4.914 0 .156 0 .311.01.467zm-14.31 8.922c.78-1.742 1.93-3.294 3.12-4.821 2.7-3.45 6.11-6.18 10.2-8.214.25-.124.5-.251.67-.463-.21.062-.4.144-.6.231-.51.23-1.02.465-1.54.691-.45.196-.78.601-1.34.593-.13-.001-.26.104-.39.167-2.5 1.284-4.7 2.922-6.69 4.795-.33.31-.65.627-.97.94.06-.209.19-.373.34-.528.85-.932 1.79-1.79 2.8-2.582 1.08-.849 2.25-1.602 3.41-2.362 1.14-.573 2.37-.996 3.47-1.64-1.22.438-2.41.936-3.5 1.616-2.86 1.341-5.55 2.928-8.13 4.669-1.17.787-2.32 1.59-3.48 2.386.94-1.102 2.2-1.88 3.39-2.717 1.2-.844 2.45-1.634 3.72-2.398 1.28-.772 2.66-1.386 3.98-2.094 1.3-.693 2.63-1.307 4.01-1.846-3.89.865-7.05 2.983-10.31 4.934 1.22-.945 2.54-1.757 3.89-2.539 1.34-.783 2.75-1.45 4.24-1.989-4.74 1.4-8.82 3.875-12.89 6.389 1.64-1.344 3.52-2.378 5.37-3.439 1.87-1.07 3.85-1.936 5.88-2.757-2.31.672-4.62 1.345-6.93 2.018-.01-.033-.02-.066-.03-.098 3.77-1.233 7.53-2.47 11.5-3.141-1.14.154-2.3.114-3.4.447-3.34 1.007-6.7 1.924-10.08 2.806-.56.147-1.13.305-1.73.306 3.45-1.123 7-1.951 10.45-3.068-2.82.191-5.62.449-8.42.792.13-.074.26-.114.4-.142 1.61-.331 3.25-.5 4.89-.659 2.18-.21 4.38-.26 6.66-.744-1.29.07-2.44.119-3.6.202-1.14.081-2.29.116-3.44.158-1.16.042-2.32.119-3.46.318-1.13.196-2.26.326-3.51.341 3.66-.815 7.29-.946 10.92-1.077-4.19-.172-8.37-.664-12.55.079 3.21-.744 6.46-.528 9.71-.417-1.54-.256-3.06-.546-4.51-1.109.64.107 1.26.248 1.89.372.63.125 1.26.244 1.9.344.63.101 1.27.182 1.91.259s1.28.142 1.93.2c.62.056 1.25.056 1.88.002-1.88-.247-3.76-.462-5.59-.912-2.98-.732-5.97-1.364-9.09-1.384-.03 0-.06-.024-.16-.065 2.74-.11 5.31.355 7.87.942-1.83-.602-3.61-1.285-5.24-2.273 3.99 1.755 8.15 2.927 12.55 3.398-.78-.207-1.57-.368-2.37-.536-.8-.169-1.53-.502-2.3-.746-.79-.249-1.59-.448-2.36-.74-.73-.28-1.48-.54-2.17-.907 3.53 1.039 6.9 2.569 10.69 2.808-.7-.209-1.42-.298-2.14-.439-.73-.144-1.43-.358-2.14-.586-.68-.224-1.37-.45-2.05-.689-.68-.237-1.36-.457-1.96-.844.86.282 1.73.563 2.59.844-2.45-1.018-4.68-2.394-7.14-3.47.19-.098.27-.013.35.024 1.05.493 2.15.937 3.16 1.498 2.41 1.339 5.02 2.271 7.69 3.062.9.264 1.83.375 2.76.44-5.07-1.312-9.75-3.336-13.94-6.247 3.01 1.699 6.02 3.394 9.39 4.483-1.2-.598-2.33-1.282-3.35-2.11-2.09-1.71-4.38-3.179-6.79-4.496-.18-.1-.36-.208-.57-.332.17-.056.23.017.3.052 2.31 1.188 4.52 2.529 6.49 4.142 1.66 1.352 3.48 2.457 5.5 3.288.54.219 1.08.409 1.62.611-2.17-1.182-4.41-2.257-5.9-4.198 1.19 1.093 2.47 2.077 4 2.781-.83-.499-1.58-1.101-2.31-1.712-.73-.608-1.42-1.25-2.12-1.881-.69-.626-1.39-1.257-2.08-1.886.03-.029.07-.058.1-.087.77.653 1.56 1.296 2.32 1.962 1.41 1.225 2.73 2.531 4.36 3.514.6.359 1.21.706 1.87.961-1.59-1.106-3.02-2.358-4.28-3.766-1.5-1.685-2.98-3.391-4.52-5.044-.12-.12-.22-.246-.33-.371 1.14.822 2.05 1.824 2.95 2.826 1.27 1.404 2.42 2.904 3.86 4.174.11.097.2.229.46.292-2.3-2.488-4.16-5.159-6.26-7.774.28.05.33.18.42.272.7.738 1.32 1.537 1.93 2.339 1.16 1.541 2.32 3.088 3.62 4.542.54.606 1.13 1.171 1.8 1.671-.85-.97-1.68-1.941-2.38-2.997-.71-1.057-1.44-2.104-2.15-3.155 1.2 1.21 2.05 2.646 3.09 3.96-.06-.191-.15-.364-.25-.526-.74-1.115-1.48-2.223-2.2-3.34-1.33-2.034-2.97-3.813-5.13-5.176-.08-.051-.15-.119-.22-.178 1.22.653 2.3 1.454 3.23 2.413 1.34 1.397 2.31 3.022 3.38 4.589.86 1.257 1.54 2.609 2.52 3.797.23.271.45.541.76.789 0-.069.01-.099 0-.114-.95-1.213-1.62-2.562-2.28-3.916-.94-1.955-2.02-3.838-3.53-5.497-.18-.205-.35-.424-.52-.637.02-.023.05-.046.08-.069.05.06.09.124.14.177 1.36 1.352 2.45 2.871 3.32 4.518.82 1.554 1.51 3.167 2.48 4.655.08.123.16.246.25.364.09.114.19.224.28.335-.69-1.109-1.26-2.256-1.58-3.479-.34-1.321-.95-2.525-1.73-3.663-.92-1.35-1.99-2.603-3.36-3.614-.21-.154-.44-.284-.66-.426.65.231 1.2.603 1.66 1.061 1.97 1.944 3.59 4.065 4.25 6.696.14.546.34 1.085.65 1.582-.05-.256-.15-.497-.2-.748-.31-1.565-.81-3.081-1.46-4.551-.98-2.233-2.47-4.12-4.85-5.318-.47-.238-.99-.403-1.49-.602-.58-.232-1.17-.335-1.8-.246-.3.041-.54.134-.62.409-.14.483-.52.675-1.01.859-.99.382-1.63.947-1.41 1.988.02.089.02.18.03.27.06.362-.08.652-.44.811-.58.252-.77.668-.71 1.211.04.409-.11.726-.46.992-.5.384-.79.88-.84 1.484-.04.556-.12 1.11-.15 1.668-.05.695-.41 1.198-1.07 1.544-.44.235-.9.462-1.32.731-.72.466-.88.956-.56 1.695.24.555.26 1.099-.05 1.618-.47.787-.48 1.606-.37 2.461.09.723.61 1.088 1.27 1.25.48.118.97.082 1.45.023.37-.045.74-.095 1.11-.134.25-.026.47.008.6.225.13.23-.02.393-.18.553-.41.421-.94.671-1.51.877-.37.137-.72.295-1 .582-1.15 1.19-1.15 3.248.08 4.379.77.716 1.11 1.551 1.14 2.521.01.142.01.286.03.427.12.868.67 1.36 1.63 1.314.81-.038 1.27.284 1.56.912.3.723.89 1.17 1.67 1.465 1.13.432 1.75 1.218 1.9 2.315.01.091.02.181.03.271.1.873.59 1.489 1.46 1.88.6.267 1.23.391 1.87.381.98-.017 1.73.271 2.35.984.87 1.001 2.01 1.505 3.47 1.297.96-.137 1.74-.482 2.42-1.143 1.51-1.481 1.74-3.256 1.55-5.125-.18-1.724-.76-3.378-1.25-5.042-.2-.696-.45-1.381-.67-2.071.33 1.799.94 3.542 1.25 5.342-.76-2.603-1.48-5.219-2.07-7.86.02 1.145.01 2.288.29 3.409.41 1.577.96 3.124 1.25 4.727.16.918.42 1.824.48 2.758-.57-2.786-1.35-5.528-2.12-8.305.03.804.16 1.57.24 2.338-.32-1.127-.32-2.289-.52-3.432l.01 1.472c-.19-1.631.05-3.25.16-4.961-.07.111-.1.139-.11.171-.51 1.829-.56 3.674-.17 5.519.32 1.487.71 2.962 1.07 4.444.32 1.351.41 2.717.25 4.104 0-3.347-1.4-6.478-1.78-9.84-.37 1.578-.31 3.109-.29 4.633.02 1.538.36 3.056.47 4.591-.22-.661-.26-1.346-.37-2.022-.33-2.09-.4-4.189-.1-6.284.2-1.419.25-2.846.32-4.276-.87 4.356-1.56 8.738-2.33 13.108.3-4.209 1.28-8.339 1.83-12.413-.84 1.862-1.47 3.888-1.98 5.957-.54 2.159-.81 4.338-.99 6.537-.04-.089-.06-.176-.06-.263.01-3.522 1.01-6.894 1.95-10.276-.08.172-.16.344-.24.516.49-1.632 1.11-3.222 1.78-4.798-.25.383-.46.778-.66 1.178-1.44 2.877-2.36 5.897-3.02 8.99-.15.703-.34 1.397-.51 2.095-.04-.007-.07-.015-.11-.023.46-2.16.86-4.332 1.55-6.45.68-2.113 1.59-4.152 2.67-6.127-.84 1.13-1.48 2.353-2.08 3.589-.62 1.255-1.17 2.537-1.59 3.86-.41 1.287-.95 2.54-1.2 3.865.63-3.143 1.79-6.135 3.25-9.044-.69 1.007-1.31 2.044-1.9 3.095.69-1.608 1.72-3.054 2.63-4.617-.24.087-.25.309-.53.394.42-.564.8-1.065 1.18-1.567-.03-.017-.07-.034-.1-.052-2.14 2.56-3.67 5.376-4.38 8.538.41-3.517 2.3-6.446 4.55-9.245-.13.038-.19.12-.26.194-1.07 1.158-2.07 2.37-2.89 3.679-2 3.175-3.62 6.513-5.08 9.915-.2.461-.35.935-.68 1.343 1.79-4.823 3.95-9.493 7.19-13.697-3.2 3.269-5.19 7.171-7.1 11.114 2.11-5.09 5.01-9.733 9.29-13.622-1.52 1.185-3.07 2.326-4.27 3.785-1.19 1.433-2.28 2.918-3.4 4.392 1.17-1.981 2.54-3.844 4.09-5.601-1.18.994-2.34 2.004-3.33 3.152-1.23 1.417-2.2 2.975-3.12 4.564-.33.566-.73 1.091-1.27 1.523.91-1.053 1.47-2.281 2.17-3.436 1.5-2.457 3.58-4.474 5.86-6.342.25-.21.5-.422.76-.631.24-.2.49-.399.73-.599-.12-.001-.21.042-.29.09-1.79 1.055-3.38 2.324-4.87 3.701-2.34 2.162-4.17 4.655-5.83 7.266-.14.221-.22.479-.48.63z"/></g></g></svg>