<svg fill="none" height="537" viewBox="0 0 426 537" width="426" xmlns="http://www.w3.org/2000/svg"><g fill="#8c6239"><path d="m155.596 346.934c-2.237 4.04-4.108 7.811-10.038 8.148-2.854.164-5.371 4.079-8.601 5.583-1.62.752-1.331 2.845-1.235 4.397.145 2.276 1.929.936 2.961 1.032 2.458.231 2.275 1.282.954 2.69-1.388 1.485-2.545 2.903-.906 4.976.328.414.424 1.61.183 1.764-4.272 2.778-3.211 8.274-6.056 11.697-1.031 1.244-1.051 2.179-.289 3.413.772 1.244 1.601 2.45 3.086 2.864.289.077 1.051-.376 1.041-.559-.173-4.079 1.533-4.686 4.754-2.671.116.077.444.048.453.01 1.553-6.336 8.302-1.939 11.224-5.429 1.35 4.609 5.564 6.634 11.292 4.368 5.621-2.228.106-6.22.569-9.315 1.648-.511 2.497.656 3.548 1.263 3.606 2.083 6.972.637 7.84-3.413.838-3.896 7.424-6.21 10.655-3.867 2.41 1.745 4.676 1.533 6.586-.993 1.128-1.485 1.311-3.664 3.5-4.706.935 3.057 1.514 6.374 5.429 7.02.607.097.732.743.029 1.35-3.568 3.038-.637 6.027.752 8.302 2.034 3.318 3.336-.221 4.705-1.513 1.321.694 1.013 5.457 3.905 1.571.116-.154.984-.029 1.206.222 5.612 6.268 3.953-.578 4.744-2.69.434-1.177.579-2.517.598-3.79.048-2.362 1.437-2.651 3.404-2.96 1.88-.299 2.97-.203 3.519 1.803.367 1.35.955 3.269 2.758 2.372 2.652-1.321 4.349.685 7.01 1.206-4.59 3.018-.617 5.236.492 7.463 1.331 2.661 2.816-.482 4.358-.511 2.382-.039 4.745-.579 7.117-.897-2.035 2.661-5.95.193-7.84 2.71-3.114 4.146-4.368 2.324-5.342-1.36-.202-.762-.665-1.446-1.996-1.707-1.658 6.094-1.697 12.314-1.716 18.726 11.503-5.679 19.931-14.078 20.712-20.471-1.552.27-1.977 2.584-3.915 2.189.733-3.269 4.6-3.047 6.094-5.467 3.838 3.008 7.194.79 10.733-.753.318-.144 2.507 1.225 2.102 3.52-.945 5.409.646 6.875 5.853 6.113.434-.067.906-.241 1.292-.144 5.178 1.321 6.73.009 5.448-5.178-.588-2.411-.097-5.506-3.201-6.924-.907-.414-.463-1.379.096-2.025 1.851-2.15 4.281-2.661 6.952-2.362 2.401.27 3.018 1.842 3.047 4.059.068 4.32 3.018-.376 4.156 1.466-1.417 2.372-1.677 5.159-1.407 8.032-.444-3.895-4.928-6.181-4.185-10.616.164-.974-.878-1.688-1.91-1.813-1.504-.183-2.854.338-3.982 1.331-1.176 1.041.154 1.533.501 2.295 1.418 3.047 2.131 6.306 1.804 9.623-.405 4.079-3.038 5.602-7.088 4.841-3.895-.733-8.071-.762-9.835-5.882-6.393 9.083-14.136 16.276-21.619 23.749-6.904 6.895-9.131 15.959-9.536 25.524-.965 22.632.376 45.215 1.041 68.058 2.449-.81 1.273-4.6 4.252-4.754.434 3.018-1.118 5.959-.279 9.296 1.552-2.401 1.716-5.429 4.281-7.348.704 6.557-6.808 13.374 1.601 19.247-2.797.838-3.963-1.389-5.844-2.267.145 1.939 1.302 2.778 2.411 3.607 2.131 1.6 3.548 1.861 3.963-1.582.395-3.317 1.263-6.585 2.15-9.816.637-2.304 1.659-4.493 4.388-5.959-.193 5.053-2.594 9.498-1.591 14.705 2.189-1.986 2.217-5.438 5.409-6.595-.839 5.168-2.025 10.308 1.697 14.897 2.266-1.639.839-5.255 4.301-6.624v7.743l.106-.096c-1.697-.097-.463-1.987-1.524-2.469-1.436.723-.048 3.635-2.372 3.404-1.745-.174-2.227-2.073-3.056-3.433-1.495-2.43-.502-5.246-1.36-9.295-1.822 4.233-3.105 7.203-4.898 11.359-.753-6.133 1.282-11.012.327-16.229-2.082 3.365-1.359 7.03-2.352 10.318-1.061 3.51-2.7 6.402-6.635 6.586-3.808.183-5.168-3.038-6.026-5.931-3.915-13.191-7.087-26.565-9.517-40.132-.56 5.631 1.292 10.983 2.111 16.45.859 5.709 1.717 11.417 2.488 17.135.762 5.689 2.719 11.031 5.583 17.492-4.079-2.613-5.139-5.612-5.486-8.418-2.228-18.263-8.033-36.044-7.608-54.645.144-6.229.964-12.449 1.446-18.687.328-5.275-.183-10.578 1.041-15.785.473-2.016.579-4.127.781-6.2.357-3.722-4.454-4.802-4.194-8.563-.424.887-.772 1.784-.492 2.382 3.018 6.364 2.623 13.065 2.334 19.815-.116 2.777-1.293 5.738.617 8.399-2.334.106-1.649 1.957-1.784 3.221-2.015 18.234-1.205 36.391 1.456 54.5l.067-.078c-2.96-2.497-1.34-6.412-3.172-9.825-.849 12.458 2.767 25.919-9.932 34.308 9.768-8.62 8.572-20.182 7.984-31.454-.598-11.542-1.456-23.046-1.359-34.627.096-11.118 3.731-21.782 3.847-32.91v9.835c1.331-6.325 1.88-12.612-.473-19.005-1.195 1.475-2.246 2.767-3.529 4.339.232.395 1.138-1.427 1.726-.723.569.684-.115 1.176-.501 1.62-1.302 1.523-3.009 2.459-4.956 2.68-1.331.155-2.16.386-1.698 1.939l-.163.241c-.29.549-.839 1.109-.82 1.639.656 12.844-2.7 25.524-1.475 38.387.819 8.65.8 17.328-.531 25.929-1.369 8.881-3.095 17.685-9.372 24.733l-.357-.308c.858-3.23 4.156-5.516 3.76-10.376-3.654 6.355-7.82 11.051-12.41 15.38l.242-.164c-3.636-.086-6.259 1.833-8.843 5.246v-6.885c-1.186 1.601-2.111 3.202-3.211 4.397-6.923-4.59-3.693-13.008-7.203-19.005 2.295 2.902 2.951 6.422 4.05 10.269.849-1.196 1.562-2.199 2.546-3.587 1.774 3.018-.695 5.843.675 9.305 3.143-6.586.79-12.844 1.263-20.076 2.96 5.815 2.391 11.311 4.108 16.962 2.526-6.866 2.14-13.587 4.05-21.079.732 5.033 1.301 8.919 1.87 12.805 3.153-13.008-3.259-27.018 4.918-39.409-4.281 12.583 1.581 24.868.906 37.384 2.999-3.76 2.527-8.186 2.556-12.535 0-.916-1.157-3.635 1.832-1.369.983.752.868-1.244.887-1.939.106-3.529.048-7.058.048-10.558 2.025-1.099 1.485 1.755 3.144 1.523 1.851-8.524 1.996-17.337 2.449-26.093.656-12.641 1.62-25.273.762-37.963-.492-7.318-2.18-14.348-5.661-20.664-5.12-9.295-10.134-18.542-12.786-28.908-.501-1.967-1.465-5.014-3.346-4.744-1.938.27-4.831 1.282-5.448 4.204-.029.154-.106.308-.173.443-1.717 3.462-5.294 2.845-8.062 4.06-2.102.926-.993 6.885-4.474 6.798-4.011-.096-8.524 2.825-12.487-1.475-.983-1.071-5.072-2.903-7.242.684-.925 1.533-2.613 1.784-4.281 1.591-1.196-.135-2.304-.26-2.565 1.302-.492 2.931-2.198 3.655-4.31 1.784-2.16-1.919-5.39-4.108-2.825-7.541 1.485-1.986 2.43-3.625 1.784-6.036-.116-.434-.049-1.282.164-1.369 5.554-2.256 3.027-7.328 3.982-11.311-2.816.704-3.626 3.52-5.593 5.005-1.167.887-2.545 2.719-4.03.867-1.129-1.417-.483-3.346 1.108-4.127 3.723-1.822 6.471-4.098 6.075-8.726-.038-.395.357-1.148.656-1.215 4.812-.974 6.846-6.895 12.198-6.846 2.459.019 3.703-1.505 4.734-3.452.714-1.35 1.158-3.154 3.337-2.816zm39.062 33.797c-1.62-.935-.482-3.644-2.806-4.377-.125 3.297 1.263 5.949 2.411 8.707 1.571 3.78 4.58 6.798 5.592 10.848-3.201-2.285-3.799-6.596-7.174-8.852 2.903 5.381 5.178 10.983 7.097 16.74.232.703.81 1.571 1.765 1.215.945-.348.655-1.273.549-2.054-.347-2.479-2.449-4.407-2.217-7.068.675-2.141-.28-3.915-1.129-5.805-1.08-2.401-2.854-4.609-2.468-7.502-.897-3.414.453-6.875.627-10.916-3.896 3.028-2.276 6.181-2.237 9.074zm17.376 26.942c1.668.964 1.138 3.298 2.844 4.802.213-6.104 2.845-11.07 5.159-17.164-3.481 3.491-4.242 7.463-6.759 10.549-1.051-2.584.713-4.599.405-6.624-3.703 2.304-3.144 5.371-1.485 8.601-.839-.01-2.218-1.321-1.591 1.244 1.157 4.725 3.201 9.662-.637 14.223 1.35-5.159 1.35-10.173-2.044-16.248.367 4.811 1.485 8.495-.617 11.561-.839 1.225-2.767 1.774-1.813 3.732 1.138 2.333 3.076.598 4.648.742-.116 2.286-2.883 1.206-3.732 2.614 1.639 2.227 2.951 1.022 4.002-.155 2.681-2.979 3.973-6.431 3.114-10.501-.52-2.449-1.002-4.917-1.504-7.376zm-4.561 21.484c5.381 1.022 8.322-.772 9.498-5.988 2.198-9.749 4.137-19.517 9.093-28.408.791-1.407 1.89-3.259.916-5.332-3.616 8.119-7.097 16.103-10.106 24.357-1.957 5.371-1.668 12.622-9.401 15.361zm21.677 73.129c-2.141-17.077-4.986-34.144-3.751-51.511-2.97 17.444-1.158 34.569 3.751 51.511zm-24.686-114.274c1.437 4.136 3.424 7.964 6.461 11.821 1.408-2.834 2.391-5.332 3.809-7.55 1.803-2.796-.646-4.541-1.987-4.329-2.796.434-5.486-1.726-8.292.058zm-.607 103.687c-1.659 10.279-4.889 20.037-8.852 29.583 7.367-8.572 10.501-18.408 8.852-29.583zm14.744-42.129c-3.211 14.792-3.105 29.67-1.09 44.597-.463-14.888-1.051-29.776 1.09-44.597zm11.985 59.148c.849 5.255 1.977 10.356 4.069 15.187.647 1.485 1.476 2.825 2.806 3.809 1.331.983 2.382.308 3.395-.588.887-.782 1.07-1.514-.077-2.238-6.008-3.779-7.907-10.086-10.202-16.18zm-40.354 13.972c2.777-9.209.887-18.147-1.022-27.077-.068 9.065 1.388 18.1 1.022 27.077zm38.609-98.692c2.198-9.546 9.864-15.072 16.209-21.59-7.405 5.651-15.833 10.51-16.209 21.59zm-3.086 5.506c-2.43 7.743-3.413 15.611-2.507 23.663.839-7.888 1.668-15.776 2.507-23.663zm-40.161 87.044c-1.215 5.573-2.189 10.047-3.163 14.531 5.178-3.616 4.117-8.514 3.163-14.531zm37.018-139.124c-.82 5.67-2.469 11.089-4.513 16.421 3.52-4.946 5.313-10.365 4.513-16.421zm7.328 32.042c-1.118-.173-2.198-.347-3.278-.511-.135 2.826-1.543 5.506-.926 9.093 1.552-3.182 2.854-5.833 4.195-8.582zm-5.689-5.968c-3.24 3.567-.617 7.251-1.388 10.606 1.976-3.23 2.063-6.653 1.388-10.606z"/><path d="m50.8867 311.372c.8099-3.163 1.6296-6.325 2.7095-10.559.8968 3.944 1.3693 6.914 2.2757 9.749 1.3692 4.301 4.4163 2.893 7.7719 2.314-1.7067 1.505-3.4424 2.961-5.1009 4.523-1.3886 1.311-2.8928 2.584-3.9728 4.136-4.0017 5.786-2.8253 8.833 4.1753 10.521-1.8225 4.3-3.7896 8.504-5.3999 12.834-1.4271 3.828-1.8514 7.685 2.7867 9.864 1.9961.936 1.3982 1.987.6364 3.414-.8967 1.687-1.6006 3.49-2.2081 5.303-1.0125 2.999-1.5718 6.239 1.2632 8.437 3.0374 2.353 6.5569 1.601 9.4304-.414 2.7771-1.938 4.6189-4.339 8.013-.289 2.295 2.738 6.6824.771 8.4952-3.067.7714-1.62 1.1089-3.346 1.1185-5.13 0-1.735 0-3.481 0-5.457 1.5043.347 2.5746.655 3.6642.838 7.5502 1.293 10.9058-.973 12.0436-8.475.4436-2.893.5497-4.629 4.4354-3.047 4.532 1.841 7.28-.444 9.739-6.615.502-1.263.357-3.308 1.948-3.549 1.495-.231 2.256 1.543 3.115 2.642 5.602 7.136 8.225 6.875 12.024-1.205.675-1.437 1.437-2.835 2.189-4.32 6.576 6.229 8.505 6.162 16.894-.665-.203 2.69-.695 5.12-.482 7.482.337 3.8 2.603 4.61 5.862 2.855 2.989-1.611 6.075.8 9.286.366 2.903-.395 5.959.521 9.373-.193-4.687-9.054-9.411-17.752-13.751-26.633-7.453-15.235-16.431-29.786-20.943-46.361-.801-2.932-2.421-5.593-4.33-8.004-1.793-2.275-3.626-4.368-7.039-4.04-1.755.174-3.462-.405-3.857-3.298 5.014 4.33 6.547-1.899 9.768-2.449 4.744-.81 4.368-5.303 6.46-8.177.348.617.589.868.608 1.128.193 2.797-3.037 4.986-1.88 7.734 3.085 7.318 5.399 15.013 10.549 22.718-.319-7.367 1.07-13.818-4.031-19.613 3.365 2.237 5.265 1.272 6.721-1.63 1.186-2.362 2.468-3.491 5.65-1.938 3.163 1.533 4.475-1.717 5.767-4.156.675 2.777-.338 5.053-3.105 5.477-3.375.511-3.414 2.517-3.52 5.053-.212 5.129-.598 10.25-.983 15.37-.357 4.783.762 9.199 2.979 13.393l-.106-.115c2.729 1.745 4.282 4.281 4.696 7.434.222 1.678 1.379 3.587-1.726 4.503-1.851.54-1.311 2.893-.723 4.658 4.06-.704 3.683-3.809 3.896-6.721 3.133 4.821 3.644 9.652-.299 15.447 5.101-1.591 8.62 4.648 13.711.367-5.264 4.985-.588 8.196 1.64 11.542 2.613 3.934 4.03 8.746 8.071 11.822 1.186-1.36.462-3.124 1.195-4.137 1.321-1.832-2.864-4.146.212-5.004 2.835-.791 6.114-2.99 9.045.819 2.719 3.529 5.313.974 7.811-1.176-.415 2.729-2.228 3.731-4.513 4.175-1.09.212-2.179.183-2.449 1.736-.28 1.6 1.031 1.678 1.774 2.401 2.546 2.478 5.197 3.664 8.9 2.478 2.006-.646 4.368-.26 5.458 2.517-3.173-1.987-6.268-1.543-9.382-.213-.897.386-1.871.55-2.749-.077-6.19-4.406-9.247-4.802-14.801-.675-6.2 4.609-13.133 5.371-20.413 5.13-3.838-.125-7.715-.713-11.273 1.369-.173-.27-.395-.781-.52-.761-5.159.829-8.438-.521-8.881-6.49-.164-2.198-2.015-.472-2.98-.125-4.165 1.514-7.878 1.089-11.204-2.507-2.189 3.413-2.691 8.36-7.473 9.17-4.889.829-6.5-3.886-9.682-6.702-1.533 3.626-2.777 8.274-6.672 8.621-5.815.511-8.6594 2.536-10.5204 8.263-1.2825 3.935-6.2581 4.831-10.4333 3.954-2.835-.588-3.3557.251-3.1628 2.748.2025 2.623-.4918 5.101-1.9382 7.309-2.642 4.069-7.0294 5.149-10.7225 2.112-1.9671-1.61-2.9314-1.35-4.6478.01-1.3403 1.06-3.0567 1.812-4.7249 2.256-6.4316 1.726-10.8865-2.199-9.9801-8.756.2411-1.726.7232-3.481 1.4657-5.052 1.2439-2.623 1.8803-4.571-1.2728-6.663-2.7385-1.813-2.1889-5.246-1.2632-7.994 1.215-3.626 2.9121-7.097 4.4453-10.617.5207-1.195 1.4078-2.352-.7618-2.854-5.2842-1.215-4.7249-4.763-3.346-8.591.3279-.897.5786-1.967 1.2246-2.594 4.0306-3.896 5.0045-7.849-.0578-12.14-.945-.068-.5304 2.266-2.0636 2.198zm92.9063-38.484c3.529 11.099 7.348 21.966 13.828 32.091 1.06-4.156 3.442-7.907-1.591-10.761-1.235-.704-1.389-2.671-1.215-4.648.241-2.835-2.045-5.207-3.626-7.589-3.375 2.884-2.748-1.07-3.365-2.179-1.312-2.343-2.025-5.004-4.031-6.914zm36.989 69.379c.357-.27.723-.53 1.08-.8-4.995-8.505-9.999-17.01-14.994-25.515 1.774 10.443 8.688 17.887 13.914 26.315zm-18.726-28.841c1.89-3.028 3.626-5.544 3.076-9.045-4.178 2.417-5.204 5.432-3.076 9.045zm-10.047-46.718c.675-4.05.675-8.206 3.249-12.623-6.576 3.51-4.098 8.264-3.249 12.623zm-4.407 21.657c-1.726-4.658-3.452-9.315-5.168-13.963.684 5.043 1.494 10.048 5.168 13.963z"/><path d="m196.644 21.1198c-1.533.2411-3.066.4822-5.968.9354 4.985-2.8446 5.39-5.3227 1.485-8.042-1.119-.781-.357-1.9381-.039-3.047 1.167-4.12706-.955-6.54735-5.197-5.72773-2.71.5207-4.822.44356-7.049-1.57175-4.262-3.857038-7.907-2.6035-9.382 3.11457-.675 2.61314-.926 4.42591-4.6 3.10492-8.466-3.04707-10.886-1.03176-10.8 8.24439.01 1.2246 0 2.4493 0 4.6574-4.078-3.8377-7.743-3.8474-11.841-1.6585-2.97 1.5814-5.236-.5304-6.962-2.7482-2.7-3.4713-5.284-3.3267-8.524-.6074-8.514 7.1741-8.572 7.0969-.067 14.7339.704.6267 1.301 1.3789 2.401 2.5553-4.349 1.4271-8.727 2.6227-7.088 8.6012.444 1.6296-1.456 1.2824-2.401.7135-2.468-1.4849-4.792-3.2013-7.28-4.6574-4.368-2.5553-6.991-1.8417-9.401 2.4878-.463.8293-.579 1.6586-1.89 1.7164-4.2334.1929-6.3933 2.9603-5.4001 7.097.4436 1.8321 1.3885 3.587 2.3624 5.2263.9932 1.6874 1.5047 2.8445-.5207 4.3681-2.4203 1.8224-.7907 4.3777-.4725 6.6823.2218 1.6103 1.2536 3.7606-.9353 4.6863-2.131.9064-3.0278-1.1764-4.127-2.4878-.405-.4918-.7521-1.0414-1.1475-1.5524-1.0607-1.3886-1.9864-3.1821-4.127-2.6903-2.3335.5303-2.5071 2.6903-2.8639 4.5609-.376 1.996-.405 4.0885-1.7067 5.8917-1.6682-1.5525-3.1532-3.1821-4.8792-4.4839-3.5581-2.671-7.1934-2.9024-10.1826.81-1.5717 1.9575-2.6035 1.9093-4.6284.5207-5.3517-3.6738-6.3545-3.2785-8.8423 2.7482-.5882 1.4367-1.6875 1.9285-2.9892 1.9863-1.2632.0579-2.5553-.106-3.8088-.3182-10.3369-1.7838-14.5315 1.2246-16.0936 11.5712-.1253.8582.3568 2.1021-1.0896 2.2274-5.5348.4918-2.4781 3.6063-1.2535 5.2167 2.7288 3.5677 6.4798 3.857 10.3079 1.6778 2.6132-1.485 5.0817-3.211 8.2252-5.2167-.1447 4.3392-.2314 8.0328 4.0884 9.7098 3.7703 1.466 6.8077-.665 10.3948-1.899.6267 4.05-1.996 9.276 3.6545 11.214 4.5899 1.572 8.312-1.36 12.6704-3.375.27 3.298.3954 6.538 2.6324 8.92 2.9218 3.105 5.8435 1.012 8.7363-.511 1.2342 3.886 2.4106 7.569 3.5966 11.243.0097-.01.0675-.068.0675-.068-1.5235-1.408-2.9699-2.873-3.8474-5.66-1.9478 5.583-4.9177 8.013-10.3561 5.275-1.6296-.82-3.5003.25-5.0431 1.06-2.8831 1.533-5.7566 1.823-8.7941.608-4.0788-1.63-6.3255.405-7.9455 3.905-3.2592 7.058-3.3074 7.116-10.7033 5.496-2.9506-.646-4.4259.82-4.8502 3.24-1.0028 5.738-4.2524 8.206-9.9994 8.033-1.6971-.049-3.5581.694-4.7827 2.015-1.9575 2.112-3.7606 4.31-7.5309 3.587 4.3681 6.104 6.5859 6.017 14.4061.067 1.3596 5.043-4.5996 11.514 2.9602 15.043-4.9659 5.014-3.9824 8.206 3.1242 10.154.7136.192 1.7454-.193 1.8129.954.0482.887-.6557 1.379-1.4175 1.755-3.076 1.504-4.0306 4.339-4.7345 7.406-.8293 3.587-.3375 6.026 4.7345 5.187-1.3403 2.228-2.3817 3.973-3.4328 5.718-1.0703 1.765-1.5621 3.694-.2121 5.4 1.4174 1.794 3.5003 2.218 5.6602 1.437 1.5042-.54 2.9313-1.282 4.397-1.919.8968-.386 1.6103-.704 2.3625.521 4.8309 7.859 5.448 7.926 13.1428 2.198.2411-.183.5786-.241 1.2246-.511.4533 1.254 1.0897 2.469 1.3307 3.771.6461 3.461-.5592 5.39-4.397 4.628-2.0346-.405-4.0306-1.012-6.0652-1.427-1.08-.222-2.9506-.665-3.1821-.27-2.7963 4.869-5.747 1.813-8.7651.434-2.0924-.964-3.7895-.077-4.9177 1.764-1.6393 2.652-3.9342 3.472-6.9523 3.096-3.5774-.454-6.3352 1.359-8.0902 4.194-1.2535 2.035-2.3431 2.237-4.5899 1.832-4.7441-.848-8.55296 1.832-8.36976 6.201.12536 2.941-1.16675 3.394-3.23027 4.117-5.32272 1.851-5.978416 3.307-4.12703 8.563.91604 2.593 1.50424 5.081.60748 7.935-1.26318 4.021.14464 5.661 4.29096 5.931 3.35562.221 6.29662-1.032 9.14122-2.546 1.5428-.82 2.7867-1.196 2.9699 1.099.2989 3.819.5593 7.57 5.6409 7.975 3.0182.241 6.5474-1.312 10.173-4.716-.5979 2.43-.2314 4.581-1.7936 6.278-.1157-2.016-1.1571-1.572-2.5552-1.186-8.9195 2.439-11.118 1.138-13.3261-7.685-3.5196 1.012-6.9041 2.671-10.72261 2.352-4.68631-.395-6.62447-2.873-5.45771-7.415.75212-2.931.64605-5.554-.607488-8.379-2.063522-4.648-.511059-7.984 4.377748-9.826 1.65852-.627 3.07599-.704 3.35562-3.192.61713-5.429 3.33634-7.415 8.82304-6.991 1.6488.126 3.1627.579 4.1559-1.263 2.2178-4.117 6.1809-4.802 10.2887-4.966 2.0056-.077 3.7027-.183 4.8599-2.246 1.9092-3.395 4.7441-3.366 7.8105-1.592 1.6778.974 2.9217 1.823 4.9081-.202 2.4395-2.478-.5593-3.259-.8679-4.792-.6171-3.096-2.6421-1.071-4.0113-.656-2.9314.877-5.8434 1.176-8.1287-1.119-2.2468-2.256-1.5043-5.101-.4147-7.665.6847-1.62.405-2.334-.7135-3.906-2.9121-4.088-.8871-8.331 1.4753-12.043 1.2632-1.987 1.8032-2.97-.8293-4.176-2.2756-1.041-4.127-3.384-3.3267-5.843 1.6296-5.014-1.8224-9.537-.2025-14.763-4.3391 1.177-8.0997 1.842-11.6289-.415-1.7261-1.108-2.9217-2.622-2.6035-4.782.3953-2.719 2.3335-.058 3.3942-.868.7424-.569 1.9285-.665 2.507-1.331 3.0567-3.548 6.962-4.85 11.5037-4.956 3.3652-.068 3.8377-2.951 4.6959-5.313 2.16-5.921 2.8349-6.441 8.688-4.609 3.6546 1.147 5.1974-.145 6.3738-3.52 2.4395-7.029 4.7345-8.148 11.9472-6.345 2.4781.627 4.7056.376 6.933-.887 1.6489-.935 3.346-1.687 5.4481-1.147 6.3737 1.62 7.0873 1.07 8.4662-5.834-7.1548.434-9.4112-1.398-10.7612-8.746-12.7379 3.867-16.0838 2.42-17.0867-7.666-3.2013.27-6.4605 1.321-9.6522-.087-3.211-1.417-4.8695-3.8855-4.7731-7.5304-2.8157 1.4174-5.1492 2.8735-7.6659 3.8088-4.7924 1.7746-9.4305.0193-11.4072-4.3199-1.1185-2.4589-2.3817-5.3516 1.89-6.3641 1.6585-.3954 1.5524-1.7935 1.8224-3.0278 2.0442-9.3919 7.5212-13.0272 16.7974-10.6262 3.5967.9257 5.1299.3472 6.152-3.3749 1.1089-4.0306 4.3199-4.9948 7.9359-2.6613 2.5071 1.6199 3.9052 2.5746 7.0969.1157 4.6478-3.5774 9.6716-1.0414 13.8565 2.4878 3.7027-10.7322 4.8888-10.9155 13.625-2.1792-1.7068-5.3421 2.2853-10.3466-.0868-15.9971-2.5264-5.9977.8582-7.7527 5.1393-12.2172 7.869-8.2059 13.317-2.565 20.009 1.3692-.078-4.4259 1.812-7.2609 5.727-8.5337-1.176-2.2853-3.355-3.2206-4.869-4.8406-3.337-3.5581-3.173-6.7691.598-9.8644 1.735-1.4271 3.529-2.7963 5.38-4.0595 3.067-2.0828 6.008-2.1021 8.544.916 2.622 3.1243 5.284 4.9178 9.411 2.0057 2.179-1.5332 4.908-.1639 7.617.4725.049-1.1185.097-2.0442.135-2.9603.328-7.96478 3.713-10.59721 11.157-8.07084 3.037 1.03175 3.645.16392 4.484-2.46851 1.851-5.795209 6.431-7.18374 11.137-3.45206 2.179 1.73567 4.156 2.57458 6.991 1.77424 2.709-.76176 6.287.23143 6.055 2.96029-.453 5.32268 3.53 9.30508 3.182 14.34818z"/><path d="m416.342 301.749c.347-3.838 1.475-6.982 6.672-6.827-2.574-3.404-6.142-3.925-9.372-4.484-3.057-.54-4.851-1.909-6.181-4.561-1.514-3.009-3.346-5.843-5.815-8.216-1.793-1.726-3.818-3.114-6.403-2.719-2.622.396-4.686-.501-6.72-1.928-2.527-1.775-5.092-3.134-7.637 1.099-.55-3.819 1.359-4.252 3.317-4.291 3.972-.087 7.984.906 11.87-.8.752-.328 1.61.038 2.15.713 2.98 3.742 6.653 4.031 10.752 2.199 1.88-.849 2.748.154 3.876 1.571 2.97 3.723 5.429 3.819 8.871.753 3.25-2.893 3.346-5.497.029-8.872-1.813-1.841-2.613-3.683-1.07-5.939 1.967-2.884 4.667-5.439 2.844-9.518-2.381-5.303-4.657-10.703-10.462-13.172-3.124-1.33-6.306-1.996-4.426-6.807.8-2.044-1.34-3.346-3.471-3.693-3.25-.521-4.822-2.025-3.906-5.622.926-3.635-1.754-4.571-4.464-4.619-4.195-.077-4.783-1.764-2.671-4.946 1.591-2.392 2.035-4.619.048-7.02-2.015-2.43-4.127-1.909-6.374-.453-2.439 1.581-2.709-.145-2.748-1.919-.077-3.279-.019-6.577-5.149-7.261 4.918-3.751 8.804-7.329 3.52-13.018 3.153-.771 5.081 1.08 7.299 1.736 4.918 1.437 5.863.82 5.815-4.474 2.015.366 2.786 4.291 5.361 2.227 2.189-1.745 1.813-4.406 1.128-6.701-.8-2.691-.202-3.925 2.575-4.793 2.825-.887 3.818-2.497.974-5.149-3.925-3.645-3.462-5.409 1.629-7.242 2.768-.993 3.713-2.941 3.732-5.505.029-3.057-1.495-5.217-4.465-6.114-2.941-.887-5.949-1.089-2.892-5.583 1.889-2.777-.675-5.265-4.735-4.599-2.555.424-4.32.713-4.686-2.633-.183-1.658-1.505-1.948-2.883-.974-.781.55-1.514 1.196-2.238 1.832-4.782 4.224-4.84 4.243-6.826-1.909-1.177-3.645-4.06-4.773-7.155-4.002-2.642.666-6.924-1.031-7.107 4.764-.241 7.386-9.806 15.409-17.096 15.226-1.495-.039-2.112.135-2.691 1.735-2.063 5.68-5.264 7.435-11.098 6.21-2.199-.463-3.23-.868-3.443 2.285-.221 3.385-4.049 2.7-6.489 3.539 1.032 2.343 1.996 4.523 2.96 6.711l.068-.067c-3.018-1.109-3.529-4.262-5.207-6.47-.733-.965-.106-2.054 1.099-1.929 6.509.637 7.338-2.748 4.947-8.794 4.185 2.748 7.579 4.638 11.58 3.134 4.195-1.581 5.227-4.86 3.964-9.112 8.475 2.767 18.793-3.501 20.133-12.121.502-3.23-.434-7.434-3.047-8.563-4.059-1.755-3.201-6.123-6.393-7.907 1.958-1.677 2.449 1.476 3.954.56.125-2.17-1.63-4.224-.511-6.741 2.642.097 4.821 5.015 7.984 1.129.598.52 1.234 1.002 1.793 1.552 2.073 2.083 4.619 3.124 6.644.598 1.813-2.247.964-4.889-1.283-6.817-.838-.714-1.754-1.331-2.699-2.035 1.485-2.015 3.712-1.109 5.419-1.822 1.62-.675 2.941-1.447 2.757-3.4042-.163-1.8032-1.61-2.295-3.095-2.4396-1.263-.1254-2.565-.0964-3.809.0771-2.054.2989-4.358 1.2343-3.471-2.536.241-1.0317-.636-2.0924-1.504-2.2274-4.291-.6847-3.298-3.1628-2.247-5.8434.405-1.0318.617-2.1696.723-3.2785.164-1.8032-.058-3.7028-1.668-4.7249-1.388-.8871-2.738.2893-4.011.9353-1.36.6846-2.363 2.266-4.224 1.755.212-3.8892-2.6-6.5281-8.437-7.9166-.636-.8003.058-1.4946.376-2.0828.781-1.4078.974-2.7096-.125-4.0017-1.244-1.456-2.883-1.4271-4.407-.7618-2.468 1.0704-4.416 2.3914-6.47-1.1956-1.196-2.0925-4.195-.9161-6.065.4435-2.112 1.5332-3.578 2.0732-6.104.135-3.693-2.8253-8.592-1.5235-11.195 2.401-1.784 2.7-3.337 3.9728-5.651.5593-.704-1.0414-1.928-2.5746-2.989-2.1503-5.207 2.0635-8.813-2.1792-13.239-3.0181-4.764-.8968-6.847-4.0017-5.198-7.637.28 3.8474 2.43 5.8338 6.21 5.9399 1.89.0482 3.5.376 4.503 2.1117.772 1.3307 1.813 1.456 3.25 1.186 3.452-.6557 6.682-.511 9.025 2.7867 1.186 1.6586 1.929.4436 2.864-.6557 3.925-4.6477 7.753-5.6795 13.076-3.0277 2.073 1.0317 3.201.6942 4.994-.3665 2.691-1.5813 5.902-2.4877 8.226.5979 1.388 1.8417 2.458.5882 3.712.3471 4.841-.9064 7.222.5979 7.386 5.2456.068 2.0732.964 2.2949 2.478 2.5746 3.192.5882 5.159 2.4299 5.4 5.7855 1.35.3182 2.054-.7617 3.038-1.1281 4.252-1.6104 6.479-.1447 6.518 4.4645.01 1.591.058 3.3267-.521 4.7442-.858 2.131-.356 3.1434 1.649 4.0595.907.4146 1.91 1.5332 2.083 2.4685.424 2.3431 1.707 2.536 3.722 2.4396 2.71-.1254 5.824-.2411 6.499 3.3749.694 3.7315-2.179 4.8985-5.081 5.8915.626 1.591 1.34 3.028 1.745 4.551.617 2.295.366 4.581-1.543 6.191-1.967 1.678-4.436 1.552-6.248.048-2.691-2.227-5.853-.868-8.602-1.938-2.574 6.316 4.166 8.727 5.458 13.374.058.193 1.495.077 2.266-.019 6.936-.849 11.758 1.832 14.464 8.042 2.228-.887 2.893-3.365 4.754-4.6 2.189-1.446 4.59-1.928 5.544.897.888 2.642 2.266 2.719 4.523 2.7 4.831-.048 6.325 1.832 5.062 6.634-.588 2.237.068 2.7 1.948 3.269 3.587 1.08 5.477 3.626 5.718 7.463.241 3.838-1.639 5.854-5.091 7.117-2.951 1.08-3.018 2.941-.685 5.004 3.336 2.961 2.835 5.477-1.032 7.425-1.369.694-2.111 1.311-2.102 3.192.058 8.717-4.889 12.651-13.567 11.069-1.09-.202-2.15-.53-3.5-.877-.039 3.076-.511 5.853-2.372 8.254-1.832 2.372 1.707 3.732 1.282 6.056-.646 3.558 2.006 2.468 3.944 2.545 6.403.241 8.177 4.841 4.59 12.594 5.535.289 8.572 2.941 8.138 8.726-.154 2.044 1.524 2.064 2.951 2.353 2.97.607 4.58 2.555 4.156 5.506-.405 2.864 1.109 3.606 3.269 4.763 6.634 3.549 9.903 9.788 11.976 16.682.694 2.314-.492 4.436-1.948 6.2-2.16 2.623-2.488 4.821.174 7.512 2.998 3.018 2.487 6.759-.81 10.105-3.047 3.086-7.444 3.925-9.768.878-3.636-4.764-7.618-.386-12.497-2.083 3.886 3.934 6.133 7.376 7.82 11.166 1.196 2.681 3.471 3.529 6.171 3.905 4.233.579 8.139 1.967 10.704 5.68.761 1.109 1.089 3.249-.888 2.372-5.12-2.266-6.132 1.861-8.254 4.464z"/><path d="m362.372 388.85c1.456.589 2.758 1.582 4.522 1.215 2.131-.434 3.385.348 4.484 2.488 2.141 4.147 6.904 5.41 10.346 8.177 1.186.945 3.289.068 3.944-1.649.588-1.533-.713-2.353-1.986-2.738-1.446-.444-2.237-.425-1.784-2.729.579-2.98-3.047-3.626-4.985-5.091-2.064-1.563-3.983-2.517-.984-5.285 2.517-2.314 1.032-4.937-1.446-6.325-4.098-2.295-6.519-4.561-2.199-8.881 1.35-1.35.376-2.825-.328-4.378-1.726-3.828-4.098-7.743 1.138-11.166 2.016-1.321.454-3.288-.935-4.368-2.199-1.697-3.973-3.365-4.532-6.403-.444-2.41-3.423-2.593-5.236-3.828-.781-.53-1.697-1.176-1.495-2.246.174-.926 1.206-.926 1.967-1.061 1.437-.241 3.568-.482 3.202-2.131-1.07-4.86 3.028-3.076 4.85-4.166 1.707-1.022 2.237.058 2.584 1.485.569 2.334.993 4.725 1.823 6.962.993 2.71 2.526 5.091 6.046 3.722 1.851-.723 2.642.569 3.635 1.524 2.006 1.919 4.243 3.471 6.634.974 2.314-2.43 2.912-5.641.405-8.168-1.668-1.677-1.639-2.622-.993-4.773 1.842-6.084.366-11.696-3.876-16.489-.531-.597-1.244-1.031-1.755-1.639-1.611-1.899-3.346-4.252-.762-6.171 2.362-1.745 4.551-.097 5.901 2.237 1.659 2.854 3.761 5.101 6.933 6.345 3.568 1.398 5.419.395 6.075-3.423 1.176-6.904 1.253-7.001 7.936-6.876 2.247.039 3.5-1.272 4.966-2.458-.386 4.165-3.356 4.32-6.335 3.702-3.395-.704-4.831.617-5.121 3.79-.241 2.623.55 6.094-2.931 6.856-4.108.897-7.955-.453-10.79-3.761-1.244-1.446-2.141-3.201-3.356-4.667-.598-.723-1.62-1.157-2.574-.414-1.148.896-.261 1.793.26 2.458 1.562 2.016 3.423 3.819 4.86 5.911 1.552 2.257 2.536 4.899 2.671 7.637.241 4.918-.887 9.807 1.292 14.753 1.099 2.488-.183 5.709-3.192 7.31-2.767 1.475-4.908.183-6.942-1.582-.839-.723-1.591-1.736-2.864-1.475-6.171 1.273-7.116-3.24-8.418-7.464-.502-1.619.193-4.204-2.199-4.454-1.967-.203-3.278 1.137-3.683 3.471-.203 1.167-1.794 2.083-2.768 3.114 5.034 2.864 6.268 8.872 10.414 12.517 1.071.945 1.158 3.51-.366 4.348-4.358 2.392-2.845 5.641-1.369 8.553 1.485 2.932 1.706 5.439-.444 7.965-1.774 2.083-.771 3.144 1.138 4.474 5.795 4.031 6.084 5.68 2.266 11.745 5.901 1.157 6.972 7.068 10.617 10.549 1.195 1.138.761 2.768-.29 3.944-1.562 1.765-3.905 2.43-5.612 1.061-3.654-2.922-9.064-3.771-10.819-9.016-.549-1.639-2.111-1.697-3.616-1.697-1.726 0-3.712.308-3.924-2.324z"/><path d="m209.16 436.572c4.899 3.837 3.549 8.89 2.315 13.634-1.427 5.477-2.575 10.925-2.218 16.605.038.598.154 1.186.704 1.813.569-11.244 6.47-21.658 4.773-33.248 2.247 3.973 1.957 8.37.742 12.236-5.091 16.258-3.442 32.699-2.266 49.197.714 9.98.425 19.922-3.857 29.275-1.639 3.577-3.886 6.518-8.331 6.933 7.28-4.715 9.662-11.764 9.421-20.076-.54 1.639-1.013 3.308-1.62 4.927-3.693 9.913-11.774 16.21-20.462 15.911-.434-.02-1.726 1.003-1.253-.685.115-.405.607-.713.925-1.07l-.241.164c3.722-.222 5.844-3.202 8.65-4.995l.357.308c-.348.801-.685 1.611-1.321 3.076 6.364-2.68 9.382-7.424 11.455-12.834 3.683-9.652 3.703-19.709 2.632-29.815-1.465-13.856-3.249-27.713 1.032-41.424 1.09-3.501-.463-6.557-1.601-9.691z"/><path d="m288.114 387.356c2.015 2.43 1.832 5.67 2.922 8.543 2.825-.607 3.471-3.317 5.303-4.783 2.334 1.379.839 3.163.26 4.542-1.099 2.633-1.427 5.853.743 7.078 2.845 1.61 5.429 2.902 6.374 6.229 3.134-1.726 4.676.395 6.277 2.526.097.135.868-.096 1.215-.318 3.201-2.102 4.918-9.604 2.864-12.854-.444-.694-.868-1.214-.781-2.102.656-6.354.627-6.605-.588-9.922 6.634-.762 8.678.511 10.433 6.625.752 2.613 1.128 5.371 2.17 7.858.819 1.939 1.34 4.928 5.052 3.125 1.89-.916 2.71 1.243 3.211 2.728 1.071 3.173 2.912 5.265 6.451 5.583 1.745.155 2.912 1.177 3.433 2.913.231.761.482 1.562.926 2.208.752 1.089 1.938 2.256 3.182 1.436 3.095-2.034 6.316-4.088 8.774-6.769 1.09-1.186-1.166-2.661-2.661-3.249-1.899-.752-2.7-1.562-1.832-3.867.945-2.517-.82-4.291-2.941-5.38-2.42-1.244-5.005-2.16-7.434-3.385-2.266-1.147-4.61-2.382-3.925-6.846 2.237 4.561 5.641 5.949 9.315 6.991 1.051.299 1.919 1.186 2.96 1.581 2.372.897 3.221 4.59 5.506 4.195 1.389-.242 2.092-3.269 4.918-3.298 1.726-.02 1.157-2.286 1.157-3.674 1.928 2.517 1.639 4.522-1.601 5.323-2.449.597-2.922 3.683-5.602 4.001-.656.077-.704 1.447 0 2.44 4.136 5.853 4.088 5.863-1.63 10.279-1.003.781-1.832 1.88-2.941 2.42-3.028 1.456-5.612.897-7.251-2.285-.212-.415-.106-1.157-.405-1.35-4.33-2.719-8.109-6.258-12.188-9.112-2.681-1.871-5.053-3.086-6.114-6.278-1.205-3.625-1.533-7.579-3.847-10.78-.945-1.311-2.285-2.845-3.934-2.064-1.533.724.366 2.218.135 3.404-1.148 5.959 1.899 12.169-1.379 18.08-2.604 4.706-3.095 5.024-7.3 1.591-.684-.559-1.157-1.051-1.996-.347-.597.501-1.427 1.234-2.015.338-1.61-2.45-3.78-4.012-6.19-5.67-2.459-1.697-2.932-5.178-2.247-8.91-4.378 2.806-6.374 1.986-5.93-3.144.163-1.841-.54-3.76-.839-5.65z"/><path d="m285.366 21.1392c-.733-.2796-1.514-.9064-2.179-.8003-4.609.7907-8.081.4243-10.742-4.6092-1.36-2.5842-4.397.4339-6.721 2.4589-1.861-6.017-5.67-6.6052-10.732-4.1753-2.498 1.1957-4.985.6557-6.933-1.5814-2.681-3.07595-5.525-2.90239-8.206-.0675-1.601 1.6971-2.999 2.6614-5.275 1.0125-1.224-.8775-2.931-.7328-3.924.5207-1.128 1.4078-.299 2.7192.935 3.6931 2.314 1.8321 2.7 3.9439.714 6.1713-1.504 1.6875-.878 3.6063-.993 5.4674-2.266-1.7357-2.363-3.8185-.502-5.7663 1.794-1.8803 1.447-3.2303-.347-4.7731-1.813-1.5621-2.189-3.6256-.955-5.6409 1.196-1.9575 3.346-2.1407 5.13-1.2825 2.064 1.0028 3.125.1157 4.6-1.0703 3.423-2.7771 6.923-3.3653 10.038.5785 2.034 2.5746 4.493 1.8707 6.981.9739 3.327-1.1957 6.094.4532 9.161 1.0607 5.052.9932 9.15 2.0539 13.075 5.5831 1.282 1.1475 5.245-1.0221 6.856 2.266z"/><path d="m299.801 526.325c3.298-3.751 5.159-8.322 9.401-11.764-.607 7.714-9.526 9.961-10.124 17.135-.222-1.07-.444-2.141-.666-3.211.02 5.255-7.868 3.278-7.405 9.257-1.36-1.851-.453-2.999-.424-4.146.019-.945 1.62-3.414-1.64-1.726-1.282.665-1.07-1.042-1.051-1.852.068-2.227.222-4.445.347-6.721 2.17.993-.588 3.799 1.804 4.687 1.909.713 3.837 2.188 5.64 2.025.945-.087 1.013-3.076 1.206-4.841.251-2.276-.424-4.407-.868-7.001 3.182 2.016 1.938 5.68 3.77 8.139z"/><path d="m313.33 528.282c-.666-1.407-1.341-2.806-2.237-4.705 3.365.443 4.599 3.433 7.164 4.937 1.63-5.111 4.185-9.382 7.338-13.365-1.157 5.612-4.513 10.549-4.966 16.364-.048.549-1.099 1.34-1.774 1.456-1.013.164-.8-1.109-1.225-1.688-.636-.877-.684-2.189-2.314-2.748v4.407c-2.131.53-3.404-5.699-5.67-.309-.279.675-1.302-.906-1.707-1.687-.945-1.861-.395-1.553 1.283-1.321.887.125 1.398-4.147 4.117-1.331z"/><path d="m234.135 31.1c2.767 4.4934 2.381 5.448-4.089 9.5269-.106-4.5321-1.321-7.8202-6.827-7.4731-2.439.1543-3.404-2.6228-4.792-4.3295-2.391-2.9121-4.899-4.3681-7.656-.4725-.897 1.2728-1.553 1.3982-2.382.0097-1.389-2.3143-3.809-2.0828-5.564-1.3307-3.847 1.6296-5.168.241-5.458-3.4328-.067-.9064-.578-1.7742-.877-2.6517 1.9 5.0334 5.728 5.2938 10.395 4.8502 1.841-.1735 3.596.3954 5.641-.4918 3.018-1.3113 5.602.0965 7.232 2.9796 1.35 2.3817 3.143 3.9246 6.094 3.9053 3.596-.0193 4.792 2.642 5.351 5.7566 4.041-1.321 2.671-4.4067 2.941-6.8559z"/><path d="m21.9395 290.968c3.9824 1.543 7.9165 3.78 12.7668.087-.434 3.635-.9643 6.403-1.0511 9.189-.1543 5.024.8293 5.747 6.0459 4.725 0 2.247-.2121 4.474.0675 6.634.2315 1.842.6364 3.886 2.8832 4.552 2.2756.675 3.9631-.425 5.583-1.881 1.0414-.935 1.1764-2.671 2.7964-3.066-.27 3.452-2.4492 5.487-5.4191 6.547-3.7124 1.331-6.8463-.993-7.0777-5.38-.1447-2.854.0964-4.899-3.7028-6.007-2.941-.859-2.4781-4.851-2.2853-7.686.2122-3.027.405-5.158-3.9727-4.377-2.4493.443-5.5445 0-6.6341-3.337z"/><path d="m143.514 520.511c-.049-1.649.626-2.72 2.806-3.105-.897 6.152-2.864 12.622 4.541 16.151 1.331-2.247 0-4.474-.762-6.846 3.424.386 2.353 5.708 6.287 4.812l-.086-.097c-.309 1.639.279 3.5-1.138 4.908-1.832-.511-.386-2.902-2.363-3.355-1.205 1.06.405 3.249-1.272 4.291-1.399-.097-1.408-1.91-2.218-2.16-7.714-2.392-3.819-8.91-5.024-13.606-.106-.405-.569-.723-.858-1.08l.087.077z"/><path d="m270.834 529.247c-.241 1.851-.713 3.751 1.254 5.188-4.069-1.871-5.4-5.612-4.792-11.456.694-6.75 3.567-12.931 4.773-19.536l-.569-1.33c1.427-1.669 2.844-3.327 4.271-4.995-2.497 5.891-3.818 12.063-5.428 18.147-1.071 4.021-1.871 8.052-1.524 12.256.106 1.34.376 2.092 1.89 1.61l.135.116z"/><path d="m162.114 529.083c2.025-.791 1.35 2.304 3.298 2.14 1.205-9.054-.434-18.031-.145-27.028 2.739 10.472 1.784 21.002.666 32.293-2.835-2.304-2.179-5.448-3.819-7.415z"/><path d="m295.838 54.3772c1.099-2.5553 3.992-4.8406.53-7.907-1.388-1.2342.376-1.8224 1.36-2.1599 1.919-.6654 4.137-1.7164 3.423-3.8185-.771-2.2564-3.307-.9739-5.12-.8582-1.109.0771-2.218.4436-3.655-.3471.964-2.4878 3.134-4.7442 2.478-7.7527 2.093 1.9189.569 4.1367.502 6.2484.858.9064 1.822.1254 2.719.1832 1.716.1061 3.741-.3567 4.465 1.8418.703 2.131-.145 3.7992-2.17 4.7441-1.61.7522-1.89 1.5814-1.225 3.3653 1.157 3.1049-.453 5.1974-3.307 6.4606z"/><path d="m156.377 531.522v-12.902c1.08 3.8 1.928 6.808 3.095 10.935.685-3.915 1.167-6.663 1.794-10.24 1.639 3.712 2.025 6.653.848 9.748.174-.916.145-1.783-.935-2.507-.183 2.083-.357 4.021-.54 6.181-2.71-.771-1.726-3.567-3.269-4.879-.376 1.215-.733 2.382-1.089 3.549.009.009.096.115.096.115z"/><path d="m271.5 502.103.569 1.33c-3.607 4.012-3.944 9.228-5.14 14.117-1.06 4.32-1.88 8.698-3.944 12.69-.366.713-.655 2.044-1.919 1.408-.906-.463-1.137-1.466-.8-2.488l-.106.096c2.266.637 2.507-1.137 2.893-2.555 1.34-4.908 2.565-9.855 3.895-14.763.955-3.529 1.958-7.049 4.542-9.835z"/><path d="m143.427 520.433c-.733 4.397-1.398 8.814-2.256 13.191-.203 1.042.086 3.424-2.536 1.582-1.437-1.013-1.996 2.208-4.243 1.533 4.281-4.802 6.923-10.395 9.131-16.228l-.086-.078z"/><path d="m221.146 510.453c.309 8.004 1.543 16.19-4.686 22.834 3.77-5.911 3.404-12.632 3.693-19.218.058-1.311.28-2.546 1.041-3.674.02-.019-.057.058-.057.058z"/><path d="m284.219 517.55c.164 5.159-2.421 8.544-4.793 12.825-1.109-5.525 1.051-9.045 4.793-12.825z"/><path d="m361.523 395.263c-2.275-1.63-6.769-1.379-4.811-6.49.713-1.87-2.372-2.121-3.327-3.654 1.215-1.022 2.575-.299 3.838-.367.463 3.906 1.581 7.531 4.3 10.511z"/><path d="m270.709 529.131c.55-2.98 1.533-5.651 5.053-7.068-.501 3.385-.945 6.432-1.379 9.363-2.507 1.08-.501-4.252-3.539-2.17l-.135-.115z"/><path d="m294.989 31.7557c-.675-.405-1.379-1.1957-2.025-1.1475-7.386.5785-7.125-4.8792-7.762-9.6523 2.324 4.0017 4.108 8.5241 9.488 9.5076.174.029.203.8486.309 1.2922z"/><path d="m339.741 302.105c.202.56.222 1.36.627 1.649 3.751 2.787 5.901 5.554.877 9.257-1.07.791 1.34 2.035.415 3.385-3.346-1.061-1.1-3.78-1.697-5.699-3.761 5.679-9.691 4.146-15.38 4.812 1.996 3.066 6.769 4.888 4.165 9.864-.318-5.304-3.934-7.454-8.129-8.919-1.639-.569-1.803-1.235-1.311-2.797 1.109-3.587-1.967-7.444-5.737-7.444-5.734 0-9.604 2.713-11.61 8.138-.26.714-.55 1.186-1.215 1.215-4.898.241-5.689 4.465-8.071 7.425-.395-3.625 1.746-6.287 4.725-7.695 2.16-1.022 2.96-2.034 3.529-4.291 1.533-6.045 10.868-9.623 16.248-5.804 2.584 1.841 3.491.752 5.101-.444 8.891-6.605 17.849-12.979 28.86-15.872 8.814-2.314 17.116-1.562 25.466 2.777-.318-3.432-2.15-7.01 1.322-9.768-1.611 3.819-.656 7.136 1.668 10.202.954 1.263.598 2.469-.241 3.501-1.524 1.88-1.765 4.011-1.562 6.585-3.78-11.214-12.43-9.584-20.838-8.427-5.824.8-10.964 3.442-16.007 6.268-.752.414-1.938.752-1.205 2.102-3.954-.357-5.998 2.574-9.247 4.985 4.869.376 8.138-.444 9.247-4.995z"/><path d="m331.12 167.977c.309 2.227.781 4.445-.154 6.653-.868 2.044-2.488 4.417-4.493 3.52-4.687-2.093-10.472.723-14.542-3.896-2.748 5.901-7.675 9.228-12.718 12.401-2.729 1.716-5.332 3.606-7.444 6.055-.791.916-2.044 1.871-.955 3.317.984 1.302 2.006.27 2.97-.144 2.989-1.312 6.007-2.247 9.305-1.109 2.257.781 2.527-1.514 3.404-2.536 6.345-7.416 12.198-8.679 20.905-4.282.145.068.289.299.376.27 4.195-1.166 9.141-1.34 12.41-3.78 4.609-3.432 7.242-4.696 11.986-1.35 2.141 1.514 3.577 2.642 6.596 1.235 3.076-1.437 6.258.617 8.61 2.97 1.63 1.639 3.009 2.863 5.699 2.497 2.729-.386 4.204 1.475 4.204 4.474-1.909-2.034-3.394-4.271-6.817-2.517-1.523.782-2.42-1.697-3.587-2.699-3.115-2.652-5.949-6.673-10.327-1.611-1.177 1.369-1.929-.096-2.652-.839-1.581-1.629-3.278-3.027-5.477-3.808-2.632-.945-4.792-.637-6.065 2.053-1.254 2.633-2.999 3.597-5.805 2.363-1.215-.54-2.941-.704-3.635.337-3.202 4.735-5.853 2.17-9.209.029-3.944-2.516-12.719.993-16.566 6.094-1.041 1.379-1.871 2.932-3.037 4.793-2.816-4.378-6.017-3.105-9.46-1.128-4.985 2.863-5.351 2.536-7.704-2.739-1.051-2.333-3.963-3.712-3.78-6.798-5.12 1.485-6.335-3.847-9.662-5.448-1.176-.569-2.796-.212-4.619-.289 5.622-2.527 7.656-1.697 10.703 4.917 2.594-5.997 4.706-11.426 7.474-16.498.183-.347-2.797-3.414-4.455-3.578-5.468-.53-4.176-4.078-4.195-7.473 1.871.579.868 1.929 1.176 2.806.666 1.9 1.08 3.993 3.858 2.324.626-.376 1.562-1.137 1.755.203.973 7.02 4.04 1.803 6.045.926 1.62-.704 2.826-3.761 4.494-.049.145.328 1.678.473 2.189.135 4.011-2.671 3.741 1.157 5.033 3.346-4.108-3.818-5.66-1.408-7.116 2.141-1.813 4.397-3.925 8.669-5.496 13.249 5.67-4.542 13.557-6.673 16.489-14.985 1.195.155 3.259 3.452 5.843.579 1.523 4.378 3.838 7 8.707 3.876 1.871 2.96 4.156 3.809 7.155 1.485 2.526-1.957 1.581-5.072 2.652-7.531.019-.019-.048.048-.048.048zm-42.312 24.261c4.002-6.837 12.411-9.016 16.566-15.621-5.978 4.753-14.415 6.875-16.566 15.621zm1.91-18.148c-3.568 4.744-7.57 9.45-4.484 16.094.521-5.622 2.141-10.925 4.484-16.094z"/><path d="m295.115 269.06c-.974 3.182-3.211 5.448-6.278 6.036-2.96.579-3.963 2.199-4.416 4.716-.058.318-.048.655-.164.945-1.128 2.854-1.089 7.116-5.265 7.039-4.03-.077-3.654-4.166-4.291-7.348-3.5 1.418-5.236 4.455-7.839 6.412-3.057 2.305-5.805 5.188-10.25 3.424-.993-.396-2.15-.145-2.96.993-2.768 3.905-5.622 7.752-8.679 11.947 2.15.839 5.477-.704 6.297 3.616-3.549-2.623-6.74-2.035-9.951-.482-1.302.627-2.392.164-3.472-.81-2.025-1.813-4.079-3.809-7.222-2.073-.376.202-1.35-.126-1.687-.521-2.17-2.536-4.677-3.809-8.283-2.276 1.06-2.295 2.883-2.42 4.339-1.89 3.452 1.254 4.194-.8 4.31-3.326.135-2.874-.068-5.767-.26-8.65-.174-2.584-.511-5.236.867-7.531 1.543-2.565 1.485-4.561-1.378-6.325 5.245 1.88 10.982.81 15.466 4.156-3.712 3.77-2.246 8.996-2.873 13.789 1.851-2.874 5.197-5.063 3.847-9.662 2.17.492 3.78 2.864 6.181 1.417 1.07-.646 1.62.55 2.141 1.36 1.581 2.43 1.591 2.42 4.599 2.719 4.012.392 7.499-.765 10.463-3.471 1.542-1.408 3.027-2.874 4.638-4.214.704-.588 1.755-1.427 2.43-1.254 1.35.338.925 1.813 1.002 2.893.058.8.078 1.61.174 2.401.183 1.514.656 2.941 2.459 3.047 1.842.106 2.372-1.398 2.825-2.777.299-.906.424-1.871.569-2.815.569-3.761 1.07-7.223 6.383-7.165 2.594.029 3.973-2.989 5.815-4.725.154.135.308.27.463.415zm-58.878 29.478c1.63-6.432-2.189-12.169-2.623-18.341-2.362 6.519.964 12.324 2.623 18.341zm8.929.626c3.192-3.481 7.251-6.576 7.435-11.889-2.189 4.127-5.275 7.676-7.435 11.889zm-7.849-23.566c-2.391 5.67-2.16 8.688 0 12.902z"/><path d="m118.395 155.142c3.76.184 7.714 1.273 10.52-2.603 2.092-2.883 2.593-6.866 5.939-9.103 6.49 18.109 15.419 21.744 23.596 13.876 1.34.492.752 1.601.656 2.411-.473 3.847.299 5.621 4.098 2.584 1.571-1.254 2.584-.241 3.76.685 2.421 1.918 4.831 4.011 8.023 1.137.916-.829 1.543-.279 2.102.83 2.903 5.689 4.137 5.853 8.727 1.427.549-.531 1.137-1.032 2.054-1.871.607 2.874.896 5.41 1.687 7.772 1.88 5.631 6.605 6.866 10.684 2.584 2.806-2.941 5.516-4.782 9.893-4.696 5.005.106 7.734-5.13 6.442-11.118-.463-2.15-1.9-4.069-1.601-6.383.347-.135.665-.386.848-.309 3.443 1.505 7.146 3.308 10.202-.154 3.192-3.616 1.379-7.569-.598-11.156-1.099-1.996-2.584-3.78-4.493-6.509 6.306 4.059 9.623 11.089 7.946 15.872-1.881 5.361-6.413 5.428-11.244 4.985.135 1.764.29 3.336.376 4.918.415 7.897-1.562 10.327-9.334 11.31-2.844.357-5.11 1.562-7.097 3.636-5.486 5.718-11.494 4.387-13.625-3.144-.761-2.681-1.205-3.895-4.281-2.295-2.729 1.418-5.757 1.196-7.618-1.813-.858-1.388-1.812-1.456-3.191-1.292-1.967.232-3.877-.077-5.313-1.639-1.707-1.861-3.318-1.755-5.42-.386-1.909 1.244-4.049 1.553-4.387-1.841-.116-1.138-.357-1.919-2.121-1.611-10.241 1.755-14.329-.376-19.102-9.575-.733-1.417-1.408-2.873-2.257-4.599-2.7 2.401-2.786 6.624-6.132 8.283-3.26 1.62-6.509 2.651-9.614-.338l-.097.097z"/><path d="m262.802 179.808c-3.876-.935-7.309-1.446-8.688 3.655-.414 1.514-1.755.212-2.661-.415-5.554-3.828-9.315-3.192-13.316 2.401-.743 1.032-1.206 1.967-2.546 1.051-4.493-3.105-7.695-.434-10.24 2.748-2.17 2.71-4.398 4.031-7.811 3.24-1.263-.289-3.153-.675-3.674.29-2.652 4.85-7.106 4.194-11.532 4.763-3.944.511-4.619 4.426-4.889 7.897-.232 3.028.067 6.075-4.6 3.202-3.095-1.9-5.891.058-8.032 2.459-2.777 3.114-5.255 6.364-9.97 6.875-2.344.25-2.999 2.7-3.308 4.811-.366 2.498-.54 5.024-1.109 7.512-1.273-3.876-.395-7.598.868-11.272.434-1.254 1.311-2.642 2.565-2.662 4.821-.067 7.251-3.625 10.192-6.499 3.211-3.153 6.673-5.255 11.002-2.179 1.466-1.273.984-2.873 1.235-4.223 1.128-6.075 3.249-7.956 9.478-7.551 2.054.135 3.452-.443 4.494-2.044 1.813-2.777 4.31-3.76 7.463-2.854 2.748.791 4.667.01 5.959-2.555.347-.695 1.061-1.196 1.524-1.842 3.259-4.522 9.218-.665 12.776-4.098 4.137-4.002 8.765-3.124 13.394-1.379 1.408.53 1.755-.01 2.584-.906 2.671-2.855 5.689-2.575 8.842-.425z"/><path d="m109.581 258.29c1.717 1.909 2.768 3.085 4.86 5.419-4.619-2.652-5.082-.367-5.969 2.324-1.408 4.281-4.561 5.448-8.6878 3.461-1.996-.964-3.6641-.868-5.4384.164-1.1089.646-2.1599 1.389-3.2399 2.073-7.5887 4.783-12.3907 2.671-14.0203-6.152-.6493-3.503-2.4203-4.22-5.3131-2.15-1.0414.752-2.0539 1.572-3.1821 2.17-4.2524 2.256-7.1741 1.35-8.5241-3.298-1.0703-3.713-2.6517-3.491-4.937-1.524-2.1792 1.881-4.1559 2.305-6.1134-.144-1.9092-2.382-2.9699-1.206-4.2042.752-1.1667 1.861-2.1695 4.079-4.6477 4.609-1.3114.28-3.076.087-2.8253-1.591.4243-2.777 1.0896.53 2.0635.154 2.3432-.916 3.3846-2.912 4.6285-4.715 1.7742-2.565 3.4424-3.886 5.7566-.607 1.3982 1.986 2.7771 1.272 4.4646.154 3.0277-1.996 5.6794-2.768 7.1741 2.083 1.2631 4.107 3.7509 4.657 7.4537 2.43 2.5842-1.553 4.7442-5.4 7.5116-4.59 3.0374.887 1.6007 5.264 2.536 8.013 1.9092 5.602 5.0527 6.933 10.2694 3.943 4.0306-2.304 7.5983-6.036 12.9983-2.275 1.822 1.273 3.867-.926 4.725-2.98.906-2.169 1.552-4.455 2.651-7.695z"/><path d="m294.652 268.646c.492-1.177.848-2.43 1.494-3.51 1.37-2.305 2.334-5.796 5.169-5.825 2.526-.028 2.642 3.616 3.789 5.622 1.688 2.96 3.79 4.609 7.358 4.195 1.388-.164 3.008-.145 4.233.424 4.445 2.044 8.312 1.716 11.841-1.88 1.408-1.437 3.028-1.833 4.407.192 2.632 3.867 5.91 3.144 9.247 1.186 2.179-1.282 3.915-2.256 6.142.328 1.312 1.534 3.664.791 5.284-.462 1.765-1.37 3.346-2.98 5.092-4.378 1.108-.887 2.179-2.854 3.828-.598l-.347.318c-2.045 1.533-4.108 3.038-6.133 4.6-1.697 1.301-3.77 2.844-5.651 2.179-4.223-1.495-7.955 0-11.86.848-3.356.733-5.4-2.121-8.003-2.95-2.411-.772-4.494 4.262-7.85 3.5-4.522-1.022-8.948-2.015-13.653-1.996-2.488 0-4.108-2.295-5.256-4.503-.8-1.543-1.523-3.124-2.314-4.735-3.529 1.726-4.059 5.506-6.364 7.869-.154-.135-.309-.27-.463-.415z"/><path d="m158.064 288.278c.415-1.36-.048-4.069 2.758-1.755.289.232 1.013.299 1.312.097 4.724-3.231 5.554.028 7.068 3.654 2.188 5.236 6.711 5.593 9.845 1.167 1.764-2.488 3.77-3.394 6.971-2.719 8.939 1.89 11.109.665 14.58-7.975 1.331-3.307 2.401-4.715 6.412-2.825 5.631 2.652 10.433.713 14.435-4.494-.762 5.044-5.515 8.631-11.359 6.48-6.306-2.314-7.724.579-9.787 5.178-2.469 5.497-6.133 6.827-12.294 5.352-3.211-.762-5.863-.733-7.994 2.411-3.24 4.763-6.75 4.802-10.694.434-2.95-3.26-6.737-4.97-11.359-5.13l.106.115z"/><path d="m236.633 108.848c-2.025 5.371-3.25 10.376 2.053 14.763 1.543 1.283-1.822 1.418-1.504 3.308.579 3.375 8.408 13.76 11.851 14.589 1.311.318 2.758.048 4.146.048-.193 7.28 1.466 9.411 8.659 11.523 4.156 1.225 8.476 1.244 12.989 1.842-5.901 2.565-20.221-.386-21.937-5.622-1.553-4.754-5.13-5.93-7.984-8.649-4.561-4.339-9.556-8.737-8.997-16.152.087-1.08-1.128-2.208-1.552-3.375-1.601-4.445-1.485-8.649 2.276-12.284z"/><path d="m287.468 319.607c-1.446 2.15-2.372 3.876-4.195 2.979-1.34-.655-.665-2.323-.723-3.529-.154-3.346.289-6.73-.791-10.018-.501-1.534-.79-3.424-2.468-3.867-1.794-.482-2.681 1.292-3.712 2.468-.81.926-1.254 2.228-3.057 2.642-1.427-5.747-4.908-5.776-9.305-3.076-.926.569-2.189 1.061-2.874-.385-1.311-2.777-4.011-1.996-6.239-2.488.222-.318.483-.781.54-.762 5.796 2.382 12.536-.733 18.042 3.009 1.832 1.244 2.121-.569 2.931-1.186 4.021-3.096 6.856-2.141 7.637 2.941.511 3.297.444 6.701.511 10.057.048 2.584.714 3.693 3.713 1.224z"/><path d="m175.296 243.045c.993-.483 2.169-.781 2.96-1.495 2.951-2.671 5.525-3.404 8.765-.077 2.044 2.102 5.217 2.131 7.435-.019 2.613-2.536 4.483-1.649 6.971.135 4.532 3.259 5.998 3.076 9.382-.232.714 2.719-.974 3.443-3.056 3.674-.926.106-2.045.106-2.826-.309-4.483-2.391-8.967-3.172-13.731-.8-.626.318-1.774.309-2.333-.067-4.426-2.98-8.842-4.041-13.509 1.157l-.058-1.987z"/><path d="m102.446 142.405c.298-.039.761-.222.887-.097 5.641 5.911 8.447 5.352 11.484-2.381-1.022 5.669-.164 10.828 3.587 15.216l.096-.097c-.588-.183-1.282-.222-1.735-.569-2.276-1.803-2.343-4.821-3.645-6.942-1.225-1.996-4.629 1.398-7.251-.155-2.025-1.195-2.498-3.191-3.414-4.995v.029z"/><path d="m102.446 142.376c-.058-2.7-.241-5.4-.135-8.081.096-2.517.482-5.024.8-8.1-3.2785 1.476-6.2195 2.45-9.3919 1.447-.0193.019-.0771.067-.0868.077 3.8764-.328 7.1457-2.112 10.8097-5.198.067 7.281-1.215 13.548-1.996 19.864z"/><path d="m362.536 263.93c4.146 5.236 9.199 7.001 15.553 4.224.598-.26 1.466.106 2.71.222-10.077 3.895-14.474 3.432-18.61-4.137l.347-.318z"/></g></svg>