<svg width="1280" height="2489" viewBox="0 0 1280 2489" fill="none" xmlns="http://www.w3.org/2000/svg">
<g clip-path="url(#clip0_70_2465)">
<rect width="1280" height="2489" fill="#F1E8DD"/>
<path d="M952.208 2427.54C949.479 2426.68 946.71 2427.09 943.955 2427.29C938.185 2427.73 932.424 2428.31 926.635 2428.26C923.307 2428.23 920.119 2427.43 917.125 2425.86C914.313 2424.38 912.265 2421.8 911.044 2418.59C909.385 2414.21 911.012 2408.98 914.706 2406.02C915.068 2405.73 915.434 2405.43 915.833 2405.23C917.416 2404.44 918.222 2403.02 918.581 2401.12C919.02 2398.79 919.872 2396.69 921.427 2395C922.832 2393.47 924.49 2393.17 926.313 2393.26C928.182 2393.36 930.062 2393.38 931.511 2391.65C932.056 2391 932.593 2390.33 933.071 2389.62C934.026 2388.19 935.183 2387.15 936.76 2386.81C937.16 2386.72 937.543 2386.54 937.934 2386.41C938.885 2386.11 939.354 2385.4 939.547 2384.27C940.115 2380.92 941.934 2379.52 944.873 2380.12C947.259 2380.62 949.492 2380.42 951.517 2378.68C952.64 2377.72 953.97 2377.37 955.353 2377.43C957.788 2377.53 959.971 2378.47 961.833 2380.27C962.844 2381.25 963.493 2382.51 963.726 2384.04C963.932 2385.39 964.155 2386.75 964.745 2387.97C964.918 2388.33 965.054 2388.92 965.465 2388.82C965.819 2388.73 965.738 2388.15 965.768 2387.76C965.885 2386.22 965.875 2384.66 966.203 2383.14C966.527 2381.63 967.184 2380.42 968.27 2379.49C968.773 2379.06 969.312 2378.78 969.918 2378.78C972.373 2378.77 974.759 2379.07 976.765 2380.96C977.814 2381.95 978.986 2382.31 980.37 2382.05C982.572 2381.64 983.964 2382.54 984.913 2384.92C985.394 2386.13 985.753 2387.41 986.114 2388.68C986.552 2390.22 987.411 2391.17 988.785 2391.58C990.122 2391.98 991.439 2392.47 992.763 2392.93C994.275 2393.45 995.448 2394.49 996.211 2396.09C996.593 2396.88 997.103 2397.32 997.897 2397.43C999.465 2397.66 1000.61 2398.52 1001 2400.4C1001.13 2401.06 1001.49 2401.38 1002.07 2401.4C1002.23 2401.41 1002.38 2401.45 1002.54 2401.46C1005.64 2401.87 1007.3 2403.81 1007.56 2407.41C1007.61 2407.99 1007.66 2408.55 1008.11 2408.96C1009.79 2410.51 1010.14 2411.95 1009.23 2414.2C1007.07 2419.56 1003.8 2423.65 999.11 2426.31C995.312 2428.46 991.339 2429.58 987.166 2429.99C984.597 2430.24 982.028 2430.35 979.448 2430.36C975.456 2430.39 971.7 2431.54 968.22 2433.92C966.372 2435.19 966.193 2437.25 965.982 2439.25C965.101 2447.58 964.414 2455.93 963.452 2464.25C962.742 2470.38 961.619 2476.44 959.139 2482.04C957.163 2486.5 955.043 2490.84 951.761 2494.26C951.254 2494.79 950.751 2495.24 950.005 2495.06C949.166 2494.86 949.036 2494.53 949.56 2493.77C950.009 2493.12 950.517 2492.52 950.977 2491.88C953.602 2488.21 956.184 2484.48 957.548 2479.92C959.488 2473.45 960.96 2466.83 961.911 2460.06C962.861 2453.31 963.281 2446.48 964.233 2439.73C964.357 2438.85 964.022 2438.1 963.703 2437.36C961.534 2432.33 958.034 2429.19 953.317 2427.8C952.952 2427.7 952.579 2427.63 952.21 2427.54L952.208 2427.54ZM937.684 2387.12C941.45 2390.06 944.597 2393.78 947.664 2397.61C954.591 2406.24 959.486 2416.21 962.414 2427.47C962.593 2428.15 962.78 2428.83 963.203 2429.38C963.152 2428.83 963.047 2428.3 962.931 2427.78C962.624 2426.38 962.302 2424.99 962.006 2423.59C961.749 2422.37 960.942 2421.32 961.223 2419.93C961.284 2419.62 961.095 2419.23 961.003 2418.89C959.12 2411.97 956.253 2405.62 952.735 2399.64C952.152 2398.65 951.55 2397.68 950.957 2396.69C951.423 2396.98 951.752 2397.39 952.052 2397.83C953.866 2400.47 955.468 2403.27 956.876 2406.22C958.386 2409.38 959.631 2412.69 960.896 2415.99C961.726 2419.13 962.159 2422.41 963.177 2425.49C962.706 2422.22 962.075 2419 960.964 2415.94C959.11 2408.12 956.594 2400.57 953.661 2393.21C952.335 2389.88 950.967 2386.58 949.616 2383.26C951.793 2386.22 953.052 2389.77 954.486 2393.19C955.929 2396.64 957.224 2400.17 958.45 2403.73C959.688 2407.32 960.504 2411.09 961.571 2414.75C962.615 2418.34 963.453 2421.97 964.093 2425.68C963.843 2415.59 960.283 2406.59 957.167 2397.44C958.841 2400.99 960.156 2404.71 961.388 2408.48C962.619 2412.25 963.548 2416.11 964.137 2420.08C963.011 2407.61 959.033 2396.12 954.956 2384.65C957.383 2389.46 958.966 2394.68 960.625 2399.85C962.298 2405.07 963.429 2410.47 964.441 2415.92C963.915 2409.85 963.387 2403.77 962.861 2397.7C962.943 2397.7 963.025 2397.69 963.107 2397.68C964.286 2407.67 965.477 2417.66 965.234 2427.81C965.393 2424.93 966.026 2422.09 965.747 2419.18C964.902 2410.39 964.284 2401.57 963.757 2392.74C963.668 2391.26 963.557 2389.77 963.831 2388.3C964.898 2397.44 965.219 2406.67 966.27 2415.82C967.121 2408.76 967.807 2401.7 968.288 2394.6C968.404 2394.97 968.437 2395.32 968.44 2395.67C968.478 2399.84 968.121 2403.97 967.739 2408.11C967.229 2413.6 966.328 2419.05 966.426 2424.93C966.852 2421.73 967.27 2418.85 967.608 2415.96C967.945 2413.09 968.393 2410.25 968.825 2407.4C969.262 2404.51 969.615 2401.61 969.673 2398.67C969.729 2395.8 969.941 2392.94 970.484 2389.85C970.725 2399.33 969.357 2408.34 967.989 2417.36C970.334 2407.14 973.433 2397.13 973.603 2386.41C973.884 2394.74 971.868 2402.63 970.102 2410.57C971.42 2406.92 972.813 2403.33 974.814 2400.11C974.267 2401.6 973.644 2403.06 973.061 2404.54C972.475 2406.02 971.9 2407.5 971.367 2409.01C970.835 2410.52 970.347 2412.05 969.869 2413.58C969.392 2415.11 968.939 2416.65 968.507 2418.2C968.083 2419.71 967.792 2421.26 967.632 2422.83C969.084 2418.36 970.463 2413.85 972.374 2409.61C975.487 2402.69 978.371 2395.67 979.857 2388.01C979.871 2387.94 979.945 2387.87 980.087 2387.65C979.082 2394.45 976.791 2400.53 974.214 2406.5C976.488 2402.33 978.932 2398.34 982.025 2394.91C976.023 2403.7 971.317 2413.29 968.168 2423.86C969.018 2422.05 969.768 2420.19 970.534 2418.33C971.304 2416.46 972.432 2414.84 973.367 2413.08C974.319 2411.29 975.163 2409.43 976.21 2407.71C977.212 2406.06 978.175 2404.38 979.363 2402.89C975.268 2410.98 970.086 2418.39 967.77 2427.58C968.587 2425.99 969.131 2424.25 969.795 2422.58C970.475 2420.87 971.308 2419.24 972.174 2417.65C973.023 2416.09 973.875 2414.52 974.757 2412.98C975.629 2411.46 976.466 2409.9 977.661 2408.65C976.594 2410.61 975.53 2412.58 974.463 2414.54C978.009 2409.09 982.301 2404.4 985.99 2398.96C986.135 2399.48 985.897 2399.62 985.771 2399.8C984.116 2402.12 982.559 2404.55 980.761 2406.72C976.471 2411.89 973.059 2417.77 969.947 2423.9C968.908 2425.95 968.214 2428.17 967.627 2430.45C973.083 2418.71 980.04 2408.36 988.877 2399.72C983.46 2406.15 978.05 2412.58 973.914 2420.25C975.885 2417.64 978.03 2415.25 980.46 2413.23C985.481 2409.05 990.02 2404.27 994.256 2399.1C994.577 2398.7 994.913 2398.33 995.307 2397.88C995.36 2398.33 995.16 2398.44 995.044 2398.59C991.158 2403.6 986.963 2408.25 982.227 2412.18C978.257 2415.48 974.799 2419.32 971.891 2423.83C971.126 2425.02 970.424 2426.26 969.694 2427.47C973.499 2422.81 977.081 2417.91 982.375 2415.35C979.232 2417.65 976.306 2420.25 973.931 2423.6C975.501 2421.84 977.272 2420.35 979.058 2418.91C980.834 2417.47 982.674 2416.14 984.494 2414.78C986.301 2413.42 988.116 2412.08 989.927 2410.74C989.979 2410.83 990.034 2410.93 990.087 2411.03C988.18 2412.56 986.294 2414.13 984.363 2415.62C980.812 2418.37 977.107 2420.86 974.018 2424.33C972.892 2425.6 971.79 2426.89 970.88 2428.37C974.237 2425.09 977.864 2422.29 981.78 2420.01C986.469 2417.28 991.194 2414.63 995.827 2411.78C996.164 2411.57 996.511 2411.39 996.855 2411.2C994.384 2413.52 991.589 2415.18 988.794 2416.83C984.88 2419.15 980.796 2421.1 977.117 2423.93C976.836 2424.14 976.482 2424.29 976.218 2424.87C983.174 2420.65 990.363 2417.62 997.532 2413.96C997.286 2414.61 996.952 2414.67 996.695 2414.83C994.62 2416.14 992.441 2417.19 990.259 2418.23C986.069 2420.21 981.869 2422.16 977.823 2424.52C976.137 2425.5 974.522 2426.64 973.03 2427.99C975.718 2426.47 978.404 2424.98 981.234 2423.85C984.066 2422.72 986.883 2421.54 989.704 2420.38C986.279 2422.66 982.487 2423.9 978.891 2425.7C979.369 2425.68 979.82 2425.56 980.254 2425.39C983.234 2424.23 986.203 2423.05 989.185 2421.9C994.619 2419.81 999.593 2416.8 1003.82 2412.28C1003.98 2412.11 1004.17 2411.98 1004.35 2411.83C1002.23 2414.47 999.835 2416.67 997.134 2418.38C993.202 2420.88 988.903 2422.34 984.696 2424.06C981.32 2425.45 977.802 2426.34 974.532 2428.08C973.786 2428.47 973.041 2428.87 972.311 2429.49C972.476 2429.53 972.541 2429.57 972.583 2429.55C975.897 2427.91 979.403 2427.04 982.915 2426.21C987.984 2425.02 992.945 2423.45 997.573 2420.7C998.145 2420.36 998.74 2420.07 999.326 2419.76C999.367 2419.85 999.409 2419.93 999.45 2420.01C999.288 2420.09 999.117 2420.16 998.967 2420.26C995.133 2422.83 991.032 2424.63 986.725 2425.82C982.661 2426.95 978.521 2427.71 974.546 2429.24C974.219 2429.37 973.889 2429.5 973.568 2429.65C973.257 2429.8 972.953 2429.97 972.646 2430.14C975.593 2429.08 978.575 2428.33 981.621 2428.26C984.91 2428.17 988.043 2427.38 991.101 2426.12C994.728 2424.62 998.189 2422.73 1001.22 2419.93C1001.68 2419.5 1002.1 2419.01 1002.53 2418.54C1001.68 2420.02 1000.55 2421.15 999.253 2422.02C993.736 2425.75 987.958 2428.52 981.419 2428.62C980.062 2428.64 978.688 2428.84 977.368 2429.32C977.998 2429.35 978.618 2429.22 979.235 2429.24C983.085 2429.39 986.91 2429.04 990.693 2428.29C996.438 2427.16 1001.6 2424.58 1005.54 2419.41C1006.32 2418.38 1006.95 2417.2 1007.66 2416.08C1008.47 2414.8 1008.99 2413.4 1009.07 2411.79C1009.11 2411.04 1009 2410.4 1008.39 2410.04C1007.31 2409.42 1007.03 2408.35 1006.82 2407.06C1006.37 2404.39 1005.33 2402.48 1002.76 2402.42C1002.54 2402.42 1002.32 2402.37 1002.1 2402.36C1001.22 2402.28 1000.6 2401.77 1000.39 2400.79C1000.06 2399.22 999.163 2398.5 997.847 2398.34C996.857 2398.22 996.176 2397.65 995.707 2396.64C995.03 2395.18 993.986 2394.19 992.578 2393.72C991.28 2393.29 990.001 2392.79 988.698 2392.37C987.071 2391.86 986.046 2390.69 985.53 2388.86C985.18 2387.62 984.854 2386.37 984.409 2385.18C983.64 2383.13 982.553 2382.45 980.655 2382.81C979.228 2383.08 977.929 2382.81 976.841 2381.76C975.192 2380.16 973.257 2379.66 971.182 2379.42C969.426 2379.22 968.321 2380.3 967.63 2381.83C967.132 2382.94 966.988 2384.17 966.903 2385.4C966.839 2386.34 966.786 2387.28 966.709 2388.21C966.659 2388.82 966.474 2389.35 965.902 2389.54C965.294 2389.74 964.978 2389.26 964.671 2388.79C963.864 2387.53 963.518 2386.08 963.289 2384.57C963.138 2383.57 962.926 2382.61 962.374 2381.77C960.086 2378.24 955.211 2377.05 951.963 2379.42C949.907 2380.91 947.774 2381.26 945.459 2380.78C945.12 2380.71 944.778 2380.63 944.434 2380.6C942.321 2380.4 940.9 2381.48 940.563 2383.87C940.28 2385.89 939.304 2386.83 937.685 2387.17C935.83 2387.5 934.498 2388.7 933.44 2390.44C931.895 2392.97 929.745 2394.05 927.077 2393.77C926.858 2393.75 926.636 2393.74 926.418 2393.71C924.302 2393.45 922.617 2394.3 921.287 2396.22C920.379 2397.53 919.795 2399.01 919.52 2400.61C919.108 2403.02 918.078 2404.7 916.102 2405.82C913.329 2407.38 911.61 2409.89 911.425 2413.62C911.304 2416.07 911.762 2418.19 913.016 2420.23C915.825 2424.81 919.926 2426.41 924.445 2427.01C928.613 2427.56 932.797 2427.11 936.969 2426.86C938.712 2426.75 940.449 2426.55 942.189 2426.39C937.769 2426.18 933.36 2426.65 928.949 2426.4C935.472 2426.01 941.999 2425.77 948.534 2425.83C945.811 2425.22 943.109 2424.52 940.319 2424.59C936.393 2424.68 932.474 2425.14 928.543 2424.92C926.29 2424.79 924.027 2424.89 921.781 2424.52C928.649 2424.72 935.505 2424.39 942.446 2424.08C940.526 2423.69 938.651 2423.57 936.791 2423.34C939.611 2423.2 942.365 2423.86 945.166 2424.04L941.672 2423.21C945.627 2423.67 949.351 2425.21 953.356 2426.47C953.125 2426.23 953.072 2426.15 952.999 2426.1C948.903 2423.78 944.556 2422.59 940.001 2422.5C936.328 2422.43 932.652 2422.54 928.976 2422.55C925.624 2422.57 922.344 2422.01 919.134 2420.8C927.066 2422.74 935.133 2421.1 943.277 2422.1C939.705 2420.29 936.053 2419.53 932.432 2418.71C928.775 2417.88 925.021 2417.84 921.333 2417.22C923.001 2417.06 924.644 2417.35 926.297 2417.48C931.402 2417.87 936.405 2418.92 941.235 2420.86C944.503 2422.17 947.863 2423.12 951.217 2424.12C941.299 2419.46 931.231 2415.24 921.235 2410.79C931.072 2413.97 940.402 2418.78 949.803 2422.49C945.776 2419.35 941.268 2416.63 936.602 2414.17C931.734 2411.59 926.698 2409.66 921.57 2407.94C921.8 2407.89 922.014 2407.9 922.22 2407.95C930.562 2410.02 938.09 2414.42 945.67 2418.7C945.299 2418.4 944.927 2418.1 944.558 2417.81C948.198 2419.96 951.682 2422.4 955.104 2424.97C954.311 2424.14 953.473 2423.38 952.619 2422.66C946.467 2417.44 939.738 2413.43 932.709 2410.03C931.113 2409.26 929.556 2408.39 927.98 2407.56C928.015 2407.47 928.053 2407.38 928.088 2407.29C932.991 2409.69 937.955 2411.93 942.655 2414.84C947.348 2417.75 951.761 2421.15 955.941 2424.96C953.651 2422.25 951.047 2419.96 948.399 2417.75C945.71 2415.51 942.926 2413.41 939.986 2411.62C937.124 2409.87 934.406 2407.81 931.383 2406.42C938.538 2409.8 945.09 2414.39 951.312 2419.65C949.246 2417.37 947.071 2415.25 944.853 2413.2C948.349 2415.81 951.295 2419.2 954.58 2422.33C954.487 2421.68 953.966 2421.53 953.894 2420.8C955.031 2422.17 956.043 2423.39 957.058 2424.62C957.115 2424.54 957.171 2424.47 957.23 2424.39C952.152 2417.65 946.186 2412.25 939.022 2408.67C947.163 2411.73 953.235 2418.06 958.828 2425.22C958.797 2424.88 958.63 2424.68 958.486 2424.47C956.238 2421.17 953.824 2418.01 951.104 2415.22C944.506 2408.47 937.345 2402.55 929.954 2396.99C928.954 2396.24 927.903 2395.58 927.086 2394.54C937.689 2401.74 947.76 2409.74 956.221 2420.16C949.955 2410.39 941.627 2403.24 933.166 2396.26C944.257 2404.38 953.915 2414.23 961.153 2427C959.047 2422.58 957.061 2418.1 954.159 2414.29C951.31 2410.55 948.298 2406.99 945.32 2403.39C949.475 2407.42 953.255 2411.87 956.703 2416.7C954.893 2413.22 953.036 2409.78 950.775 2406.67C947.985 2402.83 944.743 2399.53 941.402 2396.35C940.212 2395.21 939.154 2393.92 938.377 2392.35C940.453 2395.19 943.106 2397.29 945.517 2399.68C950.648 2404.79 954.466 2411.08 957.841 2417.76C958.22 2418.51 958.604 2419.26 958.983 2420.01C959.345 2420.72 959.702 2421.44 960.063 2422.15C960.123 2421.85 960.059 2421.62 959.984 2421.4C958.311 2416.38 956.04 2411.72 953.465 2407.25C949.424 2400.25 944.364 2394.29 938.942 2388.71C938.481 2388.23 937.912 2387.87 937.673 2387.15L937.684 2387.12Z" fill="#8A2E00"/>
<path d="M1051.42 2445.48C1053.45 2445.79 1055.18 2447.03 1056.96 2448.12C1060.68 2450.41 1064.35 2452.81 1068.2 2454.76C1070.42 2455.88 1072.75 2456.39 1075.15 2456.27C1077.4 2456.16 1079.43 2454.98 1081.09 2453.06C1083.34 2450.44 1083.62 2446.08 1081.94 2442.66C1081.78 2442.32 1081.62 2441.98 1081.4 2441.7C1080.56 2440.58 1080.4 2439.27 1080.66 2437.76C1080.98 2435.91 1080.96 2434.09 1080.37 2432.33C1079.84 2430.74 1078.82 2429.95 1077.58 2429.4C1076.31 2428.83 1075.06 2428.19 1074.55 2426.44C1074.36 2425.78 1074.18 2425.11 1074.05 2424.43C1073.79 2423.06 1073.29 2421.91 1072.33 2421.12C1072.09 2420.92 1071.88 2420.66 1071.66 2420.43C1071.11 2419.88 1070.98 2419.21 1071.15 2418.32C1071.65 2415.69 1070.81 2414.04 1068.7 2413.48C1066.98 2413.02 1065.55 2412.11 1064.67 2410.15C1064.17 2409.07 1063.38 2408.36 1062.45 2407.93C1060.8 2407.17 1059.11 2407.1 1057.4 2407.78C1056.47 2408.14 1055.71 2408.84 1055.16 2409.87C1054.67 2410.79 1054.16 2411.7 1053.45 2412.38C1053.24 2412.58 1053 2412.97 1052.75 2412.75C1052.54 2412.57 1052.74 2412.18 1052.83 2411.88C1053.15 2410.72 1053.57 2409.58 1053.75 2408.36C1053.93 2407.16 1053.81 2406.05 1053.33 2405C1053.11 2404.52 1052.83 2404.13 1052.42 2403.92C1050.8 2403.07 1049.13 2402.48 1047.31 2403.16C1046.35 2403.52 1045.48 2403.38 1044.63 2402.72C1043.27 2401.67 1042.11 2401.85 1040.86 2403.26C1040.22 2403.97 1039.65 2404.78 1039.08 2405.58C1038.39 2406.55 1037.57 2406.95 1036.55 2406.78C1035.55 2406.61 1034.55 2406.51 1033.55 2406.4C1032.41 2406.26 1031.36 2406.62 1030.44 2407.51C1029.98 2407.96 1029.52 2408.1 1028.97 2407.92C1027.87 2407.54 1026.88 2407.78 1026.13 2409.02C1025.87 2409.45 1025.55 2409.56 1025.16 2409.38C1025.05 2409.33 1024.94 2409.3 1024.83 2409.26C1022.66 2408.49 1021.05 2409.34 1019.94 2411.87C1019.76 2412.28 1019.57 2412.66 1019.17 2412.81C1017.65 2413.36 1017.04 2414.29 1017.05 2416.24C1017.08 2420.88 1018.19 2424.98 1020.6 2428.52C1022.56 2431.38 1024.9 2433.56 1027.57 2435.29C1029.21 2436.35 1030.88 2437.31 1032.59 2438.2C1035.24 2439.59 1037.43 2441.71 1039.11 2444.64C1040.01 2446.19 1039.59 2447.75 1039.2 2449.29C1037.61 2455.65 1035.88 2461.97 1034.34 2468.35C1033.21 2473.05 1032.37 2477.85 1032.55 2482.77C1032.69 2486.69 1032.96 2490.58 1034.24 2494.2C1034.44 2494.76 1034.66 2495.25 1035.2 2495.38C1035.81 2495.52 1035.98 2495.32 1035.83 2494.59C1035.71 2493.96 1035.53 2493.35 1035.39 2492.73C1034.61 2489.16 1033.87 2485.56 1034.16 2481.78C1034.56 2476.4 1035.32 2471.08 1036.46 2465.83C1037.6 2460.58 1039.11 2455.47 1040.24 2450.23C1040.39 2449.55 1040.81 2449.11 1041.21 2448.69C1043.97 2445.77 1047.12 2444.68 1050.61 2445.29C1050.88 2445.34 1051.15 2445.42 1051.41 2445.48L1051.42 2445.48ZM1071.64 2421.03C1068.37 2421.88 1065.31 2423.51 1062.27 2425.25C1055.41 2429.16 1049.55 2434.74 1044.66 2441.93C1044.36 2442.37 1044.06 2442.8 1043.63 2443.05C1043.81 2442.67 1044.02 2442.32 1044.23 2441.98C1044.8 2441.07 1045.38 2440.16 1045.95 2439.24C1046.44 2438.45 1047.25 2437.96 1047.42 2436.85C1047.46 2436.6 1047.69 2436.38 1047.84 2436.17C1050.9 2431.78 1054.47 2428.14 1058.37 2424.99C1059.02 2424.47 1059.67 2423.96 1060.32 2423.45C1059.94 2423.5 1059.61 2423.69 1059.3 2423.91C1057.4 2425.21 1055.6 2426.7 1053.9 2428.36C1052.07 2430.15 1050.37 2432.13 1048.67 2434.09C1047.3 2436.1 1046.15 2438.33 1044.67 2440.23C1045.84 2438.01 1047.1 2435.89 1048.64 2434.03C1051.92 2428.98 1055.56 2424.35 1059.44 2419.99C1061.19 2418.02 1062.96 2416.09 1064.73 2414.13C1062.51 2415.54 1060.74 2417.7 1058.9 2419.7C1057.04 2421.71 1055.25 2423.84 1053.5 2426.01C1051.74 2428.2 1050.22 2430.66 1048.55 2432.96C1046.92 2435.21 1045.41 2437.57 1044.01 2440.05C1046.82 2432.8 1051.54 2427.46 1056 2421.87C1053.96 2423.88 1052.12 2426.14 1050.31 2428.46C1048.51 2430.78 1046.88 2433.28 1045.45 2435.97C1049.46 2427.27 1055.11 2420.27 1060.82 2413.32C1057.95 2415.99 1055.53 2419.25 1053.08 2422.44C1050.6 2425.67 1048.44 2429.21 1046.34 2432.83C1048.28 2428.59 1050.22 2424.35 1052.15 2420.11C1052.1 2420.08 1052.05 2420.04 1052 2420.01C1048.6 2426.88 1045.19 2433.75 1042.7 2441.22C1043.35 2439.06 1043.67 2436.78 1044.62 2434.76C1047.48 2428.65 1050.2 2422.44 1052.86 2416.19C1053.3 2415.15 1053.77 2414.1 1053.97 2412.94C1050.87 2419.23 1048.24 2425.83 1045.15 2432.13C1046.43 2426.7 1047.82 2421.33 1049.36 2416C1049.19 2416.22 1049.08 2416.47 1048.98 2416.72C1047.87 2419.74 1047.02 2422.87 1046.19 2426.01C1045.09 2430.18 1044.26 2434.46 1042.66 2438.71C1043.22 2436.23 1043.69 2433.99 1044.22 2431.78C1044.75 2429.57 1045.2 2427.35 1045.66 2425.12C1046.12 2422.87 1046.65 2420.64 1047.38 2418.49C1048.09 2416.37 1048.7 2414.22 1049.15 2411.79C1046.51 2418.6 1045.06 2425.63 1043.61 2432.66C1044.72 2424.42 1045.29 2416.07 1047.98 2408.22C1045.61 2414.18 1044.88 2420.61 1043.98 2427C1044.06 2423.89 1044.07 2420.8 1043.59 2417.77C1043.56 2419.05 1043.59 2420.32 1043.59 2421.59C1043.6 2422.87 1043.59 2424.15 1043.55 2425.43C1043.51 2426.71 1043.43 2427.99 1043.35 2429.27C1043.26 2430.54 1043.16 2431.82 1043.04 2433.1C1042.92 2434.34 1042.71 2435.57 1042.41 2436.77C1042.62 2433.01 1042.88 2429.26 1042.72 2425.52C1042.47 2419.42 1042.39 2413.32 1043.41 2407.24C1043.42 2407.18 1043.39 2407.11 1043.35 2406.9C1042.24 2412.19 1042.17 2417.4 1042.31 2422.63C1041.9 2418.81 1041.32 2415.07 1040.16 2411.51C1041.85 2419.97 1042.46 2428.56 1041.78 2437.33C1041.69 2435.73 1041.68 2434.11 1041.66 2432.5C1041.64 2430.87 1041.31 2429.31 1041.15 2427.71C1040.99 2426.08 1040.92 2424.43 1040.67 2422.82C1040.44 2421.28 1040.24 2419.72 1039.84 2418.24C1040.44 2425.53 1041.94 2432.7 1041.07 2440.17C1040.95 2438.74 1041.04 2437.29 1041.04 2435.84C1041.04 2434.36 1040.91 2432.9 1040.75 2431.44C1040.6 2430.01 1040.44 2428.58 1040.26 2427.16C1040.08 2425.75 1039.93 2424.33 1039.46 2423.01C1039.66 2424.8 1039.85 2426.6 1040.04 2428.39C1039.12 2423.21 1037.5 2418.33 1036.47 2413.1C1036.24 2413.43 1036.36 2413.62 1036.4 2413.79C1036.89 2416.05 1037.29 2418.35 1037.91 2420.54C1039.4 2425.78 1040.13 2431.22 1040.59 2436.76C1040.75 2438.6 1040.62 2440.46 1040.42 2442.31C1039.87 2431.9 1037.96 2421.98 1034.36 2412.67C1036.27 2419.2 1038.18 2425.74 1038.91 2432.74C1038.29 2430.16 1037.49 2427.69 1036.41 2425.38C1034.17 2420.63 1032.4 2415.59 1030.95 2410.37C1030.84 2409.98 1030.71 2409.6 1030.57 2409.13C1030.41 2409.44 1030.52 2409.59 1030.56 2409.74C1031.82 2414.72 1033.39 2419.54 1035.51 2424.02C1037.28 2427.78 1038.57 2431.76 1039.32 2436.04C1039.52 2437.16 1039.66 2438.31 1039.82 2439.44C1038.52 2434.74 1037.42 2429.95 1034.58 2426.27C1036.06 2429.03 1037.33 2431.92 1038.02 2435.17C1037.45 2433.35 1036.66 2431.66 1035.85 2430C1035.05 2428.34 1034.17 2426.74 1033.32 2425.13C1032.48 2423.53 1031.62 2421.93 1030.77 2420.33C1030.71 2420.38 1030.65 2420.44 1030.59 2420.49C1031.46 2422.26 1032.3 2424.05 1033.19 2425.79C1034.83 2429 1036.63 2432.09 1037.78 2435.67C1038.19 2436.98 1038.59 2438.3 1038.8 2439.69C1037.43 2436.15 1035.76 2432.87 1033.75 2429.87C1031.36 2426.28 1028.91 2422.73 1026.58 2419.07C1026.42 2418.8 1026.23 2418.55 1026.05 2418.29C1027.09 2420.83 1028.51 2422.99 1029.93 2425.15C1031.92 2428.18 1034.12 2431 1035.82 2434.32C1035.95 2434.57 1036.15 2434.8 1036.17 2435.31C1032.66 2429.86 1028.68 2425.19 1024.88 2420.07C1024.87 2420.63 1025.08 2420.79 1025.21 2420.99C1026.24 2422.65 1027.41 2424.17 1028.59 2425.67C1030.86 2428.54 1033.13 2431.41 1035.2 2434.51C1036.06 2435.8 1036.84 2437.18 1037.47 2438.68C1036.09 2436.65 1034.69 2434.65 1033.11 2432.85C1031.53 2431.06 1029.97 2429.24 1028.4 2427.43C1030.08 2430.25 1032.27 2432.46 1034.18 2435C1033.87 2434.82 1033.6 2434.58 1033.36 2434.31C1031.68 2432.45 1030.02 2430.56 1028.34 2428.71C1025.28 2425.33 1022.77 2421.43 1021.15 2416.7C1021.09 2416.52 1020.99 2416.36 1020.91 2416.19C1021.63 2418.83 1022.64 2421.25 1023.99 2423.43C1025.94 2426.59 1028.42 2429.12 1030.76 2431.82C1032.64 2433.98 1034.74 2435.84 1036.45 2438.22C1036.85 2438.77 1037.24 2439.31 1037.56 2440.01C1037.44 2439.99 1037.38 2439.99 1037.36 2439.96C1035.59 2437.63 1033.49 2435.8 1031.38 2434C1028.33 2431.39 1025.44 2428.55 1023.09 2424.96C1022.8 2424.52 1022.48 2424.11 1022.17 2423.68C1022.12 2423.73 1022.07 2423.77 1022.02 2423.82C1022.11 2423.93 1022.21 2424.04 1022.28 2424.16C1024.15 2427.35 1026.4 2430.06 1028.95 2432.41C1031.35 2434.62 1033.9 2436.59 1036.14 2439.07C1036.32 2439.27 1036.51 2439.48 1036.68 2439.7C1036.85 2439.91 1037.01 2440.14 1037.17 2440.37C1035.49 2438.59 1033.7 2437.03 1031.7 2435.93C1029.54 2434.74 1027.67 2433.09 1025.97 2431.12C1023.95 2428.79 1022.15 2426.23 1020.87 2423.15C1020.68 2422.68 1020.53 2422.18 1020.36 2421.69C1020.54 2423.06 1021 2424.27 1021.63 2425.35C1024.32 2429.95 1027.43 2433.95 1031.74 2436.26C1032.64 2436.74 1033.49 2437.36 1034.25 2438.15C1033.82 2437.96 1033.44 2437.66 1033.03 2437.46C1030.43 2436.25 1027.99 2434.68 1025.67 2432.84C1022.15 2430.05 1019.4 2426.41 1018.14 2421.3C1017.89 2420.28 1017.78 2419.2 1017.6 2418.15C1017.4 2416.94 1017.42 2415.74 1017.79 2414.54C1017.96 2413.98 1018.2 2413.55 1018.7 2413.5C1019.58 2413.42 1020.04 2412.74 1020.52 2411.87C1021.52 2410.08 1022.71 2409.05 1024.43 2409.88C1024.58 2409.96 1024.73 2410 1024.88 2410.06C1025.49 2410.3 1026.04 2410.15 1026.43 2409.5C1027.06 2408.48 1027.85 2408.26 1028.76 2408.59C1029.45 2408.84 1030.05 2408.67 1030.63 2408.09C1031.46 2407.26 1032.41 2406.89 1033.47 2407.04C1034.44 2407.17 1035.42 2407.24 1036.4 2407.39C1037.61 2407.57 1038.6 2407.06 1039.42 2405.91C1039.98 2405.13 1040.52 2404.33 1041.13 2403.62C1042.17 2402.39 1043.08 2402.26 1044.24 2403.18C1045.12 2403.87 1046.05 2404.11 1047.05 2403.72C1048.56 2403.12 1049.98 2403.42 1051.42 2403.95C1052.63 2404.41 1053.09 2405.57 1053.14 2406.93C1053.18 2407.9 1052.96 2408.85 1052.69 2409.77C1052.49 2410.48 1052.28 2411.18 1052.08 2411.89C1051.96 2412.35 1051.94 2412.8 1052.27 2413.13C1052.62 2413.48 1052.96 2413.24 1053.29 2413C1054.15 2412.37 1054.76 2411.42 1055.31 2410.41C1055.67 2409.73 1056.06 2409.11 1056.65 2408.68C1059.09 2406.9 1062.64 2407.7 1064.18 2410.54C1065.15 2412.33 1066.48 2413.31 1068.14 2413.75C1068.38 2413.82 1068.63 2413.88 1068.86 2413.98C1070.32 2414.55 1070.98 2415.82 1070.58 2417.68C1070.24 2419.25 1070.64 2420.26 1071.63 2421.07C1072.77 2421.95 1073.34 2423.27 1073.59 2424.9C1073.95 2427.27 1075.1 2428.79 1076.94 2429.51C1077.09 2429.56 1077.24 2429.63 1077.39 2429.69C1078.87 2430.22 1079.76 2431.42 1080.14 2433.27C1080.4 2434.53 1080.4 2435.81 1080.17 2437.07C1079.81 2438.96 1080.05 2440.54 1081.07 2442.03C1082.5 2444.12 1082.99 2446.53 1082.13 2449.31C1081.57 2451.13 1080.72 2452.52 1079.35 2453.58C1076.28 2455.95 1073.14 2455.71 1069.99 2454.6C1067.07 2453.57 1064.42 2451.81 1061.71 2450.2C1060.58 2449.53 1059.48 2448.78 1058.37 2448.07C1061.36 2449.43 1064.16 2451.29 1067.16 2452.61C1062.93 2450.1 1058.66 2447.69 1054.3 2445.49C1056.27 2445.98 1058.25 2446.4 1060.08 2447.4C1062.66 2448.81 1065.15 2450.49 1067.81 2451.67C1069.34 2452.35 1070.82 2453.2 1072.41 2453.7C1067.79 2451.49 1063.33 2448.91 1058.8 2446.3C1060.18 2446.67 1061.46 2447.23 1062.75 2447.7C1060.92 2446.63 1058.91 2446.17 1057.01 2445.34L1059.54 2445.94C1056.8 2444.92 1053.92 2444.76 1050.93 2444.3C1051.15 2444.21 1051.21 2444.17 1051.27 2444.16C1054.59 2443.88 1057.79 2444.49 1060.84 2445.99C1063.3 2447.19 1065.71 2448.53 1068.14 2449.8C1070.36 2450.97 1072.69 2451.68 1075.14 2451.89C1069.36 2450.59 1064.44 2446.64 1058.77 2444.57C1061.61 2444.48 1064.24 2445.18 1066.86 2445.82C1069.5 2446.47 1072 2447.72 1074.61 2448.54C1073.55 2447.85 1072.38 2447.5 1071.25 2447.03C1067.76 2445.56 1064.16 2444.62 1060.45 2444.37C1057.93 2444.21 1055.46 2443.75 1052.97 2443.33C1060.77 2443.33 1068.56 2443.71 1076.36 2443.89C1069 2442.84 1061.55 2443.14 1054.33 2442.62C1057.83 2441.72 1061.53 2441.28 1065.28 2441.09C1069.18 2440.88 1073.03 2441.2 1076.89 2441.71C1076.75 2441.59 1076.6 2441.52 1076.45 2441.49C1070.37 2440.14 1064.22 2440.76 1058.07 2441.28C1058.39 2441.19 1058.72 2441.1 1059.04 2441.01C1056.06 2441.33 1053.11 2441.91 1050.17 2442.61C1050.91 2442.28 1051.66 2442.02 1052.42 2441.78C1057.87 2440.09 1063.39 2439.47 1068.94 2439.41C1070.21 2439.39 1071.47 2439.3 1072.73 2439.23C1072.73 2439.16 1072.73 2439.08 1072.73 2439C1068.85 2439.06 1064.96 2439 1061.08 2439.5C1057.21 2440.01 1053.39 2440.98 1049.61 2442.32C1051.84 2441.13 1054.17 2440.36 1056.51 2439.66C1058.88 2438.94 1061.28 2438.37 1063.7 2438.07C1066.06 2437.78 1068.4 2437.21 1070.77 2437.23C1065.14 2437.24 1059.58 2438.35 1054.08 2440.04C1056.04 2439.09 1058.04 2438.29 1060.05 2437.56C1057.05 2438.26 1054.21 2439.72 1051.2 2440.88C1051.44 2440.43 1051.82 2440.5 1052.06 2439.99C1050.95 2440.6 1049.95 2441.15 1048.96 2441.69C1048.94 2441.61 1048.93 2441.54 1048.91 2441.47C1054.04 2438.3 1059.42 2436.41 1065.11 2436.25C1058.9 2435.69 1053.22 2438.23 1047.63 2441.52C1047.74 2441.28 1047.9 2441.2 1048.05 2441.09C1050.41 2439.46 1052.84 2437.99 1055.37 2436.89C1061.52 2434.23 1067.83 2432.37 1074.19 2430.86C1075.05 2430.66 1075.92 2430.54 1076.73 2430.06C1067.81 2431.67 1059.03 2434.04 1050.68 2438.73C1057.4 2433.76 1064.8 2431.41 1072.25 2429.23C1062.76 2431.34 1053.77 2435.2 1045.62 2442.02C1048.17 2439.52 1050.66 2436.95 1053.59 2435.16C1056.46 2433.42 1059.39 2431.86 1062.31 2430.26C1058.5 2431.77 1054.82 2433.71 1051.27 2436.05C1053.38 2434.13 1055.51 2432.27 1057.83 2430.78C1060.69 2428.94 1063.7 2427.65 1066.76 2426.47C1067.84 2426.06 1068.88 2425.48 1069.81 2424.6C1067.69 2425.96 1065.38 2426.57 1063.15 2427.49C1058.41 2429.45 1054.23 2432.72 1050.24 2436.43C1049.79 2436.85 1049.34 2437.26 1048.89 2437.67C1048.46 2438.07 1048.04 2438.47 1047.61 2438.87C1047.65 2438.62 1047.75 2438.48 1047.86 2438.34C1050.29 2435.26 1053.01 2432.65 1055.89 2430.28C1060.41 2426.56 1065.33 2423.96 1070.39 2421.75C1070.82 2421.57 1071.29 2421.5 1071.64 2421.05L1071.64 2421.03Z" fill="#8C6239"/>
<path d="M1130.26 2408.74C1126.81 2408.18 1123.48 2409.17 1120.13 2409.92C1113.14 2411.48 1106.17 2413.23 1099.08 2414.21C1095.01 2414.78 1090.99 2414.37 1087.11 2412.99C1083.47 2411.69 1080.61 2408.92 1078.67 2405.21C1076.03 2400.17 1077.3 2393.5 1081.41 2389.23C1081.81 2388.81 1082.22 2388.38 1082.68 2388.06C1084.51 2386.8 1085.3 2384.93 1085.47 2382.55C1085.69 2379.62 1086.44 2376.91 1088.11 2374.57C1089.61 2372.45 1091.6 2371.78 1093.84 2371.57C1096.14 2371.35 1098.44 2371.04 1099.98 2368.67C1100.55 2367.78 1101.12 2366.87 1101.61 2365.91C1102.58 2363.99 1103.85 2362.52 1105.73 2361.82C1106.21 2361.64 1106.65 2361.35 1107.11 2361.13C1108.23 2360.58 1108.71 2359.64 1108.79 2358.22C1109.02 2354.03 1111.05 2351.99 1114.73 2352.21C1117.72 2352.38 1120.42 2351.74 1122.66 2349.25C1123.9 2347.88 1125.48 2347.21 1127.18 2347.04C1130.17 2346.72 1132.97 2347.47 1135.5 2349.34C1136.87 2350.35 1137.84 2351.77 1138.33 2353.6C1138.77 2355.21 1139.23 2356.83 1140.12 2358.21C1140.38 2358.61 1140.63 2359.31 1141.12 2359.11C1141.54 2358.94 1141.36 2358.25 1141.35 2357.77C1141.28 2355.86 1141.05 2353.96 1141.24 2352.05C1141.43 2350.16 1142.06 2348.56 1143.26 2347.23C1143.82 2346.61 1144.44 2346.17 1145.18 2346.06C1148.18 2345.61 1151.14 2345.55 1153.86 2347.49C1155.28 2348.51 1156.76 2348.74 1158.42 2348.18C1161.05 2347.28 1162.88 2348.13 1164.37 2350.86C1165.13 2352.25 1165.75 2353.75 1166.36 2355.24C1167.11 2357.03 1168.29 2358.04 1170.03 2358.29C1171.72 2358.54 1173.4 2358.9 1175.08 2359.22C1177.01 2359.59 1178.59 2360.65 1179.74 2362.45C1180.32 2363.36 1181 2363.8 1181.99 2363.79C1183.94 2363.79 1185.46 2364.64 1186.19 2366.86C1186.45 2367.63 1186.93 2367.96 1187.64 2367.89C1187.83 2367.87 1188.03 2367.89 1188.22 2367.88C1192.08 2367.81 1194.37 2369.89 1195.19 2374.23C1195.33 2374.93 1195.47 2375.6 1196.07 2376.02C1198.34 2377.62 1198.97 2379.31 1198.17 2382.22C1196.27 2389.15 1192.83 2394.73 1187.47 2398.8C1183.12 2402.11 1178.42 2404.2 1173.37 2405.45C1170.26 2406.21 1167.13 2406.8 1163.98 2407.29C1159.1 2408.04 1154.66 2410.11 1150.74 2413.65C1148.65 2415.53 1148.72 2418.07 1148.74 2420.55C1148.81 2430.87 1149.13 2441.19 1149.1 2451.5C1149.08 2459.11 1148.55 2466.71 1146.29 2473.98C1144.49 2479.78 1142.49 2485.46 1138.95 2490.22C1138.89 2490.31 1138.25 2490.7 1137.55 2491.45C1137.04 2491.99 1136.73 2492.46 1136.62 2492.62C1135.7 2493.95 1134.24 2495.35 1133.46 2496.09C1130.76 2498.66 1126.24 2500.03 1126.06 2499.57C1125.85 2499.04 1131.64 2497.05 1136.19 2490.02C1136.34 2489.79 1136.79 2489.05 1137.66 2487.46C1140.37 2482.51 1143.01 2477.49 1144.05 2471.69C1145.53 2463.44 1146.41 2455.11 1146.64 2446.67C1146.86 2438.26 1146.43 2429.86 1146.66 2421.46C1146.69 2420.35 1146.18 2419.5 1145.68 2418.65C1142.34 2412.9 1137.62 2409.7 1131.66 2408.86C1131.2 2408.8 1130.73 2408.78 1130.26 2408.74L1130.26 2408.74ZM1107.6 2361.34C1112.61 2364.26 1116.98 2368.23 1121.26 2372.35C1130.93 2381.64 1138.3 2392.92 1143.44 2406.13C1143.75 2406.93 1144.07 2407.72 1144.67 2408.32C1144.53 2407.65 1144.33 2407.03 1144.11 2406.42C1143.54 2404.77 1142.96 2403.12 1142.4 2401.46C1141.92 2400.02 1140.78 2398.89 1140.93 2397.14C1140.97 2396.75 1140.68 2396.31 1140.52 2395.91C1137.26 2387.82 1132.88 2380.58 1127.74 2373.92C1126.89 2372.81 1126.02 2371.73 1125.16 2370.64C1125.77 2370.91 1126.23 2371.35 1126.66 2371.83C1129.24 2374.73 1131.59 2377.86 1133.72 2381.2C1136.01 2384.79 1137.99 2388.6 1139.99 2392.39C1141.44 2396.08 1142.42 2400 1144.1 2403.58C1143.07 2399.67 1141.85 2395.86 1140.07 2392.32C1136.72 2383.11 1132.59 2374.36 1127.99 2365.91C1125.9 2362.08 1123.77 2358.29 1121.66 2354.49C1124.73 2357.71 1126.77 2361.82 1128.99 2365.73C1131.24 2369.68 1133.31 2373.76 1135.3 2377.88C1137.31 2382.04 1138.83 2386.49 1140.64 2390.76C1142.42 2394.95 1143.95 2399.23 1145.24 2403.64C1143.54 2391.38 1137.94 2381.04 1132.86 2370.43C1135.4 2374.47 1137.52 2378.77 1139.55 2383.14C1141.58 2387.52 1143.25 2392.07 1144.52 2396.81C1141.42 2381.79 1134.96 2368.48 1128.39 2355.23C1132.02 2360.66 1134.68 2366.75 1137.43 2372.76C1140.19 2378.82 1142.33 2385.2 1144.32 2391.67C1142.83 2384.36 1141.35 2377.05 1139.86 2369.73C1139.96 2369.71 1140.06 2369.68 1140.16 2369.66C1142.99 2381.64 1145.83 2393.62 1146.93 2406.04C1146.73 2402.49 1147.11 2398.92 1146.37 2395.42C1144.12 2384.84 1142.14 2374.19 1140.27 2363.52C1139.96 2361.73 1139.62 2359.93 1139.75 2358.09C1142.32 2369.05 1143.99 2380.25 1146.54 2391.22C1146.61 2382.46 1146.47 2373.72 1146.07 2364.98C1146.26 2365.4 1146.35 2365.82 1146.41 2366.26C1147.03 2371.33 1147.17 2376.44 1147.27 2381.55C1147.41 2388.34 1147.06 2395.15 1147.99 2402.31C1148.07 2398.33 1148.18 2394.74 1148.2 2391.15C1148.21 2387.59 1148.37 2384.04 1148.5 2380.49C1148.64 2376.89 1148.67 2373.29 1148.33 2369.69C1148 2366.17 1147.87 2362.65 1148.1 2358.79C1149.71 2370.31 1149.28 2381.54 1148.86 2392.79C1150.31 2379.91 1152.72 2367.13 1151.44 2354.03C1152.94 2364.14 1151.56 2374.13 1150.5 2384.13C1151.61 2379.44 1152.82 2374.81 1154.82 2370.52C1154.36 2372.44 1153.8 2374.33 1153.29 2376.24C1152.77 2378.15 1152.28 2380.07 1151.83 2382C1151.39 2383.94 1151.01 2385.89 1150.63 2387.84C1150.26 2389.8 1149.92 2391.76 1149.61 2393.73C1149.3 2395.65 1149.16 2397.59 1149.18 2399.53C1150.33 2393.81 1151.4 2388.07 1153.15 2382.55C1156 2373.54 1158.55 2364.47 1159.31 2354.86C1159.32 2354.76 1159.4 2354.67 1159.54 2354.37C1159.26 2362.85 1157.29 2370.67 1154.97 2378.42C1157.17 2372.93 1159.61 2367.62 1162.92 2362.88C1156.79 2374.69 1152.37 2387.23 1149.98 2400.69C1150.77 2398.34 1151.43 2395.93 1152.1 2393.52C1152.79 2391.1 1153.94 2388.92 1154.84 2386.61C1155.76 2384.26 1156.54 2381.83 1157.58 2379.54C1158.58 2377.35 1159.52 2375.12 1160.77 2373.09C1156.88 2383.71 1151.57 2393.68 1150 2405.3C1150.78 2403.21 1151.21 2400.99 1151.79 2398.83C1152.38 2396.62 1153.18 2394.49 1154.02 2392.39C1154.84 2390.33 1155.66 2388.27 1156.53 2386.24C1157.39 2384.22 1158.19 2382.17 1159.48 2380.43C1158.45 2383.01 1157.42 2385.6 1156.39 2388.19C1159.97 2380.9 1164.57 2374.41 1168.33 2367.1C1168.58 2367.72 1168.31 2367.94 1168.18 2368.17C1166.47 2371.3 1164.91 2374.54 1163.01 2377.51C1158.48 2384.6 1155.12 2392.38 1152.16 2400.43C1151.17 2403.11 1150.63 2405.95 1150.23 2408.83C1155.27 2393.53 1162.35 2379.64 1171.97 2367.51C1166.23 2376.33 1160.5 2385.16 1156.51 2395.25C1158.55 2391.72 1160.85 2388.41 1163.54 2385.51C1169.11 2379.52 1174 2372.87 1178.46 2365.79C1178.8 2365.26 1179.16 2364.74 1179.58 2364.12C1179.71 2364.66 1179.48 2364.83 1179.36 2365.03C1175.29 2371.85 1170.81 2378.27 1165.56 2383.92C1161.16 2388.66 1157.46 2393.96 1154.53 2399.99C1153.75 2401.58 1153.07 2403.21 1152.34 2404.83C1156.35 2398.45 1160.06 2391.84 1166.18 2387.76C1162.65 2391.13 1159.43 2394.83 1156.99 2399.34C1158.67 2396.91 1160.63 2394.77 1162.61 2392.69C1164.59 2390.62 1166.65 2388.66 1168.69 2386.67C1170.71 2384.7 1172.75 2382.74 1174.78 2380.77C1174.85 2380.88 1174.93 2380.99 1175.01 2381.1C1172.89 2383.31 1170.8 2385.57 1168.65 2387.73C1164.68 2391.72 1160.5 2395.43 1157.2 2400.21C1155.99 2401.96 1154.83 2403.73 1153.92 2405.7C1157.57 2401.1 1161.62 2397.04 1166.09 2393.55C1171.45 2389.38 1176.87 2385.3 1182.14 2380.98C1182.52 2380.67 1182.92 2380.38 1183.32 2380.09C1180.61 2383.36 1177.42 2385.89 1174.23 2388.41C1169.77 2391.94 1165.04 2395.06 1160.93 2399.17C1160.62 2399.48 1160.21 2399.72 1159.96 2400.48C1167.89 2394.08 1176.26 2389.09 1184.53 2383.34C1184.32 2384.18 1183.92 2384.31 1183.62 2384.55C1181.26 2386.52 1178.75 2388.19 1176.22 2389.85C1171.37 2393.02 1166.5 2396.16 1161.88 2399.76C1159.95 2401.27 1158.13 2402.94 1156.5 2404.86C1159.57 2402.52 1162.65 2400.22 1165.96 2398.33C1169.27 2396.45 1172.55 2394.5 1175.84 2392.58C1171.96 2395.97 1167.5 2398.17 1163.35 2401.01C1163.93 2400.9 1164.47 2400.67 1164.97 2400.39C1168.46 2398.44 1171.92 2396.46 1175.41 2394.53C1181.77 2391 1187.44 2386.43 1191.98 2380.16C1192.16 2379.92 1192.37 2379.73 1192.57 2379.52C1190.35 2383.11 1187.72 2386.22 1184.65 2388.81C1180.19 2392.56 1175.13 2395.11 1170.22 2397.97C1166.28 2400.27 1162.1 2401.99 1158.34 2404.69C1157.49 2405.31 1156.63 2405.93 1155.82 2406.82C1156.03 2406.84 1156.12 2406.88 1156.16 2406.84C1159.99 2404.24 1164.16 2402.55 1168.34 2400.91C1174.38 2398.54 1180.23 2395.73 1185.51 2391.55C1186.16 2391.03 1186.85 2390.58 1187.52 2390.1C1187.59 2390.19 1187.65 2390.28 1187.71 2390.38C1187.52 2390.5 1187.32 2390.61 1187.15 2390.76C1182.82 2394.59 1178.05 2397.52 1172.95 2399.75C1168.13 2401.86 1163.17 2403.53 1158.52 2406.11C1158.14 2406.33 1157.75 2406.55 1157.38 2406.79C1157.02 2407.02 1156.68 2407.29 1156.32 2407.55C1159.78 2405.72 1163.33 2404.28 1167.04 2403.64C1171.05 2402.95 1174.78 2401.41 1178.34 2399.32C1182.57 2396.84 1186.54 2393.91 1189.86 2389.96C1190.37 2389.35 1190.81 2388.67 1191.28 2388.03C1190.44 2389.99 1189.21 2391.56 1187.75 2392.86C1181.51 2398.4 1174.83 2402.82 1166.84 2404.12C1165.19 2404.39 1163.53 2404.88 1161.99 2405.69C1162.76 2405.62 1163.5 2405.35 1164.26 2405.27C1168.99 2404.76 1173.62 2403.64 1178.14 2402.05C1185.02 2399.64 1190.97 2395.57 1195.08 2388.55C1195.89 2387.15 1196.5 2385.59 1197.2 2384.11C1198.02 2382.4 1198.46 2380.6 1198.34 2378.62C1198.29 2377.69 1198.06 2376.93 1197.26 2376.61C1195.86 2376.04 1195.37 2374.79 1194.93 2373.25C1194.02 2370.07 1192.48 2367.93 1189.33 2368.32C1189.06 2368.36 1188.78 2368.34 1188.51 2368.36C1187.42 2368.42 1186.59 2367.91 1186.2 2366.75C1185.58 2364.9 1184.38 2364.18 1182.75 2364.22C1181.52 2364.25 1180.61 2363.69 1179.9 2362.53C1178.87 2360.87 1177.45 2359.85 1175.66 2359.53C1174.02 2359.24 1172.38 2358.86 1170.73 2358.59C1168.67 2358.26 1167.25 2357 1166.37 2354.87C1165.77 2353.42 1165.2 2351.95 1164.49 2350.58C1163.26 2348.22 1161.84 2347.58 1159.57 2348.36C1157.86 2348.95 1156.23 2348.86 1154.76 2347.77C1152.52 2346.11 1150.08 2345.85 1147.51 2345.93C1145.34 2346 1144.13 2347.52 1143.5 2349.51C1143.04 2350.95 1143.04 2352.48 1143.11 2354C1143.16 2355.15 1143.22 2356.31 1143.26 2357.46C1143.28 2358.22 1143.13 2358.9 1142.45 2359.23C1141.74 2359.58 1141.28 2359.06 1140.84 2358.53C1139.68 2357.14 1139.06 2355.43 1138.57 2353.64C1138.25 2352.44 1137.85 2351.31 1137.06 2350.38C1133.78 2346.49 1127.65 2345.91 1124 2349.38C1121.69 2351.57 1119.13 2352.38 1116.23 2352.22C1115.81 2352.19 1115.38 2352.16 1114.95 2352.18C1112.34 2352.32 1110.75 2353.89 1110.67 2356.87C1110.61 2359.38 1109.54 2360.7 1107.61 2361.4C1105.39 2362.15 1103.92 2363.85 1102.87 2366.16C1101.33 2369.52 1098.85 2371.22 1095.54 2371.37C1095.27 2371.38 1095 2371.41 1094.73 2371.41C1092.11 2371.47 1090.16 2372.82 1088.8 2375.4C1087.87 2377.16 1087.36 2379.07 1087.25 2381.07C1087.08 2384.08 1086.05 2386.32 1083.79 2388.04C1080.61 2390.44 1078.85 2393.81 1079.14 2398.4C1079.34 2401.4 1080.19 2403.91 1082.01 2406.17C1086.08 2411.26 1091.31 2412.47 1096.93 2412.39C1102.1 2412.31 1107.16 2411.01 1112.23 2409.96C1114.34 2409.52 1116.44 2408.96 1118.55 2408.45C1113.11 2408.99 1107.78 2410.36 1102.35 2410.83C1110.28 2409.19 1118.23 2407.73 1126.23 2406.62C1122.81 2406.37 1119.41 2406 1116.01 2406.58C1111.22 2407.4 1106.49 2408.66 1101.65 2409.1C1098.87 2409.35 1096.12 2409.89 1093.32 2409.83C1101.75 2408.84 1110.09 2407.21 1118.54 2405.59C1116.14 2405.45 1113.83 2405.64 1111.52 2405.69C1114.95 2405.02 1118.41 2405.33 1121.86 2405.04L1117.47 2404.66C1122.38 2404.51 1127.14 2405.72 1132.22 2406.53C1131.9 2406.29 1131.83 2406.19 1131.73 2406.16C1126.4 2404.06 1120.91 2403.38 1115.33 2404.09C1110.83 2404.67 1106.35 2405.46 1101.85 2406.14C1097.75 2406.77 1093.66 2406.67 1089.57 2405.76C1099.54 2406.71 1109.18 2403.26 1119.28 2403.01C1114.66 2401.45 1110.09 2401.18 1105.55 2400.83C1100.96 2400.47 1096.36 2401.1 1091.76 2401.01C1093.78 2400.51 1095.83 2400.57 1097.87 2400.43C1104.17 2399.99 1110.44 2400.37 1116.61 2401.87C1120.79 2402.89 1125.03 2403.44 1129.28 2404.06C1116.5 2400.15 1103.6 2396.81 1090.75 2393.18C1103.23 2395.29 1115.31 2399.48 1127.32 2402.32C1121.96 2399.21 1116.07 2396.7 1110.02 2394.54C1103.71 2392.27 1097.28 2390.82 1090.77 2389.65C1091.04 2389.54 1091.31 2389.51 1091.57 2389.54C1102.06 2390.56 1111.87 2394.58 1121.74 2398.44C1121.24 2398.14 1120.75 2397.85 1120.26 2397.55C1125.01 2399.52 1129.61 2401.87 1134.15 2404.39C1133.06 2403.52 1131.93 2402.75 1130.79 2402.02C1122.54 2396.76 1113.75 2393.07 1104.68 2390.19C1102.63 2389.54 1100.6 2388.76 1098.56 2388.03C1098.59 2387.92 1098.62 2387.8 1098.65 2387.68C1104.98 2389.72 1111.36 2391.57 1117.52 2394.27C1123.66 2396.97 1129.53 2400.33 1135.17 2404.23C1131.99 2401.33 1128.49 2399.01 1124.95 2396.79C1121.35 2394.54 1117.65 2392.48 1113.81 2390.82C1110.06 2389.2 1106.45 2387.18 1102.56 2386.02C1111.78 2388.86 1120.43 2393.29 1128.77 2398.59C1125.93 2396.17 1122.98 2393.98 1119.98 2391.87C1124.62 2394.43 1128.69 2398.03 1133.14 2401.27C1132.94 2400.5 1132.28 2400.4 1132.09 2399.52C1133.67 2400.99 1135.08 2402.3 1136.49 2403.61C1136.55 2403.51 1136.61 2403.41 1136.67 2403.31C1129.52 2395.99 1121.48 2390.48 1112.22 2387.39C1122.6 2389.66 1130.91 2396.3 1138.74 2404.02C1138.65 2403.62 1138.42 2403.41 1138.22 2403.18C1135.01 2399.55 1131.62 2396.14 1127.91 2393.22C1118.9 2386.16 1109.32 2380.23 1099.51 2374.78C1098.18 2374.04 1096.81 2373.42 1095.66 2372.31C1109.63 2379.18 1123.06 2387.13 1134.85 2398.33C1125.83 2387.53 1114.65 2380.3 1103.34 2373.31C1118.03 2381.22 1131.21 2391.5 1141.83 2405.79C1138.64 2400.77 1135.59 2395.66 1131.51 2391.53C1127.51 2387.48 1123.33 2383.68 1119.19 2379.83C1124.83 2384 1130.07 2388.74 1134.96 2394.02C1132.26 2390.09 1129.52 2386.24 1126.32 2382.84C1122.38 2378.66 1117.95 2375.22 1113.42 2371.94C1111.81 2370.77 1110.34 2369.38 1109.17 2367.6C1112.1 2370.7 1115.64 2372.77 1118.92 2375.27C1125.9 2380.57 1131.44 2387.56 1136.5 2395.11C1137.07 2395.95 1137.64 2396.79 1138.21 2397.64C1138.75 2398.44 1139.28 2399.26 1139.82 2400.07C1139.86 2399.68 1139.75 2399.42 1139.62 2399.16C1136.88 2393.33 1133.46 2388.05 1129.69 2383.07C1123.78 2375.25 1116.76 2368.89 1109.36 2363.05C1108.73 2362.56 1107.98 2362.21 1107.59 2361.38L1107.6 2361.34Z" fill="#8A2E00"/>
<path d="M1220.33 2444.3C1222.37 2443.97 1224.33 2444.64 1226.29 2445.14C1230.41 2446.21 1234.51 2447.39 1238.68 2448.08C1241.08 2448.47 1243.44 2448.25 1245.73 2447.39C1247.87 2446.59 1249.55 2444.84 1250.69 2442.48C1252.24 2439.26 1251.49 2434.97 1249.07 2432.2C1248.84 2431.93 1248.6 2431.65 1248.33 2431.44C1247.25 2430.62 1246.79 2429.41 1246.68 2427.88C1246.56 2426 1246.11 2424.25 1245.13 2422.74C1244.24 2421.37 1243.07 2420.92 1241.75 2420.77C1240.4 2420.61 1239.04 2420.38 1238.14 2418.85C1237.8 2418.27 1237.47 2417.69 1237.18 2417.07C1236.61 2415.83 1235.86 2414.88 1234.75 2414.41C1234.47 2414.29 1234.21 2414.1 1233.94 2413.95C1233.28 2413.59 1233 2412.98 1232.95 2412.07C1232.82 2409.38 1231.62 2408.06 1229.46 2408.16C1227.7 2408.25 1226.11 2407.82 1224.79 2406.2C1224.06 2405.31 1223.13 2404.87 1222.13 2404.74C1220.37 2404.51 1218.72 2404.97 1217.23 2406.15C1216.43 2406.78 1215.86 2407.69 1215.57 2408.86C1215.31 2409.89 1215.04 2410.92 1214.51 2411.8C1214.36 2412.06 1214.21 2412.5 1213.93 2412.37C1213.68 2412.26 1213.78 2411.82 1213.79 2411.51C1213.84 2410.28 1213.97 2409.07 1213.86 2407.84C1213.74 2406.62 1213.37 2405.59 1212.66 2404.73C1212.34 2404.32 1211.97 2404.04 1211.53 2403.96C1209.77 2403.65 1208.03 2403.58 1206.43 2404.81C1205.59 2405.45 1204.72 2405.58 1203.74 2405.21C1202.19 2404.61 1201.12 2405.14 1200.24 2406.88C1199.8 2407.77 1199.43 2408.72 1199.07 2409.67C1198.63 2410.81 1197.94 2411.45 1196.91 2411.6C1195.92 2411.74 1194.93 2411.96 1193.94 2412.15C1192.81 2412.37 1191.88 2413.04 1191.2 2414.18C1190.86 2414.76 1190.46 2415.03 1189.88 2415.03C1188.73 2415.01 1187.84 2415.54 1187.4 2416.96C1187.25 2417.45 1186.97 2417.66 1186.55 2417.6C1186.44 2417.59 1186.33 2417.6 1186.21 2417.59C1183.94 2417.52 1182.6 2418.83 1182.11 2421.61C1182.03 2422.06 1181.95 2422.49 1181.6 2422.75C1180.26 2423.75 1179.89 2424.83 1180.36 2426.71C1181.48 2431.17 1183.51 2434.78 1186.67 2437.44C1189.23 2439.6 1191.99 2440.98 1194.97 2441.82C1196.8 2442.34 1198.64 2442.74 1200.49 2443.08C1203.36 2443.61 1205.97 2444.97 1208.29 2447.28C1209.51 2448.5 1209.48 2450.13 1209.47 2451.72C1209.43 2458.34 1209.24 2464.96 1209.26 2471.58C1209.28 2476.46 1209.59 2481.34 1210.92 2486.02C1211.99 2489.76 1213.16 2493.42 1215.25 2496.5C1215.57 2496.98 1215.89 2497.4 1216.44 2497.35C1217.06 2497.3 1217.19 2497.06 1216.87 2496.4C1216.6 2495.83 1216.28 2495.3 1216 2494.74C1214.41 2491.54 1212.85 2488.3 1212.24 2484.57C1211.37 2479.27 1210.85 2473.91 1210.71 2468.5C1210.57 2463.1 1210.83 2457.71 1210.69 2452.32C1210.67 2451.61 1210.97 2451.06 1211.26 2450.53C1213.23 2446.87 1216 2444.86 1219.51 2444.37C1219.78 2444.33 1220.06 2444.32 1220.33 2444.3L1220.33 2444.3ZM1234.06 2414.53C1231.11 2416.36 1228.55 2418.87 1226.03 2421.48C1220.34 2427.36 1216.01 2434.53 1212.99 2442.96C1212.81 2443.47 1212.62 2443.98 1212.27 2444.35C1212.35 2443.93 1212.47 2443.54 1212.59 2443.14C1212.93 2442.09 1213.27 2441.04 1213.6 2439.98C1213.88 2439.06 1214.55 2438.34 1214.46 2437.22C1214.44 2436.97 1214.61 2436.69 1214.7 2436.43C1216.62 2431.27 1219.2 2426.66 1222.21 2422.43C1222.71 2421.73 1223.23 2421.04 1223.73 2420.35C1223.37 2420.51 1223.1 2420.79 1222.85 2421.1C1221.33 2422.93 1219.95 2424.92 1218.7 2427.05C1217.36 2429.33 1216.19 2431.76 1215.01 2434.18C1214.16 2436.53 1213.58 2439.04 1212.6 2441.32C1213.21 2438.82 1213.92 2436.39 1214.97 2434.13C1216.94 2428.25 1219.36 2422.67 1222.07 2417.29C1223.29 2414.85 1224.55 2412.44 1225.79 2410.02C1223.98 2412.05 1222.79 2414.67 1221.48 2417.17C1220.16 2419.68 1218.94 2422.28 1217.77 2424.91C1216.59 2427.56 1215.69 2430.4 1214.63 2433.13C1213.59 2435.8 1212.69 2438.53 1211.93 2441.35C1212.92 2433.5 1216.22 2426.91 1219.2 2420.15C1217.71 2422.72 1216.46 2425.46 1215.27 2428.25C1214.08 2431.04 1213.09 2433.94 1212.35 2436.97C1214.17 2427.36 1217.97 2418.88 1221.83 2410.43C1219.69 2413.89 1218.13 2417.77 1216.52 2421.6C1214.89 2425.47 1213.64 2429.55 1212.47 2433.68C1213.34 2429 1214.21 2424.32 1215.08 2419.64C1215.02 2419.62 1214.96 2419.61 1214.91 2419.59C1213.25 2427.25 1211.58 2434.91 1210.93 2442.88C1211.05 2440.6 1210.83 2438.3 1211.26 2436.07C1212.58 2429.3 1213.74 2422.48 1214.84 2415.65C1215.02 2414.51 1215.22 2413.36 1215.14 2412.17C1213.64 2419.18 1212.66 2426.35 1211.16 2433.37C1211.12 2427.75 1211.2 2422.14 1211.42 2416.54C1211.31 2416.81 1211.26 2417.08 1211.23 2417.35C1210.86 2420.6 1210.79 2423.88 1210.73 2427.16C1210.65 2431.51 1210.85 2435.89 1210.31 2440.47C1210.26 2437.92 1210.19 2435.62 1210.18 2433.31C1210.17 2431.03 1210.08 2428.75 1210 2426.47C1209.92 2424.16 1209.9 2421.85 1210.1 2419.54C1210.29 2417.29 1210.37 2415.03 1210.23 2412.55C1209.29 2419.93 1209.54 2427.14 1209.8 2434.36C1208.94 2426.08 1207.52 2417.86 1208.26 2409.47C1207.39 2415.94 1208.2 2422.36 1208.83 2428.79C1208.17 2425.77 1207.46 2422.79 1206.28 2420.02C1206.55 2421.26 1206.88 2422.47 1207.18 2423.7C1207.49 2424.93 1207.78 2426.17 1208.04 2427.41C1208.3 2428.66 1208.53 2429.91 1208.75 2431.17C1208.97 2432.42 1209.17 2433.69 1209.36 2434.95C1209.54 2436.19 1209.62 2437.43 1209.61 2438.68C1208.93 2435 1208.3 2431.31 1207.27 2427.75C1205.59 2421.95 1204.08 2416.1 1203.63 2409.93C1203.63 2409.87 1203.58 2409.81 1203.49 2409.62C1203.67 2415.06 1204.82 2420.1 1206.19 2425.09C1204.9 2421.54 1203.46 2418.12 1201.51 2415.05C1205.12 2422.67 1207.73 2430.76 1209.14 2439.42C1208.67 2437.9 1208.29 2436.35 1207.89 2434.8C1207.48 2433.24 1206.8 2431.83 1206.27 2430.34C1205.73 2428.82 1205.27 2427.26 1204.66 2425.78C1204.07 2424.37 1203.52 2422.93 1202.78 2421.62C1205.07 2428.46 1208.2 2434.9 1209.13 2442.37C1208.67 2441.03 1208.42 2439.6 1208.07 2438.21C1207.72 2436.79 1207.25 2435.41 1206.76 2434.06C1206.28 2432.73 1205.79 2431.4 1205.28 2430.09C1204.77 2428.79 1204.3 2427.47 1203.54 2426.33C1204.15 2428 1204.75 2429.67 1205.36 2431.34C1203.25 2426.64 1200.54 2422.43 1198.33 2417.71C1198.18 2418.1 1198.34 2418.25 1198.42 2418.4C1199.42 2420.42 1200.35 2422.52 1201.46 2424.44C1204.13 2429.02 1206.11 2434.04 1207.86 2439.23C1208.44 2440.96 1208.76 2442.78 1209 2444.63C1206.02 2434.78 1201.85 2425.81 1196.19 2417.94C1199.57 2423.65 1202.94 2429.36 1205.3 2435.87C1204.09 2433.59 1202.74 2431.45 1201.15 2429.56C1197.88 2425.67 1195 2421.36 1192.37 2416.78C1192.17 2416.44 1191.95 2416.11 1191.71 2415.7C1191.63 2416.05 1191.77 2416.16 1191.84 2416.29C1194.23 2420.7 1196.87 2424.86 1199.96 2428.52C1202.56 2431.6 1204.73 2435.04 1206.46 2438.93C1206.92 2439.95 1207.32 2441.01 1207.75 2442.05C1205.39 2437.92 1203.21 2433.65 1199.6 2430.98C1201.68 2433.18 1203.57 2435.57 1205.01 2438.49C1204.03 2436.91 1202.87 2435.53 1201.7 2434.18C1200.54 2432.83 1199.32 2431.56 1198.12 2430.26C1196.93 2428.98 1195.73 2427.71 1194.54 2426.43C1194.49 2426.49 1194.45 2426.56 1194.4 2426.63C1195.65 2428.07 1196.88 2429.54 1198.15 2430.94C1200.48 2433.53 1202.95 2435.95 1204.89 2439.05C1205.6 2440.18 1206.29 2441.33 1206.82 2442.6C1204.67 2439.61 1202.29 2436.97 1199.65 2434.7C1196.5 2431.98 1193.31 2429.31 1190.21 2426.5C1189.98 2426.29 1189.75 2426.11 1189.51 2425.91C1191.1 2428.04 1192.98 2429.69 1194.86 2431.33C1197.49 2433.63 1200.27 2435.67 1202.69 2438.35C1202.88 2438.55 1203.12 2438.71 1203.26 2439.2C1198.6 2435.02 1193.67 2431.75 1188.8 2427.99C1188.93 2428.53 1189.16 2428.62 1189.33 2428.78C1190.72 2430.06 1192.21 2431.16 1193.69 2432.24C1196.55 2434.31 1199.41 2436.37 1202.14 2438.72C1203.27 2439.7 1204.34 2440.79 1205.3 2442.04C1203.49 2440.51 1201.68 2439.01 1199.73 2437.77C1197.79 2436.53 1195.85 2435.25 1193.92 2433.99C1196.2 2436.2 1198.83 2437.65 1201.27 2439.51C1200.93 2439.43 1200.61 2439.28 1200.31 2439.1C1198.26 2437.82 1196.22 2436.51 1194.17 2435.24C1190.43 2432.93 1187.09 2429.95 1184.41 2425.89C1184.31 2425.73 1184.18 2425.61 1184.07 2425.47C1185.38 2427.79 1186.93 2429.81 1188.73 2431.5C1191.36 2433.94 1194.34 2435.62 1197.22 2437.5C1199.54 2439.01 1202 2440.15 1204.22 2441.91C1204.72 2442.32 1205.23 2442.72 1205.7 2443.3C1205.58 2443.31 1205.53 2443.33 1205.5 2443.31C1203.25 2441.61 1200.79 2440.49 1198.33 2439.4C1194.78 2437.83 1191.34 2435.98 1188.23 2433.25C1187.84 2432.91 1187.44 2432.62 1187.04 2432.3C1187 2432.36 1186.97 2432.42 1186.93 2432.48C1187.04 2432.56 1187.16 2432.63 1187.26 2432.73C1189.81 2435.23 1192.62 2437.14 1195.62 2438.62C1198.46 2440.01 1201.37 2441.12 1204.11 2442.82C1204.34 2442.96 1204.56 2443.11 1204.78 2443.27C1205 2443.42 1205.2 2443.59 1205.41 2443.76C1203.37 2442.56 1201.28 2441.61 1199.1 2441.16C1196.74 2440.69 1194.55 2439.67 1192.45 2438.3C1189.96 2436.67 1187.62 2434.76 1185.66 2432.19C1185.37 2431.8 1185.11 2431.36 1184.83 2430.94C1185.32 2432.21 1186.05 2433.23 1186.91 2434.07C1190.58 2437.68 1194.51 2440.57 1199.21 2441.47C1200.19 2441.66 1201.16 2441.99 1202.07 2442.52C1201.62 2442.47 1201.18 2442.29 1200.74 2442.23C1197.95 2441.87 1195.23 2441.11 1192.56 2440.05C1188.52 2438.44 1185.01 2435.78 1182.6 2431.24C1182.12 2430.34 1181.76 2429.33 1181.34 2428.38C1180.86 2427.27 1180.6 2426.11 1180.67 2424.84C1180.7 2424.25 1180.83 2423.76 1181.31 2423.56C1182.13 2423.21 1182.42 2422.41 1182.68 2421.43C1183.21 2419.4 1184.12 2418.04 1185.97 2418.32C1186.13 2418.34 1186.29 2418.33 1186.45 2418.34C1187.09 2418.39 1187.58 2418.08 1187.81 2417.33C1188.18 2416.15 1188.88 2415.7 1189.84 2415.74C1190.56 2415.77 1191.1 2415.42 1191.52 2414.68C1192.13 2413.62 1192.96 2412.98 1194.01 2412.79C1194.98 2412.62 1195.94 2412.39 1196.91 2412.23C1198.12 2412.03 1198.96 2411.24 1199.48 2409.88C1199.83 2408.96 1200.17 2408.02 1200.58 2407.15C1201.3 2405.64 1202.14 2405.24 1203.48 2405.76C1204.48 2406.16 1205.44 2406.11 1206.31 2405.42C1207.63 2404.38 1209.06 2404.23 1210.57 2404.31C1211.85 2404.37 1212.56 2405.35 1212.93 2406.64C1213.2 2407.56 1213.21 2408.55 1213.17 2409.52C1213.14 2410.26 1213.1 2411 1213.08 2411.74C1213.07 2412.22 1213.16 2412.66 1213.55 2412.88C1213.98 2413.11 1214.24 2412.78 1214.5 2412.44C1215.18 2411.57 1215.55 2410.47 1215.84 2409.32C1216.03 2408.56 1216.26 2407.84 1216.72 2407.25C1218.66 2404.78 1222.26 2404.46 1224.41 2406.72C1225.77 2408.15 1227.28 2408.68 1228.98 2408.6C1229.23 2408.59 1229.48 2408.57 1229.73 2408.59C1231.27 2408.7 1232.21 2409.72 1232.25 2411.64C1232.29 2413.25 1232.92 2414.1 1234.06 2414.57C1235.37 2415.07 1236.23 2416.17 1236.85 2417.66C1237.76 2419.83 1239.22 2420.95 1241.16 2421.07C1241.32 2421.08 1241.48 2421.1 1241.64 2421.1C1243.19 2421.16 1244.33 2422.04 1245.13 2423.71C1245.68 2424.85 1245.98 2426.08 1246.05 2427.36C1246.15 2429.29 1246.75 2430.74 1248.09 2431.86C1249.96 2433.43 1250.99 2435.61 1250.82 2438.55C1250.71 2440.47 1250.21 2442.07 1249.14 2443.51C1246.75 2446.74 1243.66 2447.47 1240.36 2447.37C1237.32 2447.28 1234.34 2446.4 1231.36 2445.68C1230.11 2445.38 1228.88 2445.01 1227.64 2444.66C1230.84 2445.05 1233.97 2445.98 1237.17 2446.33C1232.5 2445.21 1227.82 2444.2 1223.12 2443.42C1225.13 2443.29 1227.13 2443.09 1229.13 2443.49C1231.95 2444.05 1234.73 2444.9 1237.58 2445.22C1239.21 2445.41 1240.83 2445.77 1242.48 2445.76C1237.52 2445.06 1232.61 2443.94 1227.64 2442.82C1229.05 2442.76 1230.41 2442.9 1231.77 2442.95C1229.75 2442.49 1227.72 2442.66 1225.69 2442.45L1228.27 2442.24C1225.38 2442.1 1222.58 2442.84 1219.59 2443.32C1219.78 2443.16 1219.82 2443.1 1219.88 2443.08C1223.02 2441.78 1226.24 2441.39 1229.53 2441.89C1232.18 2442.3 1234.82 2442.85 1237.46 2443.32C1239.87 2443.76 1242.28 2443.73 1244.69 2443.19C1238.82 2443.71 1233.15 2441.41 1227.2 2441.17C1229.92 2440.2 1232.61 2440.07 1235.29 2439.88C1237.99 2439.69 1240.69 2440.13 1243.4 2440.12C1242.21 2439.78 1241 2439.8 1239.8 2439.69C1236.09 2439.36 1232.41 2439.55 1228.77 2440.46C1226.31 2441.08 1223.82 2441.39 1221.32 2441.75C1228.84 2439.35 1236.43 2437.32 1243.99 2435.1C1236.65 2436.35 1229.54 2438.93 1222.47 2440.65C1225.63 2438.71 1229.09 2437.15 1232.65 2435.81C1236.36 2434.41 1240.15 2433.53 1243.98 2432.84C1243.82 2432.77 1243.66 2432.75 1243.51 2432.76C1237.34 2433.33 1231.56 2435.82 1225.76 2438.21C1226.05 2438.03 1226.34 2437.84 1226.63 2437.65C1223.83 2438.88 1221.13 2440.35 1218.46 2441.92C1219.09 2441.38 1219.76 2440.89 1220.43 2440.43C1225.28 2437.13 1230.45 2434.84 1235.79 2433.07C1237 2432.66 1238.19 2432.18 1239.39 2431.73C1239.38 2431.66 1239.36 2431.58 1239.34 2431.51C1235.61 2432.76 1231.86 2433.89 1228.24 2435.57C1224.62 2437.26 1221.17 2439.36 1217.85 2441.81C1219.72 2439.98 1221.78 2438.52 1223.87 2437.13C1225.99 2435.71 1228.16 2434.42 1230.42 2433.39C1232.62 2432.38 1234.75 2431.12 1237.04 2430.41C1231.61 2432.15 1226.52 2434.92 1221.62 2438.25C1223.29 2436.72 1225.03 2435.34 1226.79 2434.02C1224.06 2435.61 1221.67 2437.89 1219.05 2439.93C1219.17 2439.44 1219.55 2439.38 1219.67 2438.82C1218.73 2439.75 1217.91 2440.58 1217.08 2441.41C1217.04 2441.34 1217.01 2441.27 1216.97 2441.21C1221.17 2436.57 1225.91 2433.11 1231.36 2431.21C1225.25 2432.57 1220.36 2436.76 1215.75 2441.65C1215.8 2441.39 1215.94 2441.26 1216.06 2441.11C1217.95 2438.81 1219.94 2436.65 1222.13 2434.81C1227.42 2430.36 1233.06 2426.63 1238.83 2423.22C1239.61 2422.76 1240.42 2422.37 1241.09 2421.67C1232.88 2425.96 1224.98 2430.95 1218.04 2438.03C1223.34 2431.18 1229.92 2426.64 1236.58 2422.25C1227.93 2427.2 1220.18 2433.68 1213.94 2442.76C1215.81 2439.56 1217.6 2436.31 1220 2433.7C1222.36 2431.14 1224.81 2428.73 1227.25 2426.29C1223.93 2428.92 1220.85 2431.92 1217.97 2435.26C1219.56 2432.77 1221.17 2430.32 1223.06 2428.17C1225.37 2425.52 1227.98 2423.35 1230.64 2421.28C1231.59 2420.54 1232.45 2419.66 1233.14 2418.53C1231.42 2420.5 1229.34 2421.8 1227.41 2423.37C1223.3 2426.71 1220.04 2431.15 1217.07 2435.95C1216.74 2436.49 1216.4 2437.02 1216.06 2437.56C1215.75 2438.07 1215.43 2438.59 1215.11 2439.1C1215.1 2438.86 1215.16 2438.69 1215.23 2438.52C1216.84 2434.81 1218.86 2431.45 1221.07 2428.28C1224.55 2423.32 1228.67 2419.3 1233.03 2415.62C1233.4 2415.3 1233.84 2415.09 1234.07 2414.56L1234.06 2414.53Z" fill="#8C6239"/>
<path d="M43.1129 985.748C43.7744 983.81 43.6129 981.821 43.5797 979.846C43.5128 975.709 43.3452 971.576 43.5922 967.434C43.7348 965.053 44.3771 962.784 45.5124 960.669C46.5787 958.682 48.3342 957.261 50.476 956.443C53.391 955.331 56.7356 956.585 58.5251 959.28C58.7001 959.544 58.8823 959.811 58.9977 960.1C59.4579 961.247 60.3504 961.848 61.5763 962.138C63.0811 962.492 64.4166 963.138 65.4587 964.28C66.4005 965.312 66.5378 966.504 66.408 967.807C66.2755 969.142 66.1951 970.488 67.2656 971.554C67.6697 971.956 68.0834 972.351 68.5324 972.707C69.4289 973.414 70.059 974.26 70.2241 975.394C70.2667 975.683 70.3711 975.96 70.4396 976.242C70.603 976.928 71.0458 977.276 71.7751 977.433C73.9368 977.898 74.7854 979.224 74.2795 981.316C73.8689 983.015 73.9128 984.617 74.9722 986.096C75.5584 986.916 75.7362 987.874 75.6459 988.863C75.4881 990.604 74.7977 992.15 73.5535 993.452C72.879 994.158 72.0315 994.601 71.0255 994.741C70.1375 994.865 69.2441 995.002 68.428 995.403C68.1895 995.52 67.7987 995.607 67.8494 995.903C67.8926 996.158 68.273 996.11 68.5254 996.138C69.5292 996.249 70.5451 996.269 71.5248 996.53C72.4911 996.788 73.2569 997.279 73.8241 998.071C74.0871 998.439 74.2482 998.83 74.2275 999.264C74.1405 1001.02 73.8549 1002.72 72.5511 1004.13C71.8692 1004.86 71.5893 1005.69 71.7064 1006.69C71.8914 1008.27 71.2529 1009.25 69.6668 1009.89C68.8594 1010.21 68.0128 1010.45 67.172 1010.68C66.1549 1010.97 65.5013 1011.57 65.183 1012.54C64.8734 1013.5 64.5074 1014.43 64.1582 1015.37C63.7592 1016.44 63.0374 1017.26 61.9727 1017.78C61.4403 1018.04 61.1373 1018.4 61.0322 1018.97C60.826 1020.08 60.2203 1020.89 58.9811 1021.13C58.5502 1021.22 58.3275 1021.47 58.2896 1021.88C58.2797 1021.99 58.2502 1022.1 58.2326 1022.22C57.8558 1024.43 56.5245 1025.58 54.1733 1025.71C53.7902 1025.73 53.4272 1025.76 53.1427 1026.07C52.0681 1027.25 51.1181 1027.48 49.6827 1026.79C46.2722 1025.15 43.7273 1022.73 42.1733 1019.34C40.9139 1016.58 40.3266 1013.72 40.2153 1010.72C40.1486 1008.88 40.1768 1007.04 40.2616 1005.19C40.3918 1002.34 39.7833 999.629 38.3584 997.097C37.6019 995.753 36.2693 995.589 34.9689 995.404C29.5768 994.629 24.1578 993.994 18.7771 993.162C14.8059 992.548 10.9014 991.64 7.34632 989.768C4.51372 988.277 1.76282 986.685 -0.344953 984.277C-0.671608 983.905 -0.944619 983.537 -0.800491 983.007C-0.640561 982.41 -0.418042 982.322 0.0585149 982.711C0.466922 983.043 0.835739 983.417 1.23787 983.757C3.5315 985.699 5.86559 987.611 8.78271 988.666C12.9284 990.167 17.1858 991.334 21.5626 992.131C25.9275 992.928 30.3593 993.346 34.7217 994.144C35.2928 994.248 35.7962 994.021 36.2884 993.805C39.6473 992.34 41.8226 989.889 42.8994 986.537C42.9832 986.278 43.0402 986.012 43.1105 985.749L43.1129 985.748ZM69.9895 976.05C67.9308 978.695 65.3892 980.883 62.7844 983.012C56.8994 987.821 50.2225 991.152 42.7796 993.054C42.3283 993.17 41.8793 993.292 41.5063 993.585C41.8669 993.558 42.2115 993.492 42.5561 993.418C43.4796 993.222 44.3998 993.016 45.3251 992.828C46.1281 992.665 46.8423 992.106 47.7384 992.331C47.9384 992.38 48.1981 992.252 48.4233 992.192C52.9978 990.963 57.2438 989.021 61.2712 986.606C61.9387 986.206 62.5958 985.792 63.2572 985.385C63.0536 985.713 62.7731 985.941 62.4759 986.149C60.6886 987.402 58.8027 988.499 56.8286 989.457C54.7122 990.483 52.5113 991.316 50.3166 992.165C48.2371 992.705 46.0882 992.958 44.0413 993.634C46.1875 993.353 48.3077 992.957 50.3459 992.215C55.5117 991.022 60.5192 989.352 65.4249 987.38C67.6434 986.488 69.8497 985.566 72.0607 984.657C70.053 986.164 67.6901 987.003 65.4088 987.971C63.1096 988.944 60.758 989.809 58.3934 990.625C56.0061 991.45 53.5242 991.969 51.0971 992.669C48.7228 993.355 46.3232 993.892 43.8848 994.286C50.4642 994.281 56.4613 991.888 62.5409 989.816C60.1634 990.953 57.691 991.83 55.1921 992.647C52.6895 993.463 50.1375 994.061 47.5273 994.414C55.6972 993.823 63.3342 991.175 70.9558 988.454C67.7312 990.108 64.2703 991.151 60.8392 992.249C57.3793 993.357 53.8191 994.073 50.2293 994.703C54.2044 994.431 58.1818 994.158 62.1568 993.886C62.1593 993.945 62.1618 994.004 62.1642 994.063C55.6094 994.734 49.054 995.415 42.4497 995.065C44.3263 995.23 46.1513 995.731 48.055 995.582C53.8166 995.128 59.5851 994.838 65.3566 994.613C66.3231 994.575 67.2978 994.522 68.2476 994.743C62.2501 995.349 56.2257 995.419 50.2274 996.014C54.7926 996.744 59.3691 997.357 63.9745 997.824C63.7348 997.9 63.5027 997.918 63.2722 997.914C60.5575 997.87 57.8778 997.543 55.1968 997.198C51.639 996.739 48.1196 996 44.2848 995.968C46.3546 996.328 48.2141 996.678 50.0851 996.969C51.9421 997.259 53.7799 997.629 55.6207 997.988C57.4849 998.35 59.361 998.653 61.2712 998.745C63.1455 998.834 64.9979 999.036 66.989 999.478C60.8045 999.486 54.985 998.352 49.1617 997.218C55.7281 999.072 62.1408 1001.46 69.1139 1001.77C63.6777 1001.83 58.6128 1000.25 53.5045 998.847C55.8315 999.853 58.1202 1000.91 60.1477 1002.4C59.1916 1001.98 58.2661 1001.51 57.3269 1001.07C56.3844 1000.62 55.4357 1000.19 54.4728 999.779C53.5099 999.372 52.5324 998.997 51.553 998.628C50.5735 998.26 49.5853 997.91 48.5913 997.573C47.6216 997.245 46.625 997.009 45.607 996.868C48.4691 997.984 51.3531 999.049 54.047 1000.49C58.4408 1002.84 62.9048 1005.02 67.8387 1006.22C67.8884 1006.23 67.9269 1006.28 68.0671 1006.39C63.6723 1005.55 59.8009 1003.81 56.0044 1001.86C58.6371 1003.56 61.1468 1005.38 63.2684 1007.65C57.7601 1003.2 51.6861 999.67 44.9181 997.234C46.0625 997.873 47.25 998.442 48.4326 999.022C49.6243 999.606 50.6369 1000.44 51.7468 1001.14C52.8758 1001.85 54.0594 1002.49 55.1419 1003.27C56.1786 1004.01 57.2409 1004.73 58.1656 1005.61C53.0435 1002.54 48.407 998.7 42.5103 996.885C43.5159 997.496 44.6277 997.916 45.6925 998.42C46.7826 998.936 47.8091 999.56 48.8154 1000.21C49.8026 1000.84 50.7892 1001.48 51.76 1002.14C52.7207 1002.79 53.7021 1003.41 54.4763 1004.29C53.2362 1003.49 51.9957 1002.7 50.7556 1001.9C54.176 1004.53 57.0732 1007.68 60.4823 1010.42C60.1361 1010.51 60.0505 1010.34 59.9414 1010.25C58.4911 1009.02 56.9655 1007.87 55.6189 1006.54C52.4069 1003.38 48.7051 1000.84 44.823 998.506C43.5291 997.727 42.1051 997.192 40.6447 996.733C48.0897 1000.84 54.577 1006 59.8794 1012.47C55.8905 1008.48 51.8982 1004.5 47.0582 1001.41C48.6823 1002.86 50.1623 1004.44 51.3883 1006.21C53.9206 1009.88 56.8673 1013.21 60.0835 1016.33C60.3267 1016.57 60.555 1016.81 60.8367 1017.1C60.5403 1017.13 60.4757 1016.99 60.3828 1016.9C57.2613 1014.04 54.388 1010.95 52.0029 1007.5C50.0021 1004.6 47.6273 1002.06 44.797 999.899C44.0518 999.33 43.2705 998.806 42.5065 998.263C45.4056 1001.07 48.4602 1003.72 49.9345 1007.55C48.5501 1005.26 46.9671 1003.12 44.8697 1001.36C45.9634 1002.52 46.8655 1003.81 47.7406 1005.11C48.6115 1006.41 49.4097 1007.75 50.2301 1009.07C51.0447 1010.39 51.8498 1011.71 52.6596 1013.03C52.5952 1013.07 52.5283 1013.11 52.4638 1013.14C51.5351 1011.75 50.5824 1010.37 49.6826 1008.97C48.027 1006.38 46.5381 1003.68 44.3934 1001.41C43.6103 1000.58 42.8103 999.774 41.879 999.097C43.892 1001.56 45.5793 1004.2 46.9191 1007.04C48.5229 1010.44 50.0734 1013.87 51.7623 1017.24C51.8857 1017.48 51.9908 1017.73 52.1027 1017.98C50.6808 1016.17 49.7058 1014.14 48.7327 1012.12C47.3684 1009.27 46.246 1006.32 44.5403 1003.64C44.4104 1003.43 44.3288 1003.18 43.9578 1002.98C46.4497 1008.03 48.1575 1013.23 50.2741 1018.42C49.8613 1018.23 49.8342 1017.99 49.7382 1017.8C48.9666 1016.3 48.3598 1014.72 47.768 1013.14C46.6336 1010.11 45.5132 1007.07 44.1276 1004.13C43.55 1002.91 42.87 1001.73 42.0437 1000.64C42.9363 1002.59 43.8051 1004.54 44.4368 1006.58C45.0681 1008.63 45.7325 1010.67 46.3821 1012.71C45.0292 1010.22 44.3592 1007.48 43.3191 1004.88C43.3167 1005.22 43.3758 1005.54 43.4704 1005.86C44.1139 1008.01 44.7776 1010.15 45.4124 1012.31C46.5717 1016.23 48.349 1019.85 51.1377 1022.95C51.2423 1023.06 51.3204 1023.2 51.4101 1023.33C49.7728 1021.77 48.4278 1020.02 47.4087 1018.06C45.9266 1015.2 45.1397 1012.1 44.1718 1009.06C43.3942 1006.62 42.9422 1004.09 41.9326 1001.72C41.7021 1001.17 41.4691 1000.63 41.0942 1000.1C41.0627 1000.22 41.0322 1000.26 41.0444 1000.29C41.9929 1002.7 42.4272 1005.22 42.8361 1007.75C43.426 1011.39 44.2661 1014.97 45.8856 1018.33C46.0849 1018.75 46.2477 1019.18 46.4283 1019.6C46.372 1019.63 46.3177 1019.66 46.2614 1019.69C46.2158 1019.57 46.1797 1019.45 46.1196 1019.34C44.5848 1016.55 43.5665 1013.58 42.9483 1010.48C42.3644 1007.55 42.0248 1004.58 41.1721 1001.7C41.1014 1001.47 41.0292 1001.23 40.9432 1001C40.8594 1000.77 40.756 1000.55 40.6593 1000.33C41.2426 1002.46 41.6153 1004.6 41.5526 1006.79C41.4839 1009.14 41.8866 1011.4 42.5958 1013.61C43.4363 1016.23 44.5403 1018.74 46.2506 1020.96C46.5114 1021.29 46.8194 1021.6 47.1047 1021.92C46.1721 1021.29 45.483 1020.46 44.9605 1019.51C42.7383 1015.5 41.1448 1011.32 41.3232 1006.63C41.3601 1005.66 41.2793 1004.68 41.0209 1003.72C40.9775 1004.17 41.0367 1004.62 40.9977 1005.06C40.7575 1007.81 40.8486 1010.56 41.1938 1013.28C41.7171 1017.41 43.2045 1021.15 46.4288 1024.06C47.0699 1024.63 47.8186 1025.11 48.5171 1025.63C49.3233 1026.23 50.2143 1026.63 51.2609 1026.72C51.7495 1026.76 52.1717 1026.69 52.4259 1026.25C52.8736 1025.49 53.5774 1025.31 54.4267 1025.18C56.1827 1024.91 57.4659 1024.2 57.599 1022.36C57.6106 1022.2 57.6481 1022.05 57.6679 1021.89C57.7514 1021.26 58.1063 1020.82 58.7547 1020.69C59.7856 1020.48 60.2889 1019.85 60.4431 1018.91C60.5592 1018.21 60.9512 1017.73 61.6292 1017.41C62.6092 1016.95 63.292 1016.22 63.6493 1015.22C63.9773 1014.3 64.3522 1013.39 64.6692 1012.47C65.0641 1011.31 65.8685 1010.6 67.0776 1010.26C67.8964 1010.03 68.7246 1009.82 69.5151 1009.52C70.8793 1009.01 71.3668 1008.24 71.2004 1006.88C71.0753 1005.85 71.2989 1004.93 72.0265 1004.17C73.1311 1003.01 73.5284 1001.64 73.7607 1000.16C73.9563 998.904 73.2963 998.094 72.3213 997.573C71.6198 997.198 70.8208 997.073 70.0224 996.992C69.4137 996.93 68.805 996.875 68.1987 996.804C67.8032 996.758 67.4634 996.616 67.3627 996.204C67.257 995.765 67.5772 995.547 67.8998 995.336C68.7472 994.78 69.7083 994.557 70.6975 994.419C71.3552 994.329 71.9864 994.193 72.5594 993.813C74.9389 992.236 75.8968 988.768 74.476 986.402C73.5796 984.906 73.4341 983.373 73.829 981.725C73.8878 981.483 73.9508 981.24 73.9841 980.994C74.1936 979.485 73.5433 978.449 71.9967 978.167C70.6919 977.93 70.1179 977.215 69.9569 976.051C69.8066 974.717 69.0748 973.743 67.9823 972.956C66.392 971.806 65.7698 970.249 66.0467 968.344C66.0703 968.188 66.0863 968.03 66.1118 967.874C66.362 966.365 65.8668 965.144 64.6669 964.159C63.8482 963.486 62.9052 963.043 61.873 962.819C60.3206 962.482 59.2591 961.716 58.6077 960.282C57.6929 958.271 56.1217 956.998 53.6975 956.801C52.1077 956.672 50.71 956.963 49.3319 957.826C46.242 959.757 45.0489 962.664 44.4915 965.888C43.9771 968.861 44.1167 971.864 44.1236 974.854C44.1259 976.103 44.1939 977.349 44.2331 978.597C44.5336 975.437 44.3903 972.274 44.7215 969.122C44.7296 973.797 44.6442 978.472 44.3638 983.148C44.8609 981.21 45.4164 979.288 45.4787 977.29C45.564 974.479 45.4121 971.666 45.702 968.857C45.8676 967.246 45.8837 965.625 46.2112 964.024C45.827 968.936 45.7836 973.849 45.7283 978.821C46.0561 977.454 46.2039 976.114 46.4236 974.787C46.41 976.808 45.8748 978.767 45.6572 980.769L46.3235 978.282C45.8777 981.105 44.7382 983.744 43.7689 986.588C43.9321 986.426 43.9884 986.391 44.0185 986.339C45.6825 983.447 46.6243 980.357 46.8517 977.099C47.034 974.471 47.0998 971.839 47.2241 969.208C47.3372 966.808 47.8275 964.47 48.7358 962.194C47.1771 967.837 47.9432 973.639 46.9911 979.45C48.3032 976.925 48.931 974.324 49.6013 971.747C50.2785 969.144 50.4458 966.459 50.9818 963.829C51.0266 965.026 50.7778 966.197 50.632 967.377C50.1867 971.025 49.3154 974.587 47.8724 978.01C46.8944 980.326 46.153 982.714 45.3763 985.098C48.7835 978.08 51.9088 970.947 55.1755 963.87C52.7414 970.856 49.2609 977.45 46.4926 984.114C48.6878 981.286 50.628 978.106 52.4066 974.81C54.2643 971.37 55.7103 967.8 57.0187 964.159C57.0434 964.325 57.0309 964.478 56.9896 964.624C55.3325 970.558 52.1854 975.87 49.1153 981.221C49.3232 980.961 49.5311 980.7 49.7385 980.441C48.1998 983.009 46.4832 985.46 44.6816 987.865C45.252 987.312 45.7747 986.725 46.2782 986.126C49.9067 981.814 52.7723 977.067 55.2456 972.095C55.808 970.966 56.4315 969.867 57.0283 968.753C57.0861 968.78 57.1434 968.808 57.2012 968.835C55.4579 972.303 53.812 975.816 51.7424 979.13C49.6742 982.439 47.2946 985.539 44.6549 988.464C46.5088 986.872 48.0941 985.048 49.6311 983.191C51.1942 981.305 52.6625 979.349 53.9427 977.276C55.188 975.257 56.6296 973.348 57.6496 971.208C55.1805 976.271 51.9434 980.881 48.2854 985.243C49.8487 983.803 51.3096 982.284 52.7304 980.732C50.9007 983.188 48.583 985.238 46.4165 987.535C46.8434 987.48 46.963 987.11 47.4444 987.071C46.5058 987.861 45.6717 988.564 44.8372 989.269C44.8848 989.311 44.9305 989.353 44.9777 989.397C49.5606 985.879 53.2988 981.702 55.9006 976.636C53.6044 982.41 49.2513 986.646 44.3808 990.526C44.6023 990.51 44.7349 990.394 44.8794 990.294C47.1164 988.742 49.2599 987.069 51.1778 985.17C55.8267 980.565 59.95 975.542 63.8429 970.348C64.3702 969.646 64.8408 968.905 65.5449 968.338C60.461 975.802 54.8756 982.872 47.7687 988.747C54.3725 984.431 59.3391 978.594 64.2001 972.66C58.4989 980.457 51.7243 987.199 43.129 992.159C46.0908 990.728 49.0822 989.384 51.6738 987.373C54.2147 985.399 56.6458 983.304 59.1007 981.234C56.3227 984.139 53.2855 986.768 50.0074 989.151C52.3462 987.917 54.6517 986.647 56.7642 985.082C59.3706 983.152 61.6399 980.889 63.8374 978.552C64.6205 977.721 65.5037 976.986 66.5551 976.456C64.6251 977.893 63.1637 979.755 61.5105 981.44C57.994 985.024 53.7562 987.648 49.2743 989.948C48.7726 990.206 48.2719 990.469 47.7702 990.727C47.2921 990.973 46.8106 991.217 46.3306 991.462C46.5268 991.511 46.678 991.469 46.8274 991.419C50.1603 990.308 53.2806 988.763 56.2855 986.998C60.9993 984.226 65.0708 980.708 68.9088 976.924C69.2346 976.602 69.4943 976.201 69.9713 976.042L69.9895 976.05Z" fill="#8C6239"/>
<path d="M25.6398 1056C24.9923 1057.44 23.8448 1058.49 22.7782 1059.59C20.5455 1061.91 18.2572 1064.18 16.2025 1066.66C15.0217 1068.09 14.1883 1069.7 13.7196 1071.47C13.2793 1073.14 13.5352 1074.83 14.3337 1076.37C15.421 1078.46 18.0107 1079.43 20.4693 1078.79C20.7098 1078.73 20.9564 1078.67 21.1761 1078.56C22.0489 1078.14 22.8815 1078.25 23.7403 1078.7C24.7942 1079.25 25.9049 1079.56 27.1101 1079.43C28.199 1079.31 28.9103 1078.71 29.5267 1077.9C30.1587 1077.07 30.8261 1076.27 32.0076 1076.2C32.4529 1076.17 32.9008 1076.16 33.3474 1076.18C34.2386 1076.23 35.0498 1076.06 35.7463 1075.5C35.9236 1075.36 36.1306 1075.25 36.3197 1075.12C36.7775 1074.82 37.2166 1074.84 37.7198 1075.12C39.2098 1075.94 40.4013 1075.61 41.22 1074.17C41.8849 1072.99 42.7596 1072.1 44.1535 1071.79C44.9259 1071.62 45.5362 1071.17 46.0085 1070.56C46.841 1069.49 47.2638 1068.26 47.2384 1066.9C47.2249 1066.16 46.9722 1065.48 46.4678 1064.9C46.0227 1064.38 45.5812 1063.85 45.3245 1063.22C45.2495 1063.03 45.0707 1062.78 45.2568 1062.64C45.4171 1062.52 45.6104 1062.74 45.7704 1062.85C46.4066 1063.29 47.0016 1063.79 47.7036 1064.13C48.3964 1064.47 49.0974 1064.57 49.8442 1064.41C50.1903 1064.33 50.4905 1064.19 50.7085 1063.93C51.5902 1062.89 52.3287 1061.78 52.3227 1060.32C52.3196 1059.56 52.6002 1058.95 53.1951 1058.44C54.141 1057.64 54.2941 1056.76 53.7199 1055.6C53.427 1055.01 53.0644 1054.45 52.7058 1053.89C52.2733 1053.22 52.2144 1052.55 52.5488 1051.84C52.8749 1051.14 53.1596 1050.43 53.4571 1049.72C53.7963 1048.91 53.8171 1048.08 53.4795 1047.25C53.3107 1046.83 53.3262 1046.48 53.5662 1046.1C54.0406 1045.36 54.1194 1044.6 53.5364 1043.84C53.3338 1043.57 53.337 1043.32 53.5349 1043.07C53.5889 1043 53.6304 1042.92 53.6791 1042.85C54.6382 1041.4 54.482 1040.08 53.1979 1038.82C52.9883 1038.62 52.7947 1038.42 52.7963 1038.1C52.8021 1036.89 52.3758 1036.29 51.1843 1035.96C48.3535 1035.18 45.6092 1035.27 42.9125 1036.43C40.7265 1037.36 38.8707 1038.69 37.2187 1040.34C36.2032 1041.36 35.2434 1042.42 34.3126 1043.51C32.872 1045.2 31.0861 1046.44 28.9234 1047.16C27.7753 1047.55 26.9218 1046.97 26.0752 1046.42C22.5625 1044.16 19.1076 1041.8 15.5709 1039.57C12.9607 1037.93 10.2326 1036.48 7.1949 1035.76C4.77432 1035.19 2.34754 1034.72 -0.142309 1035.03C-0.527579 1035.07 -0.879665 1035.15 -1.078 1035.52C-1.30254 1035.94 -1.22113 1036.1 -0.740909 1036.12C-0.329772 1036.14 0.080687 1036.11 0.492616 1036.12C2.84208 1036.16 5.19902 1036.25 7.43663 1037.11C10.6176 1038.34 13.6861 1039.81 16.627 1041.56C19.5605 1043.29 22.3319 1045.28 25.2648 1047.02C25.6486 1047.24 25.8179 1047.62 25.9867 1047.99C27.1419 1050.51 27.0938 1053 25.9355 1055.45C25.8461 1055.64 25.7379 1055.82 25.6391 1056L25.6398 1056ZM35.9591 1075.01C36.1772 1072.47 35.8756 1069.95 35.5062 1067.43C34.6706 1061.74 32.5962 1056.5 29.3226 1051.68C29.1244 1051.39 28.9309 1051.09 28.8719 1050.74C29.0649 1050.93 29.2281 1051.15 29.3872 1051.36C29.8146 1051.94 30.2346 1052.51 30.6674 1053.09C31.043 1053.58 31.1574 1054.26 31.792 1054.58C31.9332 1054.65 32.0147 1054.86 32.1124 1055C34.0925 1058 35.5052 1061.23 36.5417 1064.63C36.7136 1065.19 36.8721 1065.76 37.0366 1066.32C37.0933 1066.03 37.0532 1065.76 36.9922 1065.49C36.6283 1063.88 36.1256 1062.31 35.4975 1060.78C34.8241 1059.13 34 1057.55 33.1875 1055.97C32.2773 1054.62 31.1754 1053.39 30.3561 1051.98C31.4418 1053.22 32.4515 1054.51 33.2306 1055.95C35.5702 1059.23 37.5653 1062.69 39.3418 1066.27C40.1451 1067.89 40.9254 1069.53 41.7152 1071.15C41.3592 1069.29 40.4452 1067.62 39.6457 1065.93C38.8391 1064.22 37.9453 1062.55 37.0177 1060.9C36.0815 1059.23 34.9287 1057.69 33.9039 1056.07C32.9014 1054.49 31.8058 1052.98 30.612 1051.53C34.3946 1054.84 36.5758 1059.21 38.9745 1063.44C38.2095 1061.6 37.2523 1059.86 36.2479 1058.14C35.2408 1056.42 34.0899 1054.8 32.7755 1053.29C37.1623 1057.73 40.1513 1063.06 43.0936 1068.44C42.1155 1065.88 40.6775 1063.55 39.286 1061.2C37.8828 1058.83 36.2145 1056.64 34.4833 1054.48C36.6261 1056.63 38.7694 1058.78 40.9122 1060.93C40.9449 1060.9 40.9776 1060.87 41.0103 1060.83C37.595 1057.16 34.1845 1053.49 30.1996 1050.37C31.3664 1051.22 32.6822 1051.85 33.6984 1052.89C36.7727 1056.04 39.9377 1059.1 43.1387 1062.12C43.6745 1062.63 44.2068 1063.15 44.8705 1063.5C41.7416 1060.15 38.313 1057.08 35.1773 1053.73C38.1913 1055.61 41.1491 1057.56 44.0464 1059.6C43.9489 1059.44 43.8247 1059.31 43.6902 1059.2C42.1048 1057.86 40.3898 1056.7 38.6646 1055.55C36.374 1054.03 33.9572 1052.68 31.7342 1050.78C33.116 1051.61 34.3711 1052.35 35.6021 1053.12C36.8245 1053.89 38.0779 1054.6 39.3272 1055.32C40.5918 1056.05 41.8316 1056.82 42.9793 1057.72C44.1052 1058.61 45.2779 1059.43 46.6576 1060.18C43.1042 1057.07 39.1547 1054.79 35.2027 1052.51C39.964 1054.76 44.9211 1056.61 49.0953 1059.94C45.9982 1057.18 42.2472 1055.53 38.5651 1053.77C40.4377 1054.36 42.3158 1054.91 44.2714 1055.08C43.5 1054.84 42.7179 1054.64 41.9428 1054.42C41.1643 1054.2 40.3866 1053.97 39.6167 1053.72C38.8468 1053.47 38.0853 1053.19 37.3266 1052.91C36.5679 1052.63 35.8135 1052.33 35.0632 1052.03C34.3309 1051.73 33.6326 1051.36 32.9721 1050.93C35.2107 1051.73 37.4345 1052.57 39.7483 1053.11C43.5213 1053.98 47.2481 1054.97 50.721 1056.77C50.7556 1056.79 50.8061 1056.78 50.9428 1056.79C47.9709 1055.06 44.8186 1054.11 41.6015 1053.31C44.0174 1053.66 46.4251 1053.89 48.8513 1053.66C43.3237 1053.43 37.9555 1052.39 32.7699 1050.38C33.7672 1050.59 34.7523 1050.86 35.7401 1051.12C36.7353 1051.39 37.7609 1051.42 38.7704 1051.58C39.7974 1051.74 40.8159 1051.97 41.8519 1052.07C42.8437 1052.17 43.8356 1052.3 44.8321 1052.26C40.2571 1051.44 35.5549 1051.29 31.1995 1049.37C32.1024 1049.52 32.9646 1049.84 33.8446 1050.09C34.7454 1050.34 35.667 1050.5 36.589 1050.64C37.4936 1050.77 38.3989 1050.91 39.3065 1051.02C40.2041 1051.13 41.1006 1051.27 42.0109 1051.16C40.8746 1050.99 39.7391 1050.82 38.6028 1050.65C41.9663 1050.87 45.3049 1050.53 48.7163 1050.69C48.5675 1050.46 48.4264 1050.52 48.3143 1050.51C46.8304 1050.48 45.3395 1050.37 43.8626 1050.45C40.3392 1050.64 36.8605 1050.23 33.3897 1049.6C32.2325 1049.4 31.1295 1048.99 30.0455 1048.52C36.5068 1049.92 42.9746 1050.24 49.4583 1049.22C45.0485 1049.48 40.6394 1049.75 36.2151 1049.07C37.9212 1049.06 39.6087 1048.91 41.2549 1048.51C44.6557 1047.7 48.1175 1047.29 51.6231 1047.12C51.8884 1047.11 52.1505 1047.09 52.4663 1047.06C52.3118 1046.9 52.1976 1046.95 52.0989 1046.95C48.7821 1047.01 45.4943 1047.32 42.2888 1048.09C39.6005 1048.74 36.8868 1048.99 34.1134 1048.8C33.3834 1048.75 32.656 1048.65 31.9283 1048.58C35.0833 1048.44 38.2451 1048.47 41.126 1047.03C39.1155 1047.63 37.0702 1048.06 34.9316 1048C36.1727 1047.9 37.3777 1047.61 38.5722 1047.31C39.7606 1047.01 40.9305 1046.65 42.1054 1046.31C43.2723 1045.97 44.4366 1045.62 45.6022 1045.27C45.5842 1045.22 45.5656 1045.17 45.5476 1045.11C44.2756 1045.44 42.9972 1045.74 41.7329 1046.09C39.4078 1046.73 37.1221 1047.52 34.684 1047.74C33.7943 1047.81 32.9042 1047.87 32.0095 1047.79C34.4717 1047.4 36.8447 1046.74 39.1228 1045.8C41.85 1044.67 44.5597 1043.5 47.3161 1042.43C47.5166 1042.36 47.7106 1042.27 47.9072 1042.18C46.13 1042.49 44.4931 1043.16 42.8575 1043.82C40.5655 1044.76 38.3519 1045.87 35.9485 1046.54C35.7652 1046.59 35.5824 1046.7 35.2634 1046.63C39.3759 1045 43.1145 1042.91 47.0869 1041.01C46.7502 1040.91 46.6074 1041.04 46.4528 1041.09C45.2095 1041.56 44.024 1042.16 42.8457 1042.76C40.5845 1043.91 38.3278 1045.08 35.9735 1046.05C34.9921 1046.46 33.9778 1046.79 32.9237 1046.99C34.4713 1046.33 36.0043 1045.66 37.4521 1044.82C38.9006 1043.97 40.3628 1043.14 41.8177 1042.31C39.7186 1043.05 37.8826 1044.27 35.9029 1045.23C36.0831 1045.03 36.2895 1044.87 36.5103 1044.74C38.022 1043.84 39.5415 1042.96 41.0493 1042.05C43.7979 1040.4 46.7357 1039.24 49.9853 1038.87C50.1077 1038.86 50.2271 1038.82 50.3463 1038.79C48.5783 1038.85 46.8742 1039.18 45.2469 1039.78C42.8792 1040.66 40.7811 1042.03 38.6119 1043.27C36.8705 1044.27 35.2668 1045.49 33.4292 1046.33C33.0095 1046.52 32.5891 1046.71 32.0908 1046.82C32.135 1046.74 32.1417 1046.7 32.1646 1046.69C33.9835 1045.8 35.5719 1044.58 37.1477 1043.35C39.4218 1041.57 41.8028 1039.96 44.5161 1038.86C44.851 1038.72 45.173 1038.56 45.5021 1038.41C45.4847 1038.37 45.4685 1038.32 45.4511 1038.28C45.3625 1038.32 45.2765 1038.37 45.1841 1038.41C42.822 1039.22 40.6632 1040.4 38.6619 1041.85C36.7732 1043.22 34.9996 1044.75 32.986 1045.95C32.82 1046.05 32.6521 1046.15 32.4796 1046.24C32.3118 1046.33 32.1356 1046.4 31.9619 1046.48C33.4255 1045.56 34.7789 1044.52 35.8996 1043.25C37.1092 1041.88 38.5371 1040.8 40.1172 1039.9C41.9912 1038.83 43.9575 1037.95 46.1172 1037.55C46.4463 1037.49 46.7855 1037.47 47.1203 1037.43C46.2476 1037.32 45.4108 1037.45 44.6093 1037.72C41.2031 1038.89 38.0676 1040.47 35.6873 1043.22C35.1934 1043.79 34.6237 1044.32 33.9698 1044.73C34.1834 1044.45 34.4539 1044.23 34.6655 1043.96C35.9872 1042.27 37.4949 1040.75 39.136 1039.38C41.6282 1037.29 44.4666 1035.91 47.8643 1035.88C48.5395 1035.87 49.2203 1035.98 49.8993 1036.03C50.6843 1036.09 51.4063 1036.31 52.0547 1036.79C52.3573 1037.01 52.5642 1037.26 52.4806 1037.64C52.3343 1038.29 52.6441 1038.75 53.0632 1039.25C53.9291 1040.29 54.2895 1041.34 53.3913 1042.45C53.3147 1042.54 53.254 1042.65 53.182 1042.75C52.896 1043.15 52.868 1043.58 53.1713 1043.98C53.6527 1044.61 53.6092 1045.22 53.1998 1045.84C52.8921 1046.3 52.8641 1046.76 53.0857 1047.29C53.4056 1048.04 53.4115 1048.8 53.0866 1049.54C52.7868 1050.23 52.5217 1050.94 52.2132 1051.62C51.8276 1052.48 51.9118 1053.29 52.4284 1054.09C52.7778 1054.63 53.1421 1055.16 53.4387 1055.73C53.9506 1056.71 53.8247 1057.39 53.0054 1058.08C52.3894 1058.6 52.0273 1059.24 52.0426 1060.04C52.067 1061.25 51.5654 1062.23 50.9138 1063.19C50.3618 1064 49.5525 1064.13 48.7153 1063.94C48.1127 1063.8 47.587 1063.47 47.0844 1063.11C46.7013 1062.84 46.3223 1062.57 45.9358 1062.3C45.6834 1062.13 45.413 1062.04 45.1363 1062.23C44.8427 1062.42 44.9115 1062.71 44.9851 1062.99C45.1777 1063.73 45.6126 1064.34 46.1085 1064.91C46.4389 1065.3 46.7301 1065.69 46.8579 1066.19C47.391 1068.29 46.1024 1070.74 44.0305 1071.37C42.721 1071.77 41.8243 1072.57 41.1774 1073.71C41.0829 1073.87 40.9904 1074.04 40.8792 1074.2C40.1994 1075.16 39.276 1075.43 38.2365 1074.81C37.36 1074.29 36.6508 1074.41 35.9406 1074.99C35.147 1075.67 34.2093 1075.86 33.1632 1075.76C31.6387 1075.62 30.4548 1076.19 29.6039 1077.41C29.5346 1077.51 29.4599 1077.61 29.392 1077.71C28.7353 1078.7 27.803 1079.14 26.5903 1079.1C25.7626 1079.07 24.9849 1078.85 24.2721 1078.46C23.2007 1077.87 22.1834 1077.78 21.0485 1078.26C19.4555 1078.95 17.8761 1078.88 16.377 1077.78C15.3942 1077.06 14.7445 1076.19 14.4089 1075.01C13.6557 1072.36 14.5109 1070.1 15.9003 1067.99C17.1811 1066.04 18.8537 1064.4 20.4434 1062.71C21.1073 1062 21.8075 1061.32 22.4918 1060.63C20.9889 1062.58 19.229 1064.31 17.7474 1066.27C20.2316 1063.61 22.6621 1060.91 24.9807 1058.11C24.2385 1059.46 23.539 1060.83 22.5152 1062C21.0733 1063.64 19.4944 1065.17 18.1711 1066.91C17.4122 1067.91 16.5617 1068.84 15.901 1069.91C18.2849 1066.93 20.8655 1064.11 23.4708 1061.25C22.9343 1062.2 22.3087 1063.03 21.7311 1063.9C22.795 1062.74 23.5263 1061.36 24.4628 1060.11L23.5273 1061.86C24.768 1060.03 25.5118 1057.96 26.4628 1055.85C26.4709 1056.03 26.4842 1056.08 26.4742 1056.12C25.8979 1058.6 24.8007 1060.83 23.2035 1062.8C21.9149 1064.38 20.5566 1065.92 19.2328 1067.47C18.0252 1068.9 17.0675 1070.47 16.383 1072.22C18.479 1068.23 21.9966 1065.31 24.5309 1061.53C23.9465 1063.63 22.9285 1065.42 21.9472 1067.22C20.9563 1069.04 19.6283 1070.65 18.5423 1072.42C19.2027 1071.76 19.6805 1070.97 20.2228 1070.23C21.9008 1067.93 23.2889 1065.46 24.274 1062.79C24.94 1060.98 25.7799 1059.25 26.5972 1057.51C24.8354 1063.21 22.8506 1068.84 20.9767 1074.5C23.281 1069.31 24.7759 1063.81 26.7176 1058.63C26.4807 1061.34 25.9106 1064.12 25.1857 1066.89C24.43 1069.78 23.3684 1072.53 22.1904 1075.26C22.2923 1075.18 22.3662 1075.09 22.4202 1074.98C24.6141 1070.78 25.6208 1066.17 26.6923 1061.59C26.6737 1061.84 26.655 1062.09 26.6371 1062.35C27.1136 1060.11 27.426 1057.86 27.6648 1055.59C27.6999 1056.19 27.6894 1056.78 27.6615 1057.38C27.4618 1061.65 26.5931 1065.79 25.3791 1069.86C25.1039 1070.78 24.8794 1071.72 24.6322 1072.65C24.6797 1072.67 24.7278 1072.68 24.7752 1072.69C25.6115 1069.85 26.5278 1067.02 27.0948 1064.1C27.6596 1061.18 27.9345 1058.22 27.9676 1055.23C28.1897 1057.07 28.1341 1058.9 28.0336 1060.73C27.9327 1062.59 27.7399 1064.44 27.3771 1066.26C27.0231 1068.03 26.8397 1069.84 26.2917 1071.57C27.5561 1067.45 28.1386 1063.2 28.3477 1058.89C28.4836 1060.49 28.5181 1062.09 28.5125 1063.68C28.7627 1061.37 28.5165 1059.04 28.4881 1056.64C28.7045 1056.89 28.5769 1057.16 28.8332 1057.42C28.7124 1056.5 28.6055 1055.68 28.4993 1054.86C28.549 1054.86 28.5973 1054.86 28.6477 1054.86C29.4186 1059.16 29.3541 1063.42 28.1645 1067.6C29.9055 1063.17 29.6478 1058.57 28.903 1053.92C29.022 1054.04 29.0367 1054.17 29.0669 1054.3C29.5308 1056.31 29.8769 1058.34 29.9731 1060.38C30.2052 1065.33 29.9136 1070.26 29.3988 1075.17C29.3295 1075.83 29.2074 1076.49 29.3118 1077.16C30.3454 1070.37 30.8816 1063.54 29.909 1056.63C31.4191 1062.4 31.181 1068.22 30.8302 1074.03C31.6856 1066.73 31.3636 1059.5 29.049 1052.36C29.9942 1054.66 31.0024 1056.93 31.4266 1059.37C31.8415 1061.77 32.1293 1064.18 32.4441 1066.59C32.3861 1063.55 32.0331 1060.53 31.4113 1057.53C32.102 1059.4 32.755 1061.28 33.1405 1063.23C33.6164 1065.64 33.7214 1068.07 33.7466 1070.5C33.7561 1071.36 33.8744 1072.22 34.1986 1073.05C33.8502 1071.27 33.9971 1069.47 33.9393 1067.69C33.8171 1063.88 32.7706 1060.26 31.4118 1056.71C31.2602 1056.31 31.1114 1055.91 30.9598 1055.51C30.8153 1055.13 30.6674 1054.75 30.5216 1054.37C30.6601 1054.44 30.725 1054.54 30.7845 1054.64C32.1128 1056.95 33.0887 1059.39 33.881 1061.9C35.1232 1065.85 35.5994 1069.89 35.8006 1073.97C35.8174 1074.32 35.7542 1074.67 35.9445 1075L35.9591 1075.01Z" fill="#8C6239"/>
</g>
<defs>
<clipPath id="clip0_70_2465">
<rect width="1280" height="2489" fill="white"/>
</clipPath>
</defs>
</svg>
